<svg xmlns="http://www.w3.org/2000/svg" viewBox="0 0 720 1120" data-style="hand-drawn-ink-watercolor" data-card-id="card-devil">
<title>THE DEVIL — The Pilgrim's Ink Deck</title><desc>Original hand-drawn Tarot illustration with ink contours, watercolor washes, paper grain, and symbolic imagery.</desc>
<defs>
<filter id="paper-grain" x="-10%" y="-10%" width="120%" height="120%"><feTurbulence type="fractalNoise" baseFrequency=".72" numOctaves="4" seed="80" result="noise"/><feColorMatrix in="noise" values=".18 0 0 0 .72  0 .14 0 0 .66  0 0 .1 0 .54  0 0 0 .22 0"/><feBlend in="SourceGraphic" mode="multiply"/></filter>
<filter id="rough-ink" x="-8%" y="-8%" width="116%" height="116%"><feTurbulence type="turbulence" baseFrequency=".012 .055" numOctaves="2" seed="71" result="wobble"/><feDisplacementMap in="SourceGraphic" in2="wobble" scale="3.8" xChannelSelector="R" yChannelSelector="G"/></filter>
<filter id="watercolor" x="-20%" y="-20%" width="140%" height="140%"><feTurbulence type="fractalNoise" baseFrequency=".018" numOctaves="3" seed="69" result="wet"/><feDisplacementMap in="SourceGraphic" in2="wet" scale="18"/><feGaussianBlur stdDeviation="2.2"/></filter>
<linearGradient id="ink-wash" x1="0" y1="0" x2="1" y2="1"><stop stop-color="#20334d" stop-opacity=".66"/><stop offset=".52" stop-color="#6f8f83" stop-opacity=".32"/><stop offset="1" stop-color="#8f3151" stop-opacity=".62"/></linearGradient>
<radialGradient id="gold-bloom"><stop stop-color="#d6a84b" stop-opacity=".7"/><stop offset="1" stop-color="#d6a84b" stop-opacity="0"/></radialGradient>
<pattern id="crosshatch" width="18" height="18" patternUnits="userSpaceOnUse"><path d="M-3 18L18-3M4 22L22 4" stroke="#392f2a" stroke-width="1" opacity=".12"/></pattern>
</defs>
<rect width="720" height="1120" rx="38" fill="#efe2c8"/><rect x="12" y="12" width="696" height="1096" rx="32" fill="#f3e7cf" filter="url(#paper-grain)"/>
<path d="M 573.8 478.0 L 546.4 530.8 L 478.6 579.7 L 363.7 582.7 L 301.2 529.2 L 237.4 478.0 L 307.3 429.3 L 368.9 382.6 L 464.9 400.8 L 522.5 435.4 Z" fill="#20334d" opacity="0.055" filter="url(#watercolor)"/><path d="M 730.0 601.0 L 690.4 697.8 L 615.3 751.2 L 519.3 783.6 L 473.8 681.4 L 435.4 601.0 L 439.2 492.4 L 511.1 390.1 L 623.6 422.2 L 720.6 479.4 Z" fill="#8f3151" opacity="0.073" filter="url(#watercolor)"/><path d="M 263.6 250.0 L 238.1 333.6 L 188.5 379.1 L 132.2 376.0 L 85.0 330.3 L 80.4 250.0 L 95.1 180.5 L 129.2 110.4 L 182.8 146.4 L 244.2 159.8 Z" fill="#d6a84b" opacity="0.091" filter="url(#watercolor)"/><path d="M 701.9 487.0 L 659.2 596.3 L 550.9 670.1 L 408.7 671.3 L 364.6 557.4 L 296.5 487.0 L 341.7 402.6 L 416.5 322.9 L 541.0 329.4 L 637.3 391.0 Z" fill="#6f8f83" opacity="0.109" filter="url(#watercolor)"/><path d="M 185.5 280.0 L 162.9 348.7 L 136.8 452.3 L 68.0 421.0 L 4.2 381.9 L -3.5 280.0 L 37.1 213.4 L 67.5 136.4 L 130.9 134.9 L 187.7 184.6 Z" fill="#20334d" opacity="0.055" filter="url(#watercolor)"/><path d="M 254.5 467.0 L 250.1 527.7 L 166.9 565.7 L 60.9 569.9 L -22.3 528.7 L -23.0 467.0 L 8.3 419.1 L 59.4 361.1 L 151.2 398.1 L 223.4 418.3 Z" fill="#8f3151" opacity="0.073" filter="url(#watercolor)"/><path d="M 331.4 287.0 L 331.3 336.0 L 233.4 360.2 L 132.1 352.7 L 58.6 326.3 L -1.3 287.0 L 6.2 230.7 L 109.7 190.6 L 225.1 225.1 L 302.1 247.5 Z" fill="#d6a84b" opacity="0.091" filter="url(#watercolor)"/><path d="M 396.8 474.0 L 376.1 542.7 L 310.7 595.1 L 214.8 601.7 L 121.1 561.6 L 131.7 474.0 L 166.8 414.5 L 217.3 352.9 L 322.0 323.5 L 413.7 382.3 Z" fill="#6f8f83" opacity="0.109" filter="url(#watercolor)"/><path d="M 466.0 497.0 L 473.1 588.0 L 413.9 652.1 L 336.8 641.7 L 277.6 585.4 L 256.8 497.0 L 265.5 397.5 L 332.9 337.4 L 408.7 362.0 L 463.2 415.2 Z" fill="#20334d" opacity="0.055" filter="url(#watercolor)"/><path d="M 640.3 216.0 L 620.3 264.0 L 592.8 336.1 L 518.0 321.6 L 477.2 270.1 L 432.6 216.0 L 460.3 149.9 L 515.8 103.7 L 587.7 111.1 L 629.3 161.6 Z" fill="#8f3151" opacity="0.073" filter="url(#watercolor)"/><path d="M 711.3 311.0 L 634.5 397.1 L 592.0 518.4 L 491.6 475.5 L 430.5 403.2 L 390.8 311.0 L 413.1 203.6 L 494.1 155.9 L 580.3 147.0 L 664.6 198.7 Z" fill="#d6a84b" opacity="0.091" filter="url(#watercolor)"/><path d="M 518.5 279.0 L 508.8 358.9 L 487.0 452.7 L 446.8 409.1 L 404.6 385.0 L 388.3 279.0 L 415.9 193.2 L 441.9 111.9 L 487.7 100.1 L 523.5 172.9 Z" fill="#6f8f83" opacity="0.109" filter="url(#watercolor)"/><rect x="48" y="105" width="624" height="845" rx="16" fill="url(#crosshatch)"/><circle cx="614" cy="751" r="1.1" fill="#372f2a" opacity="0.44"/><circle cx="635" cy="658" r="2.2" fill="#372f2a" opacity="0.44"/><circle cx="229" cy="732" r="1.6" fill="#372f2a" opacity="0.26"/><circle cx="301" cy="657" r="1.6" fill="#372f2a" opacity="0.32"/><circle cx="198" cy="888" r="1.1" fill="#372f2a" opacity="0.37"/><circle cx="558" cy="317" r="1.1" fill="#372f2a" opacity="0.17"/><circle cx="365" cy="260" r="2.2" fill="#372f2a" opacity="0.35"/><circle cx="311" cy="490" r="2.2" fill="#372f2a" opacity="0.38"/><circle cx="380" cy="474" r="1.6" fill="#372f2a" opacity="0.26"/><circle cx="246" cy="130" r="2.2" fill="#372f2a" opacity="0.38"/><circle cx="638" cy="340" r="0.8" fill="#372f2a" opacity="0.35"/><circle cx="611" cy="356" r="1.1" fill="#372f2a" opacity="0.13"/><circle cx="198" cy="605" r="1.6" fill="#372f2a" opacity="0.14"/><circle cx="149" cy="489" r="2.2" fill="#372f2a" opacity="0.18"/><circle cx="186" cy="118" r="0.8" fill="#372f2a" opacity="0.20"/><circle cx="256" cy="230" r="1.6" fill="#372f2a" opacity="0.35"/><circle cx="647" cy="642" r="1.6" fill="#372f2a" opacity="0.23"/><circle cx="308" cy="341" r="1.6" fill="#372f2a" opacity="0.22"/><circle cx="316" cy="566" r="2.2" fill="#372f2a" opacity="0.27"/><circle cx="599" cy="809" r="0.8" fill="#372f2a" opacity="0.22"/><circle cx="278" cy="223" r="1.6" fill="#372f2a" opacity="0.20"/><circle cx="74" cy="259" r="2.2" fill="#372f2a" opacity="0.22"/><circle cx="491" cy="494" r="2.2" fill="#372f2a" opacity="0.21"/><circle cx="379" cy="760" r="1.6" fill="#372f2a" opacity="0.37"/><circle cx="139" cy="786" r="2.2" fill="#372f2a" opacity="0.31"/><circle cx="279" cy="898" r="0.8" fill="#372f2a" opacity="0.42"/><circle cx="586" cy="343" r="1.6" fill="#372f2a" opacity="0.18"/><circle cx="249" cy="478" r="2.2" fill="#372f2a" opacity="0.19"/><circle cx="276" cy="231" r="1.1" fill="#372f2a" opacity="0.29"/><circle cx="300" cy="622" r="2.2" fill="#372f2a" opacity="0.32"/><circle cx="84" cy="698" r="0.8" fill="#372f2a" opacity="0.17"/><circle cx="390" cy="748" r="1.6" fill="#372f2a" opacity="0.13"/><circle cx="434" cy="363" r="1.1" fill="#372f2a" opacity="0.22"/><circle cx="272" cy="461" r="1.1" fill="#372f2a" opacity="0.33"/><circle cx="102" cy="344" r="2.2" fill="#372f2a" opacity="0.27"/><circle cx="585" cy="281" r="1.6" fill="#372f2a" opacity="0.22"/><circle cx="494" cy="811" r="1.1" fill="#372f2a" opacity="0.33"/><circle cx="116" cy="129" r="1.1" fill="#372f2a" opacity="0.15"/><circle cx="68" cy="773" r="1.6" fill="#372f2a" opacity="0.24"/><circle cx="271" cy="754" r="2.2" fill="#372f2a" opacity="0.23"/><circle cx="507" cy="680" r="1.6" fill="#372f2a" opacity="0.21"/><circle cx="626" cy="133" r="1.1" fill="#372f2a" opacity="0.13"/><circle cx="514" cy="624" r="1.1" fill="#372f2a" opacity="0.14"/><circle cx="516" cy="720" r="2.2" fill="#372f2a" opacity="0.37"/><circle cx="515" cy="561" r="1.6" fill="#372f2a" opacity="0.40"/><circle cx="458" cy="275" r="1.1" fill="#372f2a" opacity="0.25"/><circle cx="452" cy="610" r="1.6" fill="#372f2a" opacity="0.33"/><circle cx="561" cy="685" r="2.2" fill="#372f2a" opacity="0.40"/><circle cx="274" cy="308" r="2.2" fill="#372f2a" opacity="0.29"/><circle cx="523" cy="483" r="2.2" fill="#372f2a" opacity="0.16"/><circle cx="374" cy="599" r="2.2" fill="#372f2a" opacity="0.28"/><circle cx="137" cy="893" r="1.1" fill="#372f2a" opacity="0.12"/><circle cx="545" cy="827" r="2.2" fill="#372f2a" opacity="0.29"/><circle cx="397" cy="427" r="1.1" fill="#372f2a" opacity="0.29"/><circle cx="236" cy="372" r="0.8" fill="#372f2a" opacity="0.17"/><circle cx="205" cy="339" r="0.8" fill="#372f2a" opacity="0.19"/><circle cx="102" cy="900" r="0.8" fill="#372f2a" opacity="0.25"/><circle cx="594" cy="780" r="2.2" fill="#372f2a" opacity="0.38"/><circle cx="64" cy="836" r="0.8" fill="#372f2a" opacity="0.13"/><circle cx="527" cy="340" r="2.2" fill="#372f2a" opacity="0.32"/><circle cx="243" cy="694" r="2.2" fill="#372f2a" opacity="0.39"/><circle cx="557" cy="572" r="0.8" fill="#372f2a" opacity="0.34"/><circle cx="280" cy="582" r="1.1" fill="#372f2a" opacity="0.41"/><circle cx="540" cy="645" r="2.2" fill="#372f2a" opacity="0.21"/><circle cx="569" cy="349" r="1.1" fill="#372f2a" opacity="0.36"/><circle cx="163" cy="489" r="1.1" fill="#372f2a" opacity="0.17"/><circle cx="621" cy="371" r="1.6" fill="#372f2a" opacity="0.34"/><circle cx="183" cy="197" r="2.2" fill="#372f2a" opacity="0.15"/><circle cx="396" cy="441" r="1.1" fill="#372f2a" opacity="0.17"/><circle cx="393" cy="475" r="1.6" fill="#372f2a" opacity="0.33"/><circle cx="143" cy="510" r="1.6" fill="#372f2a" opacity="0.32"/><circle cx="177" cy="122" r="2.2" fill="#372f2a" opacity="0.24"/><circle cx="475" cy="346" r="1.6" fill="#372f2a" opacity="0.35"/><circle cx="392" cy="693" r="2.2" fill="#372f2a" opacity="0.40"/><circle cx="503" cy="186" r="1.1" fill="#372f2a" opacity="0.17"/><circle cx="585" cy="533" r="0.8" fill="#372f2a" opacity="0.41"/><circle cx="81" cy="135" r="2.2" fill="#372f2a" opacity="0.22"/><circle cx="498" cy="462" r="1.1" fill="#372f2a" opacity="0.33"/><circle cx="586" cy="925" r="1.6" fill="#372f2a" opacity="0.15"/><circle cx="581" cy="523" r="2.2" fill="#372f2a" opacity="0.23"/><circle cx="598" cy="370" r="2.2" fill="#372f2a" opacity="0.28"/><circle cx="565" cy="811" r="2.2" fill="#372f2a" opacity="0.28"/><circle cx="516" cy="735" r="2.2" fill="#372f2a" opacity="0.18"/><circle cx="152" cy="804" r="1.6" fill="#372f2a" opacity="0.20"/><circle cx="334" cy="201" r="0.8" fill="#372f2a" opacity="0.17"/><circle cx="355" cy="725" r="2.2" fill="#372f2a" opacity="0.41"/><circle cx="409" cy="143" r="0.8" fill="#372f2a" opacity="0.30"/><circle cx="135" cy="758" r="1.1" fill="#372f2a" opacity="0.19"/><circle cx="547" cy="421" r="1.6" fill="#372f2a" opacity="0.17"/><circle cx="134" cy="260" r="1.1" fill="#372f2a" opacity="0.34"/><circle cx="95" cy="667" r="1.1" fill="#372f2a" opacity="0.39"/><circle cx="608" cy="199" r="2.2" fill="#372f2a" opacity="0.44"/><circle cx="518" cy="786" r="1.1" fill="#372f2a" opacity="0.16"/><circle cx="397" cy="896" r="2.2" fill="#372f2a" opacity="0.40"/><circle cx="147" cy="591" r="1.6" fill="#372f2a" opacity="0.14"/><path d="M160 259l18 -18" stroke="#302a27" stroke-width="1.2" opacity=".18"/><path d="M190 450l46 -13" stroke="#302a27" stroke-width="1.2" opacity=".18"/><path d="M529 335l23 -12" stroke="#302a27" stroke-width="1.2" opacity=".18"/><path d="M481 690l36 -18" stroke="#302a27" stroke-width="1.2" opacity=".18"/><path d="M222 451l44 2" stroke="#302a27" stroke-width="1.2" opacity=".18"/><path d="M257 632l76 9" stroke="#302a27" stroke-width="1.2" opacity=".18"/><path d="M145 717l23 12" stroke="#302a27" stroke-width="1.2" opacity=".18"/><path d="M481 766l73 14" stroke="#302a27" stroke-width="1.2" opacity=".18"/><path d="M586 817l45 7" stroke="#302a27" stroke-width="1.2" opacity=".18"/><path d="M154 859l38 1" stroke="#302a27" stroke-width="1.2" opacity=".18"/><path d="M343 335l62 13" stroke="#302a27" stroke-width="1.2" opacity=".18"/><path d="M607 538l24 13" stroke="#302a27" stroke-width="1.2" opacity=".18"/><path d="M543 870l77 -9" stroke="#302a27" stroke-width="1.2" opacity=".18"/><path d="M338 728l77 -15" stroke="#302a27" stroke-width="1.2" opacity=".18"/><path d="M374 627l64 -2" stroke="#302a27" stroke-width="1.2" opacity=".18"/><path d="M457 285l55 -13" stroke="#302a27" stroke-width="1.2" opacity=".18"/><path d="M407 242l39 -2" stroke="#302a27" stroke-width="1.2" opacity=".18"/><path d="M132 424l39 -7" stroke="#302a27" stroke-width="1.2" opacity=".18"/><path d="M605 497l37 12" stroke="#302a27" stroke-width="1.2" opacity=".18"/><path d="M507 210l56 12" stroke="#302a27" stroke-width="1.2" opacity=".18"/><path d="M300 582l54 13" stroke="#302a27" stroke-width="1.2" opacity=".18"/><path d="M554 409l72 3" stroke="#302a27" stroke-width="1.2" opacity=".18"/><path d="M222 679l62 -13" stroke="#302a27" stroke-width="1.2" opacity=".18"/><path d="M502 481l63 6" stroke="#302a27" stroke-width="1.2" opacity=".18"/><path d="M139 430l25 17" stroke="#302a27" stroke-width="1.2" opacity=".18"/><path d="M357 426l27 -5" stroke="#302a27" stroke-width="1.2" opacity=".18"/><path d="M145 256l54 -6" stroke="#302a27" stroke-width="1.2" opacity=".18"/><path d="M281 544l38 -13" stroke="#302a27" stroke-width="1.2" opacity=".18"/><path d="M574 626l44 2" stroke="#302a27" stroke-width="1.2" opacity=".18"/><path d="M267 192l61 2" stroke="#302a27" stroke-width="1.2" opacity=".18"/><path d="M601 185l50 15" stroke="#302a27" stroke-width="1.2" opacity=".18"/><path d="M620 408l53 -18" stroke="#302a27" stroke-width="1.2" opacity=".18"/><path d="M141 475l33 -18" stroke="#302a27" stroke-width="1.2" opacity=".18"/><path d="M475 615l62 -3" stroke="#302a27" stroke-width="1.2" opacity=".18"/><path d="M138 703l76 -12" stroke="#302a27" stroke-width="1.2" opacity=".18"/><path d="M442 844l72 1" stroke="#302a27" stroke-width="1.2" opacity=".18"/><path d="M606 841l79 -4" stroke="#302a27" stroke-width="1.2" opacity=".18"/><path d="M215 246l32 16" stroke="#302a27" stroke-width="1.2" opacity=".18"/><path d="M400 751l77 -5" stroke="#302a27" stroke-width="1.2" opacity=".18"/><path d="M531 427l56 -1" stroke="#302a27" stroke-width="1.2" opacity=".18"/><path d="M585 662l23 16" stroke="#302a27" stroke-width="1.2" opacity=".18"/><path d="M137 317l34 16" stroke="#302a27" stroke-width="1.2" opacity=".18"/><rect x="17" y="20" width="680" height="1080" rx="26" fill="none" stroke="#2b2724" stroke-width="5" opacity="0.92" filter="url(#rough-ink)"/><rect x="27" y="28" width="664" height="1064" rx="23" fill="none" stroke="#2b2724" stroke-width="2" opacity="0.42" filter="url(#rough-ink)"/><rect x="43" y="43" width="634" height="1034" rx="18" fill="none" stroke="#2b2724" stroke-width="2.5" opacity="0.7" filter="url(#rough-ink)"/><path d="M72 130Q360 80 648 130M72 930Q360 979 648 930" fill="none" stroke="#d6a84b" stroke-width="3" opacity=".75" filter="url(#rough-ink)"/>
<g data-scene="devil"><path d="M245 315Q175 180 295 260M475 315Q545 180 425 260" fill="none" stroke="#342725" stroke-width="12" stroke-linecap="round" stroke-linejoin="round" opacity="1" filter="url(#rough-ink)"/><path d="M245 315Q175 180 295 260M475 315Q545 180 425 260" fill="none" stroke="#342725" stroke-width="3.4" stroke-linecap="round" stroke-linejoin="round" opacity="0.45" transform="translate(2 -1)"/><path d="M210 770Q360 650 510 770" fill="none" stroke="#8f3151" stroke-width="10" stroke-linecap="round" stroke-linejoin="round" opacity="1" filter="url(#rough-ink)"/><path d="M210 770Q360 650 510 770" fill="none" stroke="#8f3151" stroke-width="2.8" stroke-linecap="round" stroke-linejoin="round" opacity="0.45" transform="translate(2 -1)"/><path d="M235 760l-65 90M485 760l65 90" fill="none" stroke="#342725" stroke-width="6" stroke-linecap="round" stroke-linejoin="round" opacity="1" filter="url(#rough-ink)"/><path d="M235 760l-65 90M485 760l65 90" fill="none" stroke="#342725" stroke-width="1.7" stroke-linecap="round" stroke-linejoin="round" opacity="0.45" transform="translate(2 -1)"/><g data-layer="hand-drawn-figure"><path d="M264 452 Q356 395 448 452 L498 820 Q356 870 214 820 Z" fill="#20334d" opacity=".52" stroke="#292622" stroke-width="6" filter="url(#rough-ink)"/><path d="M284 485 Q206 560 171 665" fill="none" stroke="#362d28" stroke-width="18" stroke-linecap="round" stroke-linejoin="round" opacity="1" filter="url(#rough-ink)"/><path d="M284 485 Q206 560 171 665" fill="none" stroke="#362d28" stroke-width="5.0" stroke-linecap="round" stroke-linejoin="round" opacity="0.45" transform="translate(2 -1)"/><path d="M428 485 Q506 550 536 640" fill="none" stroke="#362d28" stroke-width="18" stroke-linecap="round" stroke-linejoin="round" opacity="1" filter="url(#rough-ink)"/><path d="M428 485 Q506 550 536 640" fill="none" stroke="#362d28" stroke-width="5.0" stroke-linecap="round" stroke-linejoin="round" opacity="0.45" transform="translate(2 -1)"/><ellipse cx="356" cy="336" rx="69" ry="78" fill="#d3a67e" opacity=".82" stroke="#2e2824" stroke-width="5" filter="url(#rough-ink)"/><path d="M292 326Q302 241 356 252Q426 234 420 348" fill="none" stroke="#8f3151" stroke-width="24" opacity=".78" filter="url(#rough-ink)"/><path d="M325 339l17 2M370 341l17-2" stroke="#292522" stroke-width="7"/><path d="M337 376Q356 387 376 374" fill="none" stroke="#7c4e45" stroke-width="4"/><path d="M296 540Q356 590 416 540" fill="none" stroke="#d6a84b" stroke-width="7" stroke-linecap="round" stroke-linejoin="round" opacity="0.8" filter="url(#rough-ink)"/><path d="M296 540Q356 590 416 540" fill="none" stroke="#d6a84b" stroke-width="2.0" stroke-linecap="round" stroke-linejoin="round" opacity="0.36" transform="translate(2 -1)"/></g></g>
<rect x="78" y="942" width="564" height="118" rx="12" fill="#f4e8d4" opacity=".86" stroke="#302a27" stroke-width="4" filter="url(#rough-ink)"/>
<text x="360" y="995" text-anchor="middle" fill="#2d2926" font-family="Georgia,serif" font-size="31" font-weight="bold" letter-spacing="2">THE DEVIL</text>
<text x="360" y="1032" text-anchor="middle" fill="#20334d" font-family="Georgia,serif" font-size="15" letter-spacing="3">ADVERSARIAL</text>
<text x="360" y="84" text-anchor="middle" fill="#2e2925" font-family="Georgia,serif" font-size="30">XV</text>
</svg>