<svg xmlns="http://www.w3.org/2000/svg" viewBox="0 0 720 1120" data-style="hand-drawn-ink-watercolor" data-card-id="card-fool">
<title>THE FOOL — The Pilgrim's Ink Deck</title><desc>Original hand-drawn Tarot illustration with ink contours, watercolor washes, paper grain, and symbolic imagery.</desc>
<defs>
<filter id="paper-grain" x="-10%" y="-10%" width="120%" height="120%"><feTurbulence type="fractalNoise" baseFrequency=".72" numOctaves="4" seed="90" result="noise"/><feColorMatrix in="noise" values=".18 0 0 0 .72  0 .14 0 0 .66  0 0 .1 0 .54  0 0 0 .22 0"/><feBlend in="SourceGraphic" mode="multiply"/></filter>
<filter id="rough-ink" x="-8%" y="-8%" width="116%" height="116%"><feTurbulence type="turbulence" baseFrequency=".012 .055" numOctaves="2" seed="64" result="wobble"/><feDisplacementMap in="SourceGraphic" in2="wobble" scale="3.8" xChannelSelector="R" yChannelSelector="G"/></filter>
<filter id="watercolor" x="-20%" y="-20%" width="140%" height="140%"><feTurbulence type="fractalNoise" baseFrequency=".018" numOctaves="3" seed="76" result="wet"/><feDisplacementMap in="SourceGraphic" in2="wet" scale="18"/><feGaussianBlur stdDeviation="2.2"/></filter>
<linearGradient id="ink-wash" x1="0" y1="0" x2="1" y2="1"><stop stop-color="#20334d" stop-opacity=".66"/><stop offset=".52" stop-color="#6f8f83" stop-opacity=".32"/><stop offset="1" stop-color="#8f3151" stop-opacity=".62"/></linearGradient>
<radialGradient id="gold-bloom"><stop stop-color="#d6a84b" stop-opacity=".7"/><stop offset="1" stop-color="#d6a84b" stop-opacity="0"/></radialGradient>
<pattern id="crosshatch" width="18" height="18" patternUnits="userSpaceOnUse"><path d="M-3 18L18-3M4 22L22 4" stroke="#392f2a" stroke-width="1" opacity=".12"/></pattern>
</defs>
<rect width="720" height="1120" rx="38" fill="#efe2c8"/><rect x="12" y="12" width="696" height="1096" rx="32" fill="#f3e7cf" filter="url(#paper-grain)"/>
<path d="M 406.2 293.0 L 378.1 391.5 L 336.4 415.5 L 293.9 470.3 L 271.4 372.3 L 237.0 293.0 L 271.9 214.6 L 294.5 120.0 L 339.4 149.2 L 386.7 180.3 Z" fill="#20334d" opacity="0.055" filter="url(#watercolor)"/><path d="M 405.6 353.0 L 376.9 413.4 L 301.1 454.7 L 208.5 439.4 L 133.1 409.6 L 102.4 353.0 L 134.5 297.1 L 207.7 265.1 L 289.4 274.9 L 362.8 299.3 Z" fill="#8f3151" opacity="0.073" filter="url(#watercolor)"/><path d="M 384.9 548.0 L 393.7 600.9 L 307.3 645.3 L 177.1 641.9 L 73.8 606.0 L 68.9 548.0 L 130.8 509.8 L 193.9 478.8 L 292.3 472.7 L 363.8 505.4 Z" fill="#d6a84b" opacity="0.091" filter="url(#watercolor)"/><path d="M 634.2 870.0 L 624.6 959.9 L 578.1 1041.3 L 508.2 1013.2 L 465.4 949.2 L 428.8 870.0 L 451.3 775.8 L 509.9 734.5 L 577.6 700.9 L 634.0 770.2 Z" fill="#6f8f83" opacity="0.109" filter="url(#watercolor)"/><path d="M 318.3 867.0 L 232.4 906.1 L 155.3 932.3 L 49.7 938.8 L -38.3 910.9 L -32.7 867.0 L -38.0 823.2 L 40.9 783.8 L 164.6 789.6 L 244.8 824.1 Z" fill="#20334d" opacity="0.055" filter="url(#watercolor)"/><path d="M 416.0 500.0 L 410.1 619.1 L 321.3 654.7 L 248.8 630.7 L 192.2 583.5 L 139.4 500.0 L 170.2 396.1 L 241.0 338.7 L 315.8 366.8 L 382.1 407.0 Z" fill="#8f3151" opacity="0.073" filter="url(#watercolor)"/><path d="M 543.8 488.0 L 523.0 548.3 L 451.0 586.3 L 352.2 605.5 L 278.7 553.6 L 234.8 488.0 L 289.7 428.1 L 356.7 380.3 L 455.4 380.3 L 521.9 428.3 Z" fill="#d6a84b" opacity="0.091" filter="url(#watercolor)"/><path d="M 199.2 342.0 L 186.0 374.6 L 153.1 394.5 L 109.0 404.7 L 68.0 382.0 L 57.2 342.0 L 49.6 290.7 L 111.6 286.1 L 154.9 284.9 L 196.4 303.0 Z" fill="#6f8f83" opacity="0.109" filter="url(#watercolor)"/><path d="M 212.4 780.0 L 200.1 864.9 L 170.8 920.3 L 131.6 932.4 L 93.4 883.5 L 83.3 780.0 L 107.0 700.6 L 133.6 642.5 L 173.3 620.3 L 204.3 687.7 Z" fill="#20334d" opacity="0.055" filter="url(#watercolor)"/><path d="M 438.5 559.0 L 402.9 626.9 L 346.5 686.0 L 263.1 670.0 L 167.6 649.5 L 163.6 559.0 L 208.5 496.1 L 268.1 462.2 L 339.3 452.7 L 396.0 495.7 Z" fill="#8f3151" opacity="0.073" filter="url(#watercolor)"/><path d="M 612.3 328.0 L 599.9 405.7 L 511.2 440.7 L 417.4 444.2 L 355.7 391.0 L 299.5 328.0 L 340.5 256.3 L 420.4 219.1 L 510.8 216.2 L 574.3 265.1 Z" fill="#d6a84b" opacity="0.091" filter="url(#watercolor)"/><path d="M 472.2 263.0 L 460.1 335.4 L 382.6 345.8 L 317.2 369.5 L 257.1 329.1 L 230.8 263.0 L 262.5 200.6 L 319.8 164.2 L 391.0 156.0 L 427.8 212.7 Z" fill="#6f8f83" opacity="0.109" filter="url(#watercolor)"/><rect x="48" y="105" width="624" height="845" rx="16" fill="url(#crosshatch)"/><circle cx="467" cy="423" r="2.2" fill="#372f2a" opacity="0.14"/><circle cx="223" cy="629" r="1.6" fill="#372f2a" opacity="0.43"/><circle cx="562" cy="412" r="1.6" fill="#372f2a" opacity="0.27"/><circle cx="215" cy="767" r="0.8" fill="#372f2a" opacity="0.22"/><circle cx="568" cy="700" r="2.2" fill="#372f2a" opacity="0.19"/><circle cx="206" cy="923" r="1.1" fill="#372f2a" opacity="0.24"/><circle cx="446" cy="275" r="2.2" fill="#372f2a" opacity="0.33"/><circle cx="268" cy="181" r="0.8" fill="#372f2a" opacity="0.28"/><circle cx="138" cy="641" r="2.2" fill="#372f2a" opacity="0.29"/><circle cx="589" cy="926" r="1.6" fill="#372f2a" opacity="0.35"/><circle cx="223" cy="921" r="1.6" fill="#372f2a" opacity="0.34"/><circle cx="462" cy="341" r="1.1" fill="#372f2a" opacity="0.31"/><circle cx="549" cy="420" r="0.8" fill="#372f2a" opacity="0.26"/><circle cx="439" cy="259" r="1.6" fill="#372f2a" opacity="0.19"/><circle cx="173" cy="519" r="1.1" fill="#372f2a" opacity="0.42"/><circle cx="639" cy="628" r="1.6" fill="#372f2a" opacity="0.28"/><circle cx="351" cy="675" r="1.6" fill="#372f2a" opacity="0.21"/><circle cx="610" cy="709" r="2.2" fill="#372f2a" opacity="0.17"/><circle cx="401" cy="855" r="1.1" fill="#372f2a" opacity="0.23"/><circle cx="650" cy="492" r="0.8" fill="#372f2a" opacity="0.17"/><circle cx="261" cy="734" r="0.8" fill="#372f2a" opacity="0.40"/><circle cx="651" cy="288" r="2.2" fill="#372f2a" opacity="0.37"/><circle cx="302" cy="201" r="1.1" fill="#372f2a" opacity="0.13"/><circle cx="608" cy="802" r="2.2" fill="#372f2a" opacity="0.43"/><circle cx="382" cy="486" r="1.6" fill="#372f2a" opacity="0.44"/><circle cx="157" cy="897" r="1.1" fill="#372f2a" opacity="0.14"/><circle cx="532" cy="675" r="2.2" fill="#372f2a" opacity="0.17"/><circle cx="219" cy="519" r="2.2" fill="#372f2a" opacity="0.21"/><circle cx="134" cy="457" r="1.6" fill="#372f2a" opacity="0.30"/><circle cx="81" cy="610" r="0.8" fill="#372f2a" opacity="0.23"/><circle cx="161" cy="478" r="2.2" fill="#372f2a" opacity="0.29"/><circle cx="122" cy="561" r="1.6" fill="#372f2a" opacity="0.25"/><circle cx="332" cy="650" r="2.2" fill="#372f2a" opacity="0.24"/><circle cx="105" cy="801" r="0.8" fill="#372f2a" opacity="0.37"/><circle cx="145" cy="564" r="1.6" fill="#372f2a" opacity="0.36"/><circle cx="588" cy="249" r="1.1" fill="#372f2a" opacity="0.35"/><circle cx="156" cy="889" r="0.8" fill="#372f2a" opacity="0.34"/><circle cx="645" cy="477" r="1.1" fill="#372f2a" opacity="0.16"/><circle cx="364" cy="901" r="1.6" fill="#372f2a" opacity="0.35"/><circle cx="592" cy="645" r="0.8" fill="#372f2a" opacity="0.18"/><circle cx="246" cy="199" r="2.2" fill="#372f2a" opacity="0.22"/><circle cx="144" cy="849" r="0.8" fill="#372f2a" opacity="0.14"/><circle cx="161" cy="260" r="1.1" fill="#372f2a" opacity="0.27"/><circle cx="562" cy="463" r="0.8" fill="#372f2a" opacity="0.44"/><circle cx="421" cy="706" r="2.2" fill="#372f2a" opacity="0.41"/><circle cx="123" cy="674" r="1.6" fill="#372f2a" opacity="0.24"/><circle cx="338" cy="655" r="2.2" fill="#372f2a" opacity="0.23"/><circle cx="244" cy="472" r="2.2" fill="#372f2a" opacity="0.37"/><circle cx="288" cy="118" r="0.8" fill="#372f2a" opacity="0.35"/><circle cx="128" cy="414" r="2.2" fill="#372f2a" opacity="0.36"/><circle cx="538" cy="469" r="1.6" fill="#372f2a" opacity="0.37"/><circle cx="287" cy="739" r="1.1" fill="#372f2a" opacity="0.43"/><circle cx="68" cy="837" r="2.2" fill="#372f2a" opacity="0.24"/><circle cx="82" cy="287" r="2.2" fill="#372f2a" opacity="0.29"/><circle cx="221" cy="760" r="0.8" fill="#372f2a" opacity="0.27"/><circle cx="191" cy="507" r="1.6" fill="#372f2a" opacity="0.15"/><circle cx="437" cy="618" r="2.2" fill="#372f2a" opacity="0.43"/><circle cx="141" cy="454" r="2.2" fill="#372f2a" opacity="0.41"/><circle cx="330" cy="302" r="0.8" fill="#372f2a" opacity="0.39"/><circle cx="393" cy="539" r="1.1" fill="#372f2a" opacity="0.19"/><circle cx="133" cy="368" r="1.6" fill="#372f2a" opacity="0.22"/><circle cx="570" cy="192" r="1.1" fill="#372f2a" opacity="0.41"/><circle cx="569" cy="158" r="1.6" fill="#372f2a" opacity="0.33"/><circle cx="142" cy="246" r="1.6" fill="#372f2a" opacity="0.14"/><circle cx="587" cy="740" r="2.2" fill="#372f2a" opacity="0.13"/><circle cx="579" cy="382" r="1.1" fill="#372f2a" opacity="0.35"/><circle cx="74" cy="307" r="2.2" fill="#372f2a" opacity="0.19"/><circle cx="148" cy="575" r="1.6" fill="#372f2a" opacity="0.33"/><circle cx="413" cy="162" r="2.2" fill="#372f2a" opacity="0.26"/><circle cx="78" cy="836" r="1.1" fill="#372f2a" opacity="0.23"/><circle cx="67" cy="332" r="2.2" fill="#372f2a" opacity="0.31"/><circle cx="437" cy="898" r="1.1" fill="#372f2a" opacity="0.16"/><circle cx="415" cy="391" r="1.6" fill="#372f2a" opacity="0.44"/><circle cx="208" cy="572" r="1.1" fill="#372f2a" opacity="0.40"/><circle cx="69" cy="118" r="1.6" fill="#372f2a" opacity="0.24"/><circle cx="598" cy="643" r="1.6" fill="#372f2a" opacity="0.31"/><circle cx="425" cy="907" r="1.1" fill="#372f2a" opacity="0.30"/><circle cx="428" cy="126" r="2.2" fill="#372f2a" opacity="0.13"/><circle cx="350" cy="869" r="1.1" fill="#372f2a" opacity="0.12"/><circle cx="283" cy="912" r="1.1" fill="#372f2a" opacity="0.14"/><circle cx="585" cy="243" r="1.1" fill="#372f2a" opacity="0.16"/><circle cx="442" cy="868" r="2.2" fill="#372f2a" opacity="0.31"/><circle cx="104" cy="826" r="1.1" fill="#372f2a" opacity="0.34"/><circle cx="326" cy="365" r="0.8" fill="#372f2a" opacity="0.32"/><circle cx="181" cy="641" r="1.6" fill="#372f2a" opacity="0.22"/><circle cx="133" cy="526" r="0.8" fill="#372f2a" opacity="0.13"/><circle cx="110" cy="839" r="2.2" fill="#372f2a" opacity="0.41"/><circle cx="178" cy="416" r="2.2" fill="#372f2a" opacity="0.30"/><circle cx="510" cy="636" r="1.1" fill="#372f2a" opacity="0.18"/><circle cx="510" cy="641" r="0.8" fill="#372f2a" opacity="0.37"/><circle cx="555" cy="687" r="1.6" fill="#372f2a" opacity="0.43"/><circle cx="417" cy="488" r="1.6" fill="#372f2a" opacity="0.27"/><circle cx="607" cy="119" r="2.2" fill="#372f2a" opacity="0.28"/><circle cx="490" cy="424" r="0.8" fill="#372f2a" opacity="0.37"/><circle cx="67" cy="648" r="1.6" fill="#372f2a" opacity="0.24"/><path d="M237 348l65 -11" stroke="#302a27" stroke-width="1.2" opacity=".18"/><path d="M435 590l63 -6" stroke="#302a27" stroke-width="1.2" opacity=".18"/><path d="M326 378l65 -6" stroke="#302a27" stroke-width="1.2" opacity=".18"/><path d="M572 403l26 14" stroke="#302a27" stroke-width="1.2" opacity=".18"/><path d="M310 354l21 -9" stroke="#302a27" stroke-width="1.2" opacity=".18"/><path d="M321 777l60 -16" stroke="#302a27" stroke-width="1.2" opacity=".18"/><path d="M466 431l37 8" stroke="#302a27" stroke-width="1.2" opacity=".18"/><path d="M586 511l78 17" stroke="#302a27" stroke-width="1.2" opacity=".18"/><path d="M429 778l36 1" stroke="#302a27" stroke-width="1.2" opacity=".18"/><path d="M221 245l44 9" stroke="#302a27" stroke-width="1.2" opacity=".18"/><path d="M311 515l30 15" stroke="#302a27" stroke-width="1.2" opacity=".18"/><path d="M258 867l23 17" stroke="#302a27" stroke-width="1.2" opacity=".18"/><path d="M594 560l58 16" stroke="#302a27" stroke-width="1.2" opacity=".18"/><path d="M134 528l27 -11" stroke="#302a27" stroke-width="1.2" opacity=".18"/><path d="M272 484l53 -13" stroke="#302a27" stroke-width="1.2" opacity=".18"/><path d="M152 367l33 8" stroke="#302a27" stroke-width="1.2" opacity=".18"/><path d="M564 488l37 2" stroke="#302a27" stroke-width="1.2" opacity=".18"/><path d="M277 713l43 -15" stroke="#302a27" stroke-width="1.2" opacity=".18"/><path d="M392 535l34 5" stroke="#302a27" stroke-width="1.2" opacity=".18"/><path d="M314 412l44 18" stroke="#302a27" stroke-width="1.2" opacity=".18"/><path d="M132 207l68 -2" stroke="#302a27" stroke-width="1.2" opacity=".18"/><path d="M103 497l57 0" stroke="#302a27" stroke-width="1.2" opacity=".18"/><path d="M262 362l27 -16" stroke="#302a27" stroke-width="1.2" opacity=".18"/><path d="M296 463l37 16" stroke="#302a27" stroke-width="1.2" opacity=".18"/><path d="M514 659l22 13" stroke="#302a27" stroke-width="1.2" opacity=".18"/><path d="M533 545l46 5" stroke="#302a27" stroke-width="1.2" opacity=".18"/><path d="M135 693l52 7" stroke="#302a27" stroke-width="1.2" opacity=".18"/><path d="M377 793l73 8" stroke="#302a27" stroke-width="1.2" opacity=".18"/><path d="M465 639l31 12" stroke="#302a27" stroke-width="1.2" opacity=".18"/><path d="M154 564l48 7" stroke="#302a27" stroke-width="1.2" opacity=".18"/><path d="M204 840l64 10" stroke="#302a27" stroke-width="1.2" opacity=".18"/><path d="M297 687l62 -3" stroke="#302a27" stroke-width="1.2" opacity=".18"/><path d="M427 392l46 -1" stroke="#302a27" stroke-width="1.2" opacity=".18"/><path d="M164 443l72 2" stroke="#302a27" stroke-width="1.2" opacity=".18"/><path d="M194 778l23 -17" stroke="#302a27" stroke-width="1.2" opacity=".18"/><path d="M107 554l70 -7" stroke="#302a27" stroke-width="1.2" opacity=".18"/><path d="M456 782l29 11" stroke="#302a27" stroke-width="1.2" opacity=".18"/><path d="M182 565l71 6" stroke="#302a27" stroke-width="1.2" opacity=".18"/><path d="M322 293l26 -7" stroke="#302a27" stroke-width="1.2" opacity=".18"/><path d="M114 315l53 15" stroke="#302a27" stroke-width="1.2" opacity=".18"/><path d="M379 638l75 -2" stroke="#302a27" stroke-width="1.2" opacity=".18"/><path d="M551 307l51 18" stroke="#302a27" stroke-width="1.2" opacity=".18"/><rect x="22" y="20" width="680" height="1080" rx="26" fill="none" stroke="#2b2724" stroke-width="5" opacity="0.92" filter="url(#rough-ink)"/><rect x="28" y="28" width="664" height="1064" rx="23" fill="none" stroke="#2b2724" stroke-width="2" opacity="0.42" filter="url(#rough-ink)"/><rect x="44" y="43" width="634" height="1034" rx="18" fill="none" stroke="#2b2724" stroke-width="2.5" opacity="0.7" filter="url(#rough-ink)"/><path d="M72 130Q360 86 648 130M72 930Q360 986 648 930" fill="none" stroke="#d6a84b" stroke-width="3" opacity=".75" filter="url(#rough-ink)"/>
<g data-scene="fool"><path d="M85 820Q260 710 410 805Q535 720 650 790" fill="none" stroke="#40362d" stroke-width="7" stroke-linecap="round" stroke-linejoin="round" opacity="1" filter="url(#rough-ink)"/><path d="M85 820Q260 710 410 805Q535 720 650 790" fill="none" stroke="#40362d" stroke-width="2.0" stroke-linecap="round" stroke-linejoin="round" opacity="0.45" transform="translate(2 -1)"/><path d="M540 770l52-150 38 126" fill="none" stroke="#d6a84b" stroke-width="6" stroke-linecap="round" stroke-linejoin="round" opacity="1" filter="url(#rough-ink)"/><path d="M540 770l52-150 38 126" fill="none" stroke="#d6a84b" stroke-width="1.7" stroke-linecap="round" stroke-linejoin="round" opacity="0.45" transform="translate(2 -1)"/><circle cx="525" cy="762" r="18" fill="#efe3c3" stroke="#302925" stroke-width="4"/><g data-layer="hand-drawn-figure"><path d="M273 452 Q365 395 457 452 L507 820 Q365 870 223 820 Z" fill="#20334d" opacity=".52" stroke="#292622" stroke-width="6" filter="url(#rough-ink)"/><path d="M293 485 Q215 560 180 665" fill="none" stroke="#362d28" stroke-width="18" stroke-linecap="round" stroke-linejoin="round" opacity="1" filter="url(#rough-ink)"/><path d="M293 485 Q215 560 180 665" fill="none" stroke="#362d28" stroke-width="5.0" stroke-linecap="round" stroke-linejoin="round" opacity="0.45" transform="translate(2 -1)"/><path d="M437 485 Q515 550 545 640" fill="none" stroke="#362d28" stroke-width="18" stroke-linecap="round" stroke-linejoin="round" opacity="1" filter="url(#rough-ink)"/><path d="M437 485 Q515 550 545 640" fill="none" stroke="#362d28" stroke-width="5.0" stroke-linecap="round" stroke-linejoin="round" opacity="0.45" transform="translate(2 -1)"/><ellipse cx="365" cy="353" rx="69" ry="78" fill="#d3a67e" opacity=".82" stroke="#2e2824" stroke-width="5" filter="url(#rough-ink)"/><path d="M301 343Q311 258 365 269Q435 251 429 365" fill="none" stroke="#8f3151" stroke-width="24" opacity=".78" filter="url(#rough-ink)"/><path d="M334 356l17 2M379 358l17-2" stroke="#292522" stroke-width="7"/><path d="M346 393Q365 404 385 391" fill="none" stroke="#7c4e45" stroke-width="4"/><path d="M305 540Q365 590 425 540" fill="none" stroke="#d6a84b" stroke-width="7" stroke-linecap="round" stroke-linejoin="round" opacity="0.8" filter="url(#rough-ink)"/><path d="M305 540Q365 590 425 540" fill="none" stroke="#d6a84b" stroke-width="2.0" stroke-linecap="round" stroke-linejoin="round" opacity="0.36" transform="translate(2 -1)"/></g></g>
<rect x="78" y="942" width="564" height="118" rx="12" fill="#f4e8d4" opacity=".86" stroke="#302a27" stroke-width="4" filter="url(#rough-ink)"/>
<text x="360" y="995" text-anchor="middle" fill="#2d2926" font-family="Georgia,serif" font-size="31" font-weight="bold" letter-spacing="2">THE FOOL</text>
<text x="360" y="1032" text-anchor="middle" fill="#20334d" font-family="Georgia,serif" font-size="15" letter-spacing="3">EXPLORATION</text>
<text x="360" y="84" text-anchor="middle" fill="#2e2925" font-family="Georgia,serif" font-size="30">0</text>
</svg>