<svg xmlns="http://www.w3.org/2000/svg" viewBox="0 0 720 1120" data-style="hand-drawn-ink-watercolor" data-card-id="card-hermit">
<title>THE HERMIT — The Pilgrim's Ink Deck</title><desc>Original hand-drawn Tarot illustration with ink contours, watercolor washes, paper grain, and symbolic imagery.</desc>
<defs>
<filter id="paper-grain" x="-10%" y="-10%" width="120%" height="120%"><feTurbulence type="fractalNoise" baseFrequency=".72" numOctaves="4" seed="2" result="noise"/><feColorMatrix in="noise" values=".18 0 0 0 .72  0 .14 0 0 .66  0 0 .1 0 .54  0 0 0 .22 0"/><feBlend in="SourceGraphic" mode="multiply"/></filter>
<filter id="rough-ink" x="-8%" y="-8%" width="116%" height="116%"><feTurbulence type="turbulence" baseFrequency=".012 .055" numOctaves="2" seed="91" result="wobble"/><feDisplacementMap in="SourceGraphic" in2="wobble" scale="3.8" xChannelSelector="R" yChannelSelector="G"/></filter>
<filter id="watercolor" x="-20%" y="-20%" width="140%" height="140%"><feTurbulence type="fractalNoise" baseFrequency=".018" numOctaves="3" seed="27" result="wet"/><feDisplacementMap in="SourceGraphic" in2="wet" scale="18"/><feGaussianBlur stdDeviation="2.2"/></filter>
<linearGradient id="ink-wash" x1="0" y1="0" x2="1" y2="1"><stop stop-color="#20334d" stop-opacity=".66"/><stop offset=".52" stop-color="#6f8f83" stop-opacity=".32"/><stop offset="1" stop-color="#8f3151" stop-opacity=".62"/></linearGradient>
<radialGradient id="gold-bloom"><stop stop-color="#d6a84b" stop-opacity=".7"/><stop offset="1" stop-color="#d6a84b" stop-opacity="0"/></radialGradient>
<pattern id="crosshatch" width="18" height="18" patternUnits="userSpaceOnUse"><path d="M-3 18L18-3M4 22L22 4" stroke="#392f2a" stroke-width="1" opacity=".12"/></pattern>
</defs>
<rect width="720" height="1120" rx="38" fill="#efe2c8"/><rect x="12" y="12" width="696" height="1096" rx="32" fill="#f3e7cf" filter="url(#paper-grain)"/>
<path d="M 687.2 775.0 L 672.2 861.8 L 558.7 908.4 L 431.0 904.9 L 342.1 849.0 L 297.3 775.0 L 311.4 686.1 L 432.4 647.9 L 553.2 653.0 L 614.5 716.3 Z" fill="#20334d" opacity="0.055" filter="url(#watercolor)"/><path d="M 280.9 772.0 L 254.4 813.2 L 198.8 842.8 L 128.0 833.7 L 95.6 800.9 L 70.7 772.0 L 60.5 727.6 L 121.9 698.9 L 197.8 703.1 L 230.0 741.5 Z" fill="#8f3151" opacity="0.073" filter="url(#watercolor)"/><path d="M 578.6 401.0 L 520.9 447.5 L 466.4 495.6 L 373.1 481.6 L 312.4 447.0 L 285.9 401.0 L 300.7 349.9 L 377.4 328.6 L 471.2 297.3 L 570.5 332.5 Z" fill="#d6a84b" opacity="0.091" filter="url(#watercolor)"/><path d="M 704.3 651.0 L 669.8 722.8 L 625.8 822.4 L 527.7 775.7 L 453.8 733.1 L 433.5 651.0 L 413.8 540.4 L 528.8 529.7 L 627.1 475.6 L 718.7 544.3 Z" fill="#6f8f83" opacity="0.109" filter="url(#watercolor)"/><path d="M 313.3 317.0 L 316.4 409.4 L 269.6 455.5 L 221.1 440.6 L 187.6 388.9 L 153.4 317.0 L 171.7 224.8 L 219.0 181.7 L 269.0 181.9 L 309.2 233.8 Z" fill="#20334d" opacity="0.055" filter="url(#watercolor)"/><path d="M 353.7 311.0 L 340.5 404.6 L 256.7 462.3 L 144.2 489.0 L 80.2 397.2 L 65.0 311.0 L 86.6 229.2 L 166.5 198.2 L 257.0 158.9 L 355.0 207.4 Z" fill="#8f3151" opacity="0.073" filter="url(#watercolor)"/><path d="M 427.2 343.0 L 391.0 382.7 L 275.1 396.6 L 155.3 408.1 L 58.3 381.0 L 20.0 343.0 L 73.7 308.6 L 160.6 283.1 L 262.0 302.4 L 334.9 316.4 Z" fill="#d6a84b" opacity="0.091" filter="url(#watercolor)"/><path d="M 563.4 803.0 L 542.0 878.5 L 467.8 937.5 L 369.4 914.5 L 245.1 902.6 L 233.9 803.0 L 261.0 712.7 L 352.5 649.3 L 482.6 631.5 L 579.7 705.2 Z" fill="#6f8f83" opacity="0.109" filter="url(#watercolor)"/><path d="M 335.1 174.0 L 329.8 241.5 L 281.6 287.3 L 221.1 277.7 L 166.4 244.8 L 147.7 174.0 L 168.6 105.1 L 221.5 71.8 L 271.7 96.2 L 308.7 124.3 Z" fill="#20334d" opacity="0.055" filter="url(#watercolor)"/><path d="M 501.5 372.0 L 495.3 434.8 L 443.0 448.1 L 397.0 462.6 L 350.5 433.3 L 339.8 372.0 L 353.6 313.4 L 400.1 292.3 L 441.4 301.4 L 482.7 320.0 Z" fill="#8f3151" opacity="0.073" filter="url(#watercolor)"/><path d="M 708.8 882.0 L 670.6 944.1 L 604.7 965.6 L 532.6 994.7 L 468.0 950.1 L 451.7 882.0 L 490.2 828.1 L 539.6 788.3 L 615.2 769.7 L 664.1 824.1 Z" fill="#d6a84b" opacity="0.091" filter="url(#watercolor)"/><path d="M 772.2 701.0 L 746.5 748.8 L 650.3 756.4 L 559.8 783.8 L 478.3 750.0 L 438.0 701.0 L 474.0 650.5 L 560.9 619.8 L 650.5 645.3 L 730.6 658.9 Z" fill="#6f8f83" opacity="0.109" filter="url(#watercolor)"/><rect x="48" y="105" width="624" height="845" rx="16" fill="url(#crosshatch)"/><circle cx="176" cy="410" r="0.8" fill="#372f2a" opacity="0.37"/><circle cx="217" cy="633" r="1.1" fill="#372f2a" opacity="0.36"/><circle cx="348" cy="293" r="0.8" fill="#372f2a" opacity="0.29"/><circle cx="120" cy="842" r="1.1" fill="#372f2a" opacity="0.16"/><circle cx="400" cy="595" r="1.6" fill="#372f2a" opacity="0.32"/><circle cx="75" cy="721" r="0.8" fill="#372f2a" opacity="0.34"/><circle cx="542" cy="389" r="1.6" fill="#372f2a" opacity="0.25"/><circle cx="408" cy="654" r="0.8" fill="#372f2a" opacity="0.13"/><circle cx="260" cy="670" r="0.8" fill="#372f2a" opacity="0.39"/><circle cx="530" cy="124" r="1.1" fill="#372f2a" opacity="0.15"/><circle cx="521" cy="343" r="0.8" fill="#372f2a" opacity="0.20"/><circle cx="185" cy="841" r="1.1" fill="#372f2a" opacity="0.21"/><circle cx="264" cy="323" r="2.2" fill="#372f2a" opacity="0.29"/><circle cx="599" cy="753" r="2.2" fill="#372f2a" opacity="0.34"/><circle cx="512" cy="384" r="1.6" fill="#372f2a" opacity="0.36"/><circle cx="89" cy="764" r="1.6" fill="#372f2a" opacity="0.31"/><circle cx="643" cy="685" r="2.2" fill="#372f2a" opacity="0.16"/><circle cx="534" cy="700" r="1.1" fill="#372f2a" opacity="0.17"/><circle cx="314" cy="654" r="0.8" fill="#372f2a" opacity="0.31"/><circle cx="342" cy="488" r="0.8" fill="#372f2a" opacity="0.44"/><circle cx="656" cy="729" r="0.8" fill="#372f2a" opacity="0.16"/><circle cx="381" cy="847" r="2.2" fill="#372f2a" opacity="0.37"/><circle cx="497" cy="437" r="1.1" fill="#372f2a" opacity="0.13"/><circle cx="472" cy="419" r="0.8" fill="#372f2a" opacity="0.14"/><circle cx="319" cy="320" r="2.2" fill="#372f2a" opacity="0.17"/><circle cx="637" cy="860" r="1.6" fill="#372f2a" opacity="0.31"/><circle cx="273" cy="575" r="1.6" fill="#372f2a" opacity="0.16"/><circle cx="77" cy="264" r="1.6" fill="#372f2a" opacity="0.31"/><circle cx="208" cy="470" r="2.2" fill="#372f2a" opacity="0.29"/><circle cx="68" cy="536" r="0.8" fill="#372f2a" opacity="0.30"/><circle cx="546" cy="771" r="1.1" fill="#372f2a" opacity="0.13"/><circle cx="531" cy="272" r="1.6" fill="#372f2a" opacity="0.21"/><circle cx="188" cy="259" r="1.6" fill="#372f2a" opacity="0.24"/><circle cx="127" cy="218" r="1.6" fill="#372f2a" opacity="0.40"/><circle cx="593" cy="489" r="0.8" fill="#372f2a" opacity="0.18"/><circle cx="618" cy="532" r="0.8" fill="#372f2a" opacity="0.43"/><circle cx="317" cy="650" r="1.1" fill="#372f2a" opacity="0.29"/><circle cx="496" cy="621" r="2.2" fill="#372f2a" opacity="0.35"/><circle cx="312" cy="246" r="1.1" fill="#372f2a" opacity="0.21"/><circle cx="227" cy="765" r="0.8" fill="#372f2a" opacity="0.19"/><circle cx="171" cy="731" r="0.8" fill="#372f2a" opacity="0.19"/><circle cx="249" cy="848" r="1.1" fill="#372f2a" opacity="0.44"/><circle cx="201" cy="908" r="2.2" fill="#372f2a" opacity="0.14"/><circle cx="581" cy="455" r="2.2" fill="#372f2a" opacity="0.14"/><circle cx="503" cy="874" r="1.6" fill="#372f2a" opacity="0.37"/><circle cx="514" cy="235" r="0.8" fill="#372f2a" opacity="0.16"/><circle cx="590" cy="304" r="1.1" fill="#372f2a" opacity="0.42"/><circle cx="414" cy="904" r="1.1" fill="#372f2a" opacity="0.34"/><circle cx="602" cy="232" r="1.6" fill="#372f2a" opacity="0.40"/><circle cx="283" cy="661" r="1.6" fill="#372f2a" opacity="0.13"/><circle cx="526" cy="194" r="1.6" fill="#372f2a" opacity="0.34"/><circle cx="316" cy="915" r="1.1" fill="#372f2a" opacity="0.23"/><circle cx="260" cy="769" r="2.2" fill="#372f2a" opacity="0.15"/><circle cx="593" cy="143" r="1.1" fill="#372f2a" opacity="0.38"/><circle cx="331" cy="659" r="0.8" fill="#372f2a" opacity="0.27"/><circle cx="73" cy="389" r="1.1" fill="#372f2a" opacity="0.14"/><circle cx="406" cy="220" r="0.8" fill="#372f2a" opacity="0.41"/><circle cx="277" cy="704" r="1.1" fill="#372f2a" opacity="0.18"/><circle cx="103" cy="578" r="0.8" fill="#372f2a" opacity="0.35"/><circle cx="597" cy="655" r="2.2" fill="#372f2a" opacity="0.38"/><circle cx="384" cy="896" r="2.2" fill="#372f2a" opacity="0.15"/><circle cx="398" cy="841" r="2.2" fill="#372f2a" opacity="0.14"/><circle cx="208" cy="564" r="0.8" fill="#372f2a" opacity="0.45"/><circle cx="91" cy="586" r="2.2" fill="#372f2a" opacity="0.43"/><circle cx="217" cy="727" r="0.8" fill="#372f2a" opacity="0.23"/><circle cx="624" cy="810" r="1.1" fill="#372f2a" opacity="0.15"/><circle cx="482" cy="801" r="1.6" fill="#372f2a" opacity="0.43"/><circle cx="532" cy="373" r="0.8" fill="#372f2a" opacity="0.13"/><circle cx="207" cy="781" r="1.1" fill="#372f2a" opacity="0.15"/><circle cx="434" cy="138" r="1.6" fill="#372f2a" opacity="0.27"/><circle cx="93" cy="682" r="0.8" fill="#372f2a" opacity="0.25"/><circle cx="250" cy="635" r="0.8" fill="#372f2a" opacity="0.24"/><circle cx="334" cy="482" r="1.1" fill="#372f2a" opacity="0.41"/><circle cx="234" cy="209" r="1.6" fill="#372f2a" opacity="0.31"/><circle cx="373" cy="680" r="1.6" fill="#372f2a" opacity="0.43"/><circle cx="560" cy="286" r="1.6" fill="#372f2a" opacity="0.19"/><circle cx="223" cy="349" r="1.1" fill="#372f2a" opacity="0.30"/><circle cx="297" cy="172" r="2.2" fill="#372f2a" opacity="0.33"/><circle cx="523" cy="652" r="2.2" fill="#372f2a" opacity="0.16"/><circle cx="509" cy="439" r="2.2" fill="#372f2a" opacity="0.35"/><circle cx="167" cy="199" r="2.2" fill="#372f2a" opacity="0.34"/><circle cx="390" cy="404" r="2.2" fill="#372f2a" opacity="0.20"/><circle cx="599" cy="125" r="1.1" fill="#372f2a" opacity="0.26"/><circle cx="356" cy="907" r="1.6" fill="#372f2a" opacity="0.44"/><circle cx="407" cy="250" r="1.6" fill="#372f2a" opacity="0.30"/><circle cx="94" cy="499" r="1.1" fill="#372f2a" opacity="0.14"/><circle cx="262" cy="629" r="1.1" fill="#372f2a" opacity="0.44"/><circle cx="631" cy="860" r="2.2" fill="#372f2a" opacity="0.14"/><circle cx="163" cy="900" r="1.6" fill="#372f2a" opacity="0.31"/><circle cx="147" cy="799" r="1.1" fill="#372f2a" opacity="0.24"/><circle cx="82" cy="165" r="1.1" fill="#372f2a" opacity="0.25"/><circle cx="219" cy="856" r="1.1" fill="#372f2a" opacity="0.41"/><circle cx="182" cy="398" r="1.1" fill="#372f2a" opacity="0.24"/><circle cx="502" cy="921" r="2.2" fill="#372f2a" opacity="0.19"/><circle cx="182" cy="422" r="1.6" fill="#372f2a" opacity="0.32"/><path d="M494 242l32 -9" stroke="#302a27" stroke-width="1.2" opacity=".18"/><path d="M364 742l73 -3" stroke="#302a27" stroke-width="1.2" opacity=".18"/><path d="M225 768l60 -4" stroke="#302a27" stroke-width="1.2" opacity=".18"/><path d="M412 506l59 -18" stroke="#302a27" stroke-width="1.2" opacity=".18"/><path d="M437 407l31 -9" stroke="#302a27" stroke-width="1.2" opacity=".18"/><path d="M403 720l65 -6" stroke="#302a27" stroke-width="1.2" opacity=".18"/><path d="M447 235l26 13" stroke="#302a27" stroke-width="1.2" opacity=".18"/><path d="M396 411l39 18" stroke="#302a27" stroke-width="1.2" opacity=".18"/><path d="M264 508l73 -9" stroke="#302a27" stroke-width="1.2" opacity=".18"/><path d="M314 210l48 0" stroke="#302a27" stroke-width="1.2" opacity=".18"/><path d="M199 681l55 -12" stroke="#302a27" stroke-width="1.2" opacity=".18"/><path d="M617 279l44 17" stroke="#302a27" stroke-width="1.2" opacity=".18"/><path d="M98 689l61 7" stroke="#302a27" stroke-width="1.2" opacity=".18"/><path d="M593 354l33 -14" stroke="#302a27" stroke-width="1.2" opacity=".18"/><path d="M452 292l27 -6" stroke="#302a27" stroke-width="1.2" opacity=".18"/><path d="M419 776l76 0" stroke="#302a27" stroke-width="1.2" opacity=".18"/><path d="M268 202l33 10" stroke="#302a27" stroke-width="1.2" opacity=".18"/><path d="M240 316l69 8" stroke="#302a27" stroke-width="1.2" opacity=".18"/><path d="M494 704l53 17" stroke="#302a27" stroke-width="1.2" opacity=".18"/><path d="M162 341l79 9" stroke="#302a27" stroke-width="1.2" opacity=".18"/><path d="M588 702l72 -16" stroke="#302a27" stroke-width="1.2" opacity=".18"/><path d="M610 506l48 14" stroke="#302a27" stroke-width="1.2" opacity=".18"/><path d="M398 630l36 -10" stroke="#302a27" stroke-width="1.2" opacity=".18"/><path d="M424 412l68 -10" stroke="#302a27" stroke-width="1.2" opacity=".18"/><path d="M229 795l79 -9" stroke="#302a27" stroke-width="1.2" opacity=".18"/><path d="M280 343l67 -8" stroke="#302a27" stroke-width="1.2" opacity=".18"/><path d="M613 198l45 -10" stroke="#302a27" stroke-width="1.2" opacity=".18"/><path d="M80 584l79 -7" stroke="#302a27" stroke-width="1.2" opacity=".18"/><path d="M275 186l41 4" stroke="#302a27" stroke-width="1.2" opacity=".18"/><path d="M176 785l51 3" stroke="#302a27" stroke-width="1.2" opacity=".18"/><path d="M542 329l60 -3" stroke="#302a27" stroke-width="1.2" opacity=".18"/><path d="M203 399l42 -2" stroke="#302a27" stroke-width="1.2" opacity=".18"/><path d="M419 800l21 -18" stroke="#302a27" stroke-width="1.2" opacity=".18"/><path d="M368 387l33 -13" stroke="#302a27" stroke-width="1.2" opacity=".18"/><path d="M336 856l22 8" stroke="#302a27" stroke-width="1.2" opacity=".18"/><path d="M87 531l34 -15" stroke="#302a27" stroke-width="1.2" opacity=".18"/><path d="M263 715l64 10" stroke="#302a27" stroke-width="1.2" opacity=".18"/><path d="M382 282l50 12" stroke="#302a27" stroke-width="1.2" opacity=".18"/><path d="M265 687l41 -18" stroke="#302a27" stroke-width="1.2" opacity=".18"/><path d="M298 446l67 -6" stroke="#302a27" stroke-width="1.2" opacity=".18"/><path d="M488 681l57 17" stroke="#302a27" stroke-width="1.2" opacity=".18"/><path d="M173 390l20 12" stroke="#302a27" stroke-width="1.2" opacity=".18"/><rect x="17" y="20" width="680" height="1080" rx="26" fill="none" stroke="#2b2724" stroke-width="5" opacity="0.92" filter="url(#rough-ink)"/><rect x="25" y="28" width="664" height="1064" rx="23" fill="none" stroke="#2b2724" stroke-width="2" opacity="0.42" filter="url(#rough-ink)"/><rect x="43" y="43" width="634" height="1034" rx="18" fill="none" stroke="#2b2724" stroke-width="2.5" opacity="0.7" filter="url(#rough-ink)"/><path d="M72 130Q360 74 648 130M72 930Q360 974 648 930" fill="none" stroke="#d6a84b" stroke-width="3" opacity=".75" filter="url(#rough-ink)"/>
<g data-scene="hermit"><path d="M535 458l9.7 28.6h30.2l-24.4 17.6l9.2 29.4l-24.8-18.1l-24.8 18.1l9.2-29.4l-24.4-17.6h30.2Z" fill="#d6a84b" opacity=".62" stroke="#312923" stroke-width="3" filter="url(#rough-ink)"/><path d="M515 540V760M500 760h70" fill="none" stroke="#332b27" stroke-width="8" stroke-linecap="round" stroke-linejoin="round" opacity="1" filter="url(#rough-ink)"/><path d="M515 540V760M500 760h70" fill="none" stroke="#332b27" stroke-width="2.2" stroke-linecap="round" stroke-linejoin="round" opacity="0.45" transform="translate(2 -1)"/><path d="M80 880Q220 720 350 835Q500 700 650 880" fill="none" stroke="#6f8f83" stroke-width="6" stroke-linecap="round" stroke-linejoin="round" opacity="1" filter="url(#rough-ink)"/><path d="M80 880Q220 720 350 835Q500 700 650 880" fill="none" stroke="#6f8f83" stroke-width="1.7" stroke-linecap="round" stroke-linejoin="round" opacity="0.45" transform="translate(2 -1)"/><g data-layer="hand-drawn-figure"><path d="M278 452 Q370 395 462 452 L512 820 Q370 870 228 820 Z" fill="#20334d" opacity=".52" stroke="#292622" stroke-width="6" filter="url(#rough-ink)"/><path d="M298 485 Q200 592 185 629" fill="none" stroke="#362d28" stroke-width="18" stroke-linecap="round" stroke-linejoin="round" opacity="1" filter="url(#rough-ink)"/><path d="M298 485 Q200 592 185 629" fill="none" stroke="#362d28" stroke-width="5.0" stroke-linecap="round" stroke-linejoin="round" opacity="0.45" transform="translate(2 -1)"/><path d="M442 485 Q536 522 550 664" fill="none" stroke="#362d28" stroke-width="18" stroke-linecap="round" stroke-linejoin="round" opacity="1" filter="url(#rough-ink)"/><path d="M442 485 Q536 522 550 664" fill="none" stroke="#362d28" stroke-width="5.0" stroke-linecap="round" stroke-linejoin="round" opacity="0.45" transform="translate(2 -1)"/><ellipse cx="370" cy="353" rx="69" ry="78" fill="#d3a67e" opacity=".82" stroke="#2e2824" stroke-width="5" filter="url(#rough-ink)"/><path d="M306 343Q316 258 370 269Q440 251 434 365" fill="none" stroke="#8f3151" stroke-width="24" opacity=".78" filter="url(#rough-ink)"/><path d="M339 356l17 2M384 358l17-2" stroke="#292522" stroke-width="7"/><path d="M351 393Q370 404 390 391" fill="none" stroke="#7c4e45" stroke-width="4"/><path d="M310 540Q370 590 430 540" fill="none" stroke="#d6a84b" stroke-width="7" stroke-linecap="round" stroke-linejoin="round" opacity="0.8" filter="url(#rough-ink)"/><path d="M310 540Q370 590 430 540" fill="none" stroke="#d6a84b" stroke-width="2.0" stroke-linecap="round" stroke-linejoin="round" opacity="0.36" transform="translate(2 -1)"/></g></g>
<rect x="78" y="942" width="564" height="118" rx="12" fill="#f4e8d4" opacity=".86" stroke="#302a27" stroke-width="4" filter="url(#rough-ink)"/>
<text x="360" y="995" text-anchor="middle" fill="#2d2926" font-family="Georgia,serif" font-size="31" font-weight="bold" letter-spacing="2">THE HERMIT</text>
<text x="360" y="1032" text-anchor="middle" fill="#20334d" font-family="Georgia,serif" font-size="15" letter-spacing="3">RESEARCH</text>
<text x="360" y="84" text-anchor="middle" fill="#2e2925" font-family="Georgia,serif" font-size="30">IX</text>
</svg>