<svg xmlns="http://www.w3.org/2000/svg" viewBox="0 0 720 1120" data-style="hand-drawn-ink-watercolor" data-card-id="card-knight-of-cups">
<title>KNIGHT OF CUPS — The Pilgrim's Ink Deck</title><desc>Original hand-drawn Tarot illustration with ink contours, watercolor washes, paper grain, and symbolic imagery.</desc>
<defs>
<filter id="paper-grain" x="-10%" y="-10%" width="120%" height="120%"><feTurbulence type="fractalNoise" baseFrequency=".72" numOctaves="4" seed="21" result="noise"/><feColorMatrix in="noise" values=".18 0 0 0 .72  0 .14 0 0 .66  0 0 .1 0 .54  0 0 0 .22 0"/><feBlend in="SourceGraphic" mode="multiply"/></filter>
<filter id="rough-ink" x="-8%" y="-8%" width="116%" height="116%"><feTurbulence type="turbulence" baseFrequency=".012 .055" numOctaves="2" seed="25" result="wobble"/><feDisplacementMap in="SourceGraphic" in2="wobble" scale="3.8" xChannelSelector="R" yChannelSelector="G"/></filter>
<filter id="watercolor" x="-20%" y="-20%" width="140%" height="140%"><feTurbulence type="fractalNoise" baseFrequency=".018" numOctaves="3" seed="42" result="wet"/><feDisplacementMap in="SourceGraphic" in2="wet" scale="18"/><feGaussianBlur stdDeviation="2.2"/></filter>
<linearGradient id="ink-wash" x1="0" y1="0" x2="1" y2="1"><stop stop-color="#244b70" stop-opacity=".66"/><stop offset=".52" stop-color="#d3b46f" stop-opacity=".32"/><stop offset="1" stop-color="#4d7f94" stop-opacity=".62"/></linearGradient>
<radialGradient id="gold-bloom"><stop stop-color="#a66f83" stop-opacity=".7"/><stop offset="1" stop-color="#a66f83" stop-opacity="0"/></radialGradient>
<pattern id="crosshatch" width="18" height="18" patternUnits="userSpaceOnUse"><path d="M-3 18L18-3M4 22L22 4" stroke="#392f2a" stroke-width="1" opacity=".12"/></pattern>
</defs>
<rect width="720" height="1120" rx="38" fill="#efe2c8"/><rect x="12" y="12" width="696" height="1096" rx="32" fill="#f3e7cf" filter="url(#paper-grain)"/>
<path d="M 291.0 781.0 L 222.7 872.1 L 163.3 973.8 L 44.8 973.5 L -2.1 862.4 L -68.6 781.0 L -22.8 683.7 L 65.2 655.0 L 148.4 636.8 L 214.4 696.2 Z" fill="#244b70" opacity="0.055" filter="url(#watercolor)"/><path d="M 685.0 433.0 L 654.1 507.7 L 587.3 546.4 L 502.3 577.9 L 450.9 504.1 L 425.6 433.0 L 394.9 321.7 L 497.9 274.7 L 607.0 260.0 L 664.1 351.1 Z" fill="#4d7f94" opacity="0.073" filter="url(#watercolor)"/><path d="M 441.5 747.0 L 419.1 854.1 L 350.8 881.5 L 285.5 917.7 L 244.0 833.0 L 196.4 747.0 L 222.6 637.4 L 292.4 608.8 L 350.5 614.0 L 408.6 651.5 Z" fill="#a66f83" opacity="0.091" filter="url(#watercolor)"/><path d="M 725.2 745.0 L 687.4 805.5 L 630.2 872.1 L 517.5 872.8 L 425.5 824.3 L 432.5 745.0 L 451.9 679.9 L 527.1 638.9 L 621.4 637.8 L 725.8 664.0 Z" fill="#d3b46f" opacity="0.109" filter="url(#watercolor)"/><path d="M 728.1 821.0 L 686.8 872.0 L 598.2 882.4 L 516.3 902.5 L 432.7 874.7 L 418.1 821.0 L 445.5 772.6 L 510.8 729.8 L 603.4 750.4 L 650.9 784.8 Z" fill="#244b70" opacity="0.055" filter="url(#watercolor)"/><path d="M 506.3 151.0 L 452.6 240.2 L 366.6 291.0 L 260.2 305.4 L 161.9 251.7 L 109.2 151.0 L 146.6 40.4 L 251.9 -26.2 L 362.9 21.1 L 462.2 55.5 Z" fill="#4d7f94" opacity="0.073" filter="url(#watercolor)"/><path d="M 538.9 793.0 L 514.1 867.3 L 454.6 926.1 L 381.5 883.0 L 311.6 864.6 L 309.4 793.0 L 324.4 730.7 L 379.6 697.3 L 445.7 687.2 L 509.8 721.9 Z" fill="#a66f83" opacity="0.091" filter="url(#watercolor)"/><path d="M 428.9 871.0 L 408.1 951.7 L 315.2 959.1 L 235.0 1002.1 L 166.8 946.0 L 160.1 871.0 L 191.6 812.0 L 248.3 776.3 L 331.8 737.5 L 395.1 798.7 Z" fill="#d3b46f" opacity="0.109" filter="url(#watercolor)"/><path d="M 588.9 574.0 L 594.8 631.4 L 547.4 654.4 L 505.1 639.1 L 467.2 620.1 L 430.6 574.0 L 454.1 517.3 L 497.1 481.7 L 551.3 480.2 L 577.2 530.8 Z" fill="#244b70" opacity="0.055" filter="url(#watercolor)"/><path d="M 265.8 222.0 L 222.4 282.9 L 153.8 320.9 L 59.0 342.3 L -4.7 285.2 L -2.2 222.0 L 4.2 163.7 L 69.6 126.3 L 152.9 125.1 L 229.5 157.3 Z" fill="#4d7f94" opacity="0.073" filter="url(#watercolor)"/><path d="M 702.3 547.0 L 647.7 640.2 L 570.4 690.9 L 482.0 689.7 L 377.9 660.4 L 359.2 547.0 L 431.9 475.0 L 482.0 404.4 L 563.3 425.9 L 621.1 474.2 Z" fill="#a66f83" opacity="0.091" filter="url(#watercolor)"/><path d="M 452.9 572.0 L 422.1 613.1 L 354.7 660.0 L 215.3 662.6 L 158.1 610.7 L 139.6 572.0 L 133.1 525.8 L 217.3 484.0 L 346.2 494.9 L 422.1 530.8 Z" fill="#d3b46f" opacity="0.109" filter="url(#watercolor)"/><rect x="48" y="105" width="624" height="845" rx="16" fill="url(#crosshatch)"/><circle cx="93" cy="328" r="1.6" fill="#372f2a" opacity="0.26"/><circle cx="292" cy="921" r="0.8" fill="#372f2a" opacity="0.40"/><circle cx="404" cy="730" r="2.2" fill="#372f2a" opacity="0.26"/><circle cx="337" cy="768" r="1.6" fill="#372f2a" opacity="0.40"/><circle cx="177" cy="594" r="1.6" fill="#372f2a" opacity="0.16"/><circle cx="341" cy="758" r="1.6" fill="#372f2a" opacity="0.39"/><circle cx="517" cy="538" r="0.8" fill="#372f2a" opacity="0.27"/><circle cx="442" cy="567" r="1.6" fill="#372f2a" opacity="0.26"/><circle cx="495" cy="502" r="1.1" fill="#372f2a" opacity="0.28"/><circle cx="513" cy="690" r="1.1" fill="#372f2a" opacity="0.37"/><circle cx="333" cy="878" r="0.8" fill="#372f2a" opacity="0.18"/><circle cx="345" cy="336" r="0.8" fill="#372f2a" opacity="0.12"/><circle cx="332" cy="186" r="2.2" fill="#372f2a" opacity="0.28"/><circle cx="186" cy="164" r="1.1" fill="#372f2a" opacity="0.22"/><circle cx="100" cy="307" r="2.2" fill="#372f2a" opacity="0.26"/><circle cx="111" cy="283" r="1.6" fill="#372f2a" opacity="0.25"/><circle cx="506" cy="356" r="2.2" fill="#372f2a" opacity="0.31"/><circle cx="532" cy="215" r="0.8" fill="#372f2a" opacity="0.13"/><circle cx="240" cy="722" r="2.2" fill="#372f2a" opacity="0.14"/><circle cx="525" cy="141" r="2.2" fill="#372f2a" opacity="0.33"/><circle cx="619" cy="785" r="1.6" fill="#372f2a" opacity="0.27"/><circle cx="355" cy="595" r="1.6" fill="#372f2a" opacity="0.21"/><circle cx="88" cy="371" r="1.1" fill="#372f2a" opacity="0.37"/><circle cx="276" cy="550" r="0.8" fill="#372f2a" opacity="0.13"/><circle cx="346" cy="389" r="1.6" fill="#372f2a" opacity="0.31"/><circle cx="511" cy="880" r="0.8" fill="#372f2a" opacity="0.38"/><circle cx="302" cy="709" r="0.8" fill="#372f2a" opacity="0.41"/><circle cx="646" cy="522" r="1.1" fill="#372f2a" opacity="0.24"/><circle cx="411" cy="751" r="0.8" fill="#372f2a" opacity="0.13"/><circle cx="164" cy="406" r="2.2" fill="#372f2a" opacity="0.33"/><circle cx="107" cy="696" r="1.6" fill="#372f2a" opacity="0.31"/><circle cx="466" cy="119" r="1.6" fill="#372f2a" opacity="0.29"/><circle cx="415" cy="249" r="1.6" fill="#372f2a" opacity="0.27"/><circle cx="519" cy="606" r="1.6" fill="#372f2a" opacity="0.32"/><circle cx="113" cy="513" r="1.6" fill="#372f2a" opacity="0.24"/><circle cx="616" cy="816" r="2.2" fill="#372f2a" opacity="0.21"/><circle cx="647" cy="866" r="0.8" fill="#372f2a" opacity="0.38"/><circle cx="173" cy="249" r="1.6" fill="#372f2a" opacity="0.16"/><circle cx="224" cy="365" r="2.2" fill="#372f2a" opacity="0.28"/><circle cx="76" cy="288" r="1.6" fill="#372f2a" opacity="0.22"/><circle cx="230" cy="176" r="1.1" fill="#372f2a" opacity="0.13"/><circle cx="335" cy="363" r="0.8" fill="#372f2a" opacity="0.26"/><circle cx="257" cy="600" r="0.8" fill="#372f2a" opacity="0.40"/><circle cx="333" cy="401" r="1.1" fill="#372f2a" opacity="0.38"/><circle cx="351" cy="655" r="0.8" fill="#372f2a" opacity="0.42"/><circle cx="440" cy="375" r="0.8" fill="#372f2a" opacity="0.16"/><circle cx="505" cy="750" r="0.8" fill="#372f2a" opacity="0.17"/><circle cx="343" cy="446" r="1.6" fill="#372f2a" opacity="0.12"/><circle cx="511" cy="621" r="0.8" fill="#372f2a" opacity="0.26"/><circle cx="429" cy="761" r="1.1" fill="#372f2a" opacity="0.42"/><circle cx="655" cy="533" r="2.2" fill="#372f2a" opacity="0.45"/><circle cx="277" cy="288" r="2.2" fill="#372f2a" opacity="0.19"/><circle cx="464" cy="871" r="1.1" fill="#372f2a" opacity="0.45"/><circle cx="568" cy="824" r="1.6" fill="#372f2a" opacity="0.25"/><circle cx="150" cy="670" r="0.8" fill="#372f2a" opacity="0.16"/><circle cx="164" cy="166" r="1.6" fill="#372f2a" opacity="0.28"/><circle cx="460" cy="431" r="1.1" fill="#372f2a" opacity="0.16"/><circle cx="316" cy="478" r="1.6" fill="#372f2a" opacity="0.39"/><circle cx="225" cy="294" r="2.2" fill="#372f2a" opacity="0.28"/><circle cx="363" cy="416" r="2.2" fill="#372f2a" opacity="0.34"/><circle cx="240" cy="732" r="2.2" fill="#372f2a" opacity="0.40"/><circle cx="107" cy="739" r="0.8" fill="#372f2a" opacity="0.21"/><circle cx="531" cy="615" r="1.6" fill="#372f2a" opacity="0.16"/><circle cx="276" cy="489" r="2.2" fill="#372f2a" opacity="0.17"/><circle cx="453" cy="412" r="2.2" fill="#372f2a" opacity="0.24"/><circle cx="190" cy="542" r="1.1" fill="#372f2a" opacity="0.31"/><circle cx="296" cy="372" r="1.6" fill="#372f2a" opacity="0.39"/><circle cx="152" cy="177" r="0.8" fill="#372f2a" opacity="0.17"/><circle cx="242" cy="887" r="1.6" fill="#372f2a" opacity="0.12"/><circle cx="471" cy="467" r="0.8" fill="#372f2a" opacity="0.31"/><circle cx="550" cy="386" r="0.8" fill="#372f2a" opacity="0.25"/><circle cx="388" cy="529" r="2.2" fill="#372f2a" opacity="0.41"/><circle cx="125" cy="739" r="2.2" fill="#372f2a" opacity="0.22"/><circle cx="462" cy="576" r="2.2" fill="#372f2a" opacity="0.39"/><circle cx="254" cy="917" r="1.1" fill="#372f2a" opacity="0.18"/><circle cx="391" cy="210" r="1.1" fill="#372f2a" opacity="0.31"/><circle cx="112" cy="188" r="1.1" fill="#372f2a" opacity="0.34"/><circle cx="471" cy="780" r="1.6" fill="#372f2a" opacity="0.35"/><circle cx="66" cy="805" r="1.1" fill="#372f2a" opacity="0.15"/><circle cx="275" cy="759" r="0.8" fill="#372f2a" opacity="0.36"/><circle cx="316" cy="261" r="1.6" fill="#372f2a" opacity="0.44"/><circle cx="532" cy="381" r="1.6" fill="#372f2a" opacity="0.35"/><circle cx="599" cy="433" r="2.2" fill="#372f2a" opacity="0.41"/><circle cx="159" cy="698" r="2.2" fill="#372f2a" opacity="0.40"/><circle cx="557" cy="512" r="2.2" fill="#372f2a" opacity="0.13"/><circle cx="96" cy="887" r="0.8" fill="#372f2a" opacity="0.43"/><circle cx="190" cy="175" r="2.2" fill="#372f2a" opacity="0.42"/><circle cx="202" cy="188" r="1.1" fill="#372f2a" opacity="0.23"/><circle cx="115" cy="416" r="2.2" fill="#372f2a" opacity="0.45"/><circle cx="555" cy="418" r="1.6" fill="#372f2a" opacity="0.28"/><circle cx="243" cy="889" r="1.6" fill="#372f2a" opacity="0.36"/><circle cx="127" cy="634" r="1.6" fill="#372f2a" opacity="0.39"/><circle cx="221" cy="297" r="1.6" fill="#372f2a" opacity="0.32"/><circle cx="322" cy="402" r="2.2" fill="#372f2a" opacity="0.40"/><circle cx="519" cy="926" r="0.8" fill="#372f2a" opacity="0.44"/><path d="M208 646l49 -8" stroke="#302a27" stroke-width="1.2" opacity=".18"/><path d="M325 344l66 3" stroke="#302a27" stroke-width="1.2" opacity=".18"/><path d="M241 846l43 -15" stroke="#302a27" stroke-width="1.2" opacity=".18"/><path d="M372 501l19 -15" stroke="#302a27" stroke-width="1.2" opacity=".18"/><path d="M216 265l73 12" stroke="#302a27" stroke-width="1.2" opacity=".18"/><path d="M81 868l38 -12" stroke="#302a27" stroke-width="1.2" opacity=".18"/><path d="M575 273l50 17" stroke="#302a27" stroke-width="1.2" opacity=".18"/><path d="M553 611l75 -9" stroke="#302a27" stroke-width="1.2" opacity=".18"/><path d="M614 645l26 -18" stroke="#302a27" stroke-width="1.2" opacity=".18"/><path d="M398 781l68 6" stroke="#302a27" stroke-width="1.2" opacity=".18"/><path d="M174 595l35 14" stroke="#302a27" stroke-width="1.2" opacity=".18"/><path d="M326 859l72 3" stroke="#302a27" stroke-width="1.2" opacity=".18"/><path d="M279 821l38 -2" stroke="#302a27" stroke-width="1.2" opacity=".18"/><path d="M138 531l57 -10" stroke="#302a27" stroke-width="1.2" opacity=".18"/><path d="M399 870l79 12" stroke="#302a27" stroke-width="1.2" opacity=".18"/><path d="M184 770l61 2" stroke="#302a27" stroke-width="1.2" opacity=".18"/><path d="M567 235l80 -12" stroke="#302a27" stroke-width="1.2" opacity=".18"/><path d="M328 828l33 1" stroke="#302a27" stroke-width="1.2" opacity=".18"/><path d="M169 470l58 10" stroke="#302a27" stroke-width="1.2" opacity=".18"/><path d="M575 626l30 -10" stroke="#302a27" stroke-width="1.2" opacity=".18"/><path d="M286 633l57 -3" stroke="#302a27" stroke-width="1.2" opacity=".18"/><path d="M275 188l76 4" stroke="#302a27" stroke-width="1.2" opacity=".18"/><path d="M126 850l24 -14" stroke="#302a27" stroke-width="1.2" opacity=".18"/><path d="M174 776l44 12" stroke="#302a27" stroke-width="1.2" opacity=".18"/><path d="M257 418l33 3" stroke="#302a27" stroke-width="1.2" opacity=".18"/><path d="M213 672l38 -2" stroke="#302a27" stroke-width="1.2" opacity=".18"/><path d="M303 292l68 1" stroke="#302a27" stroke-width="1.2" opacity=".18"/><path d="M430 748l35 8" stroke="#302a27" stroke-width="1.2" opacity=".18"/><path d="M301 326l49 0" stroke="#302a27" stroke-width="1.2" opacity=".18"/><path d="M307 846l33 2" stroke="#302a27" stroke-width="1.2" opacity=".18"/><path d="M191 369l75 5" stroke="#302a27" stroke-width="1.2" opacity=".18"/><path d="M317 788l24 13" stroke="#302a27" stroke-width="1.2" opacity=".18"/><path d="M192 324l19 -6" stroke="#302a27" stroke-width="1.2" opacity=".18"/><path d="M131 558l80 -13" stroke="#302a27" stroke-width="1.2" opacity=".18"/><path d="M181 341l60 7" stroke="#302a27" stroke-width="1.2" opacity=".18"/><path d="M225 732l42 0" stroke="#302a27" stroke-width="1.2" opacity=".18"/><path d="M150 848l27 -3" stroke="#302a27" stroke-width="1.2" opacity=".18"/><path d="M135 215l65 -5" stroke="#302a27" stroke-width="1.2" opacity=".18"/><path d="M135 360l45 -3" stroke="#302a27" stroke-width="1.2" opacity=".18"/><path d="M154 206l18 13" stroke="#302a27" stroke-width="1.2" opacity=".18"/><path d="M121 274l65 -9" stroke="#302a27" stroke-width="1.2" opacity=".18"/><path d="M145 239l37 -12" stroke="#302a27" stroke-width="1.2" opacity=".18"/><rect x="19" y="20" width="680" height="1080" rx="26" fill="none" stroke="#2b2724" stroke-width="5" opacity="0.92" filter="url(#rough-ink)"/><rect x="27" y="28" width="664" height="1064" rx="23" fill="none" stroke="#2b2724" stroke-width="2" opacity="0.42" filter="url(#rough-ink)"/><rect x="45" y="43" width="634" height="1034" rx="18" fill="none" stroke="#2b2724" stroke-width="2.5" opacity="0.7" filter="url(#rough-ink)"/><path d="M72 130Q360 82 648 130M72 930Q360 991 648 930" fill="none" stroke="#a66f83" stroke-width="3" opacity=".75" filter="url(#rough-ink)"/>
<g data-scene="knight-of-cups"><g data-layer="hand-drawn-figure"><path d="M314 295l18-38 38 27 38-27 18 38" fill="none" stroke="#a66f83" stroke-width="7" filter="url(#rough-ink)"/><path d="M278 452 Q370 395 462 452 L512 820 Q370 870 228 820 Z" fill="#244b70" opacity=".52" stroke="#292622" stroke-width="6" filter="url(#rough-ink)"/><path d="M298 485 Q210 576 185 647" fill="none" stroke="#362d28" stroke-width="18" stroke-linecap="round" stroke-linejoin="round" opacity="1" filter="url(#rough-ink)"/><path d="M298 485 Q210 576 185 647" fill="none" stroke="#362d28" stroke-width="5.0" stroke-linecap="round" stroke-linejoin="round" opacity="0.45" transform="translate(2 -1)"/><path d="M442 485 Q528 536 550 652" fill="none" stroke="#362d28" stroke-width="18" stroke-linecap="round" stroke-linejoin="round" opacity="1" filter="url(#rough-ink)"/><path d="M442 485 Q528 536 550 652" fill="none" stroke="#362d28" stroke-width="5.0" stroke-linecap="round" stroke-linejoin="round" opacity="0.45" transform="translate(2 -1)"/><ellipse cx="370" cy="359" rx="69" ry="78" fill="#d3a67e" opacity=".82" stroke="#2e2824" stroke-width="5" filter="url(#rough-ink)"/><path d="M306 349Q316 264 370 275Q440 257 434 371" fill="none" stroke="#4d7f94" stroke-width="24" opacity=".78" filter="url(#rough-ink)"/><path d="M339 362l17 2M384 364l17-2" stroke="#292522" stroke-width="7"/><path d="M351 399Q370 410 390 397" fill="none" stroke="#7c4e45" stroke-width="4"/><path d="M310 540Q370 590 430 540" fill="none" stroke="#a66f83" stroke-width="7" stroke-linecap="round" stroke-linejoin="round" opacity="0.8" filter="url(#rough-ink)"/><path d="M310 540Q370 590 430 540" fill="none" stroke="#a66f83" stroke-width="2.0" stroke-linecap="round" stroke-linejoin="round" opacity="0.36" transform="translate(2 -1)"/></g><path d="M510.9 472.5Q555.0 546.0 599.1 472.5L586.5 449.4H523.5Z" fill="#244b70" opacity=".35" stroke="#302824" stroke-width="5.2" filter="url(#rough-ink)"/><path d="M555.0 535.5V598.5M525.6 598.5H584.4" fill="none" stroke="#a66f83" stroke-width="5.25" stroke-linecap="round" stroke-linejoin="round" opacity="1" filter="url(#rough-ink)"/><path d="M555.0 535.5V598.5M525.6 598.5H584.4" fill="none" stroke="#a66f83" stroke-width="1.5" stroke-linecap="round" stroke-linejoin="round" opacity="0.45" transform="translate(2 -1)"/><path d="M100 825Q205 690 305 825" fill="none" stroke="#244b70" stroke-width="9" stroke-linecap="round" stroke-linejoin="round" opacity="1" filter="url(#rough-ink)"/><path d="M100 825Q205 690 305 825" fill="none" stroke="#244b70" stroke-width="2.5" stroke-linecap="round" stroke-linejoin="round" opacity="0.45" transform="translate(2 -1)"/></g>
<rect x="78" y="942" width="564" height="118" rx="12" fill="#f4e8d4" opacity=".86" stroke="#302a27" stroke-width="4" filter="url(#rough-ink)"/>
<text x="360" y="995" text-anchor="middle" fill="#2d2926" font-family="Georgia,serif" font-size="31" font-weight="bold" letter-spacing="2">KNIGHT OF CUPS</text>
<text x="360" y="1032" text-anchor="middle" fill="#244b70" font-family="Georgia,serif" font-size="15" letter-spacing="3">OPERATOR CUPS</text>
<text x="360" y="84" text-anchor="middle" fill="#2e2925" font-family="Georgia,serif" font-size="30">♢</text>
</svg>