<svg xmlns="http://www.w3.org/2000/svg" viewBox="0 0 720 1120" data-style="hand-drawn-ink-watercolor" data-card-id="card-page-of-wands">
<title>PAGE OF WANDS — The Pilgrim's Ink Deck</title><desc>Original hand-drawn Tarot illustration with ink contours, watercolor washes, paper grain, and symbolic imagery.</desc>
<defs>
<filter id="paper-grain" x="-10%" y="-10%" width="120%" height="120%"><feTurbulence type="fractalNoise" baseFrequency=".72" numOctaves="4" seed="33" result="noise"/><feColorMatrix in="noise" values=".18 0 0 0 .72  0 .14 0 0 .66  0 0 .1 0 .54  0 0 0 .22 0"/><feBlend in="SourceGraphic" mode="multiply"/></filter>
<filter id="rough-ink" x="-8%" y="-8%" width="116%" height="116%"><feTurbulence type="turbulence" baseFrequency=".012 .055" numOctaves="2" seed="80" result="wobble"/><feDisplacementMap in="SourceGraphic" in2="wobble" scale="3.8" xChannelSelector="R" yChannelSelector="G"/></filter>
<filter id="watercolor" x="-20%" y="-20%" width="140%" height="140%"><feTurbulence type="fractalNoise" baseFrequency=".018" numOctaves="3" seed="65" result="wet"/><feDisplacementMap in="SourceGraphic" in2="wet" scale="18"/><feGaussianBlur stdDeviation="2.2"/></filter>
<linearGradient id="ink-wash" x1="0" y1="0" x2="1" y2="1"><stop stop-color="#7f2e25" stop-opacity=".66"/><stop offset=".52" stop-color="#4e6745" stop-opacity=".32"/><stop offset="1" stop-color="#d77b35" stop-opacity=".62"/></linearGradient>
<radialGradient id="gold-bloom"><stop stop-color="#e5b95c" stop-opacity=".7"/><stop offset="1" stop-color="#e5b95c" stop-opacity="0"/></radialGradient>
<pattern id="crosshatch" width="18" height="18" patternUnits="userSpaceOnUse"><path d="M-3 18L18-3M4 22L22 4" stroke="#392f2a" stroke-width="1" opacity=".12"/></pattern>
</defs>
<rect width="720" height="1120" rx="38" fill="#efe2c8"/><rect x="12" y="12" width="696" height="1096" rx="32" fill="#f3e7cf" filter="url(#paper-grain)"/>
<path d="M 557.4 741.0 L 546.5 824.0 L 520.4 938.6 L 453.6 938.2 L 411.3 846.6 L 409.1 741.0 L 425.9 655.8 L 465.0 611.1 L 511.3 597.5 L 555.9 644.8 Z" fill="#7f2e25" opacity="0.055" filter="url(#watercolor)"/><path d="M 622.5 298.0 L 553.1 369.5 L 512.6 466.2 L 422.9 427.8 L 370.4 369.8 L 352.4 298.0 L 366.1 222.7 L 415.3 142.8 L 499.4 173.8 L 550.4 228.6 Z" fill="#d77b35" opacity="0.073" filter="url(#watercolor)"/><path d="M 269.0 574.0 L 239.4 680.5 L 170.4 753.0 L 81.4 745.8 L 36.3 656.6 L -21.2 574.0 L -2.9 454.9 L 90.8 439.2 L 165.9 412.6 L 218.7 486.7 Z" fill="#e5b95c" opacity="0.091" filter="url(#watercolor)"/><path d="M 597.0 501.0 L 579.6 552.1 L 542.7 602.6 L 483.9 581.9 L 423.2 564.7 L 420.0 501.0 L 409.0 426.9 L 470.2 377.4 L 546.3 388.4 L 583.6 447.1 Z" fill="#4e6745" opacity="0.109" filter="url(#watercolor)"/><path d="M 430.7 143.0 L 354.5 240.7 L 278.8 333.7 L 151.2 327.9 L 47.2 258.9 L 20.7 143.0 L 81.2 50.7 L 154.3 -33.0 L 281.4 -55.6 L 345.7 51.4 Z" fill="#7f2e25" opacity="0.055" filter="url(#watercolor)"/><path d="M 205.8 783.0 L 183.4 878.1 L 134.9 948.7 L 67.6 946.3 L 33.6 860.8 L -17.8 783.0 L 19.5 688.9 L 75.3 657.2 L 130.0 641.2 L 170.6 702.7 Z" fill="#d77b35" opacity="0.073" filter="url(#watercolor)"/><path d="M 642.3 577.0 L 641.0 685.1 L 551.6 699.2 L 473.4 748.0 L 413.9 670.1 L 377.3 577.0 L 401.7 473.1 L 471.9 400.3 L 557.6 432.2 L 637.5 472.1 Z" fill="#e5b95c" opacity="0.091" filter="url(#watercolor)"/><path d="M 501.5 374.0 L 414.9 410.2 L 362.9 456.7 L 260.7 430.0 L 176.5 414.2 L 129.9 374.0 L 184.4 336.3 L 247.9 300.6 L 363.3 290.8 L 430.2 332.9 Z" fill="#4e6745" opacity="0.109" filter="url(#watercolor)"/><path d="M 283.7 437.0 L 253.4 514.8 L 228.5 607.1 L 178.9 585.3 L 134.5 539.1 L 126.2 437.0 L 146.6 353.2 L 183.1 316.0 L 223.8 297.2 L 260.0 349.2 Z" fill="#7f2e25" opacity="0.055" filter="url(#watercolor)"/><path d="M 159.3 534.0 L 162.6 601.0 L 119.1 623.8 L 78.9 623.6 L 54.2 581.2 L 38.8 534.0 L 44.0 476.1 L 77.0 436.0 L 125.1 417.4 L 158.3 471.6 Z" fill="#d77b35" opacity="0.073" filter="url(#watercolor)"/><path d="M 570.4 578.0 L 549.1 622.6 L 501.4 661.0 L 430.9 651.3 L 394.8 614.3 L 365.2 578.0 L 376.9 532.4 L 437.9 520.2 L 497.9 502.9 L 547.2 534.4 Z" fill="#e5b95c" opacity="0.091" filter="url(#watercolor)"/><path d="M 570.0 228.0 L 570.4 278.8 L 518.5 318.4 L 441.6 322.9 L 387.0 281.4 L 387.4 228.0 L 377.8 169.3 L 440.5 130.3 L 512.2 152.8 L 588.6 166.8 Z" fill="#4e6745" opacity="0.109" filter="url(#watercolor)"/><rect x="48" y="105" width="624" height="845" rx="16" fill="url(#crosshatch)"/><circle cx="107" cy="345" r="1.1" fill="#372f2a" opacity="0.18"/><circle cx="103" cy="249" r="1.1" fill="#372f2a" opacity="0.22"/><circle cx="436" cy="534" r="1.6" fill="#372f2a" opacity="0.45"/><circle cx="628" cy="899" r="0.8" fill="#372f2a" opacity="0.12"/><circle cx="524" cy="639" r="2.2" fill="#372f2a" opacity="0.28"/><circle cx="508" cy="616" r="1.1" fill="#372f2a" opacity="0.19"/><circle cx="620" cy="382" r="1.6" fill="#372f2a" opacity="0.14"/><circle cx="334" cy="507" r="1.6" fill="#372f2a" opacity="0.29"/><circle cx="237" cy="780" r="2.2" fill="#372f2a" opacity="0.38"/><circle cx="404" cy="266" r="1.1" fill="#372f2a" opacity="0.35"/><circle cx="237" cy="153" r="1.6" fill="#372f2a" opacity="0.27"/><circle cx="591" cy="288" r="1.1" fill="#372f2a" opacity="0.39"/><circle cx="625" cy="341" r="1.1" fill="#372f2a" opacity="0.25"/><circle cx="451" cy="346" r="0.8" fill="#372f2a" opacity="0.19"/><circle cx="350" cy="248" r="1.6" fill="#372f2a" opacity="0.25"/><circle cx="317" cy="647" r="0.8" fill="#372f2a" opacity="0.19"/><circle cx="301" cy="762" r="1.6" fill="#372f2a" opacity="0.23"/><circle cx="263" cy="902" r="1.1" fill="#372f2a" opacity="0.20"/><circle cx="116" cy="837" r="2.2" fill="#372f2a" opacity="0.38"/><circle cx="642" cy="535" r="2.2" fill="#372f2a" opacity="0.30"/><circle cx="256" cy="531" r="1.1" fill="#372f2a" opacity="0.36"/><circle cx="279" cy="175" r="0.8" fill="#372f2a" opacity="0.41"/><circle cx="354" cy="470" r="0.8" fill="#372f2a" opacity="0.30"/><circle cx="163" cy="485" r="1.6" fill="#372f2a" opacity="0.31"/><circle cx="208" cy="839" r="1.6" fill="#372f2a" opacity="0.25"/><circle cx="358" cy="561" r="1.1" fill="#372f2a" opacity="0.24"/><circle cx="149" cy="183" r="2.2" fill="#372f2a" opacity="0.27"/><circle cx="151" cy="709" r="2.2" fill="#372f2a" opacity="0.38"/><circle cx="227" cy="906" r="1.6" fill="#372f2a" opacity="0.16"/><circle cx="394" cy="492" r="1.6" fill="#372f2a" opacity="0.24"/><circle cx="340" cy="472" r="1.1" fill="#372f2a" opacity="0.36"/><circle cx="358" cy="743" r="0.8" fill="#372f2a" opacity="0.19"/><circle cx="96" cy="602" r="0.8" fill="#372f2a" opacity="0.16"/><circle cx="341" cy="508" r="0.8" fill="#372f2a" opacity="0.20"/><circle cx="253" cy="905" r="1.1" fill="#372f2a" opacity="0.12"/><circle cx="474" cy="582" r="0.8" fill="#372f2a" opacity="0.32"/><circle cx="500" cy="239" r="1.1" fill="#372f2a" opacity="0.13"/><circle cx="438" cy="597" r="0.8" fill="#372f2a" opacity="0.28"/><circle cx="537" cy="424" r="0.8" fill="#372f2a" opacity="0.42"/><circle cx="99" cy="682" r="1.1" fill="#372f2a" opacity="0.23"/><circle cx="147" cy="372" r="2.2" fill="#372f2a" opacity="0.45"/><circle cx="276" cy="781" r="1.1" fill="#372f2a" opacity="0.40"/><circle cx="293" cy="538" r="0.8" fill="#372f2a" opacity="0.43"/><circle cx="645" cy="697" r="2.2" fill="#372f2a" opacity="0.23"/><circle cx="388" cy="923" r="0.8" fill="#372f2a" opacity="0.39"/><circle cx="98" cy="267" r="2.2" fill="#372f2a" opacity="0.25"/><circle cx="559" cy="776" r="1.6" fill="#372f2a" opacity="0.35"/><circle cx="242" cy="840" r="0.8" fill="#372f2a" opacity="0.29"/><circle cx="383" cy="369" r="0.8" fill="#372f2a" opacity="0.17"/><circle cx="540" cy="543" r="0.8" fill="#372f2a" opacity="0.17"/><circle cx="218" cy="340" r="1.6" fill="#372f2a" opacity="0.36"/><circle cx="248" cy="375" r="1.1" fill="#372f2a" opacity="0.36"/><circle cx="84" cy="284" r="1.6" fill="#372f2a" opacity="0.22"/><circle cx="614" cy="808" r="0.8" fill="#372f2a" opacity="0.24"/><circle cx="325" cy="317" r="1.6" fill="#372f2a" opacity="0.14"/><circle cx="237" cy="150" r="0.8" fill="#372f2a" opacity="0.24"/><circle cx="567" cy="847" r="1.6" fill="#372f2a" opacity="0.40"/><circle cx="623" cy="655" r="1.1" fill="#372f2a" opacity="0.31"/><circle cx="545" cy="294" r="2.2" fill="#372f2a" opacity="0.21"/><circle cx="562" cy="270" r="1.1" fill="#372f2a" opacity="0.34"/><circle cx="370" cy="501" r="2.2" fill="#372f2a" opacity="0.24"/><circle cx="627" cy="470" r="1.6" fill="#372f2a" opacity="0.30"/><circle cx="398" cy="211" r="1.6" fill="#372f2a" opacity="0.22"/><circle cx="405" cy="262" r="1.6" fill="#372f2a" opacity="0.35"/><circle cx="337" cy="445" r="1.1" fill="#372f2a" opacity="0.43"/><circle cx="597" cy="572" r="1.1" fill="#372f2a" opacity="0.35"/><circle cx="235" cy="296" r="0.8" fill="#372f2a" opacity="0.29"/><circle cx="67" cy="848" r="2.2" fill="#372f2a" opacity="0.14"/><circle cx="260" cy="405" r="2.2" fill="#372f2a" opacity="0.20"/><circle cx="440" cy="689" r="2.2" fill="#372f2a" opacity="0.34"/><circle cx="297" cy="923" r="2.2" fill="#372f2a" opacity="0.45"/><circle cx="402" cy="567" r="0.8" fill="#372f2a" opacity="0.34"/><circle cx="111" cy="129" r="1.1" fill="#372f2a" opacity="0.32"/><circle cx="537" cy="501" r="0.8" fill="#372f2a" opacity="0.31"/><circle cx="200" cy="928" r="1.1" fill="#372f2a" opacity="0.41"/><circle cx="380" cy="312" r="1.6" fill="#372f2a" opacity="0.22"/><circle cx="576" cy="435" r="1.1" fill="#372f2a" opacity="0.16"/><circle cx="367" cy="508" r="1.6" fill="#372f2a" opacity="0.43"/><circle cx="511" cy="432" r="1.6" fill="#372f2a" opacity="0.16"/><circle cx="78" cy="481" r="1.1" fill="#372f2a" opacity="0.22"/><circle cx="100" cy="920" r="0.8" fill="#372f2a" opacity="0.30"/><circle cx="571" cy="681" r="0.8" fill="#372f2a" opacity="0.29"/><circle cx="168" cy="791" r="2.2" fill="#372f2a" opacity="0.35"/><circle cx="248" cy="888" r="2.2" fill="#372f2a" opacity="0.43"/><circle cx="539" cy="849" r="0.8" fill="#372f2a" opacity="0.21"/><circle cx="615" cy="673" r="1.1" fill="#372f2a" opacity="0.17"/><circle cx="558" cy="170" r="0.8" fill="#372f2a" opacity="0.29"/><circle cx="409" cy="529" r="1.1" fill="#372f2a" opacity="0.29"/><circle cx="336" cy="730" r="1.6" fill="#372f2a" opacity="0.19"/><circle cx="189" cy="267" r="1.1" fill="#372f2a" opacity="0.29"/><circle cx="253" cy="316" r="1.6" fill="#372f2a" opacity="0.30"/><circle cx="243" cy="586" r="1.6" fill="#372f2a" opacity="0.34"/><circle cx="226" cy="463" r="2.2" fill="#372f2a" opacity="0.24"/><circle cx="75" cy="242" r="2.2" fill="#372f2a" opacity="0.38"/><circle cx="357" cy="607" r="0.8" fill="#372f2a" opacity="0.26"/><path d="M168 357l58 -2" stroke="#302a27" stroke-width="1.2" opacity=".18"/><path d="M257 496l58 -8" stroke="#302a27" stroke-width="1.2" opacity=".18"/><path d="M105 649l58 0" stroke="#302a27" stroke-width="1.2" opacity=".18"/><path d="M153 729l46 13" stroke="#302a27" stroke-width="1.2" opacity=".18"/><path d="M329 183l24 1" stroke="#302a27" stroke-width="1.2" opacity=".18"/><path d="M516 846l52 3" stroke="#302a27" stroke-width="1.2" opacity=".18"/><path d="M266 259l56 -3" stroke="#302a27" stroke-width="1.2" opacity=".18"/><path d="M407 461l67 -17" stroke="#302a27" stroke-width="1.2" opacity=".18"/><path d="M246 373l52 -1" stroke="#302a27" stroke-width="1.2" opacity=".18"/><path d="M302 547l76 16" stroke="#302a27" stroke-width="1.2" opacity=".18"/><path d="M367 678l58 -12" stroke="#302a27" stroke-width="1.2" opacity=".18"/><path d="M540 186l49 -6" stroke="#302a27" stroke-width="1.2" opacity=".18"/><path d="M166 380l69 -8" stroke="#302a27" stroke-width="1.2" opacity=".18"/><path d="M83 545l29 -15" stroke="#302a27" stroke-width="1.2" opacity=".18"/><path d="M294 717l31 10" stroke="#302a27" stroke-width="1.2" opacity=".18"/><path d="M448 782l29 0" stroke="#302a27" stroke-width="1.2" opacity=".18"/><path d="M523 606l37 -14" stroke="#302a27" stroke-width="1.2" opacity=".18"/><path d="M266 492l24 3" stroke="#302a27" stroke-width="1.2" opacity=".18"/><path d="M365 385l66 10" stroke="#302a27" stroke-width="1.2" opacity=".18"/><path d="M391 424l47 18" stroke="#302a27" stroke-width="1.2" opacity=".18"/><path d="M605 487l30 -9" stroke="#302a27" stroke-width="1.2" opacity=".18"/><path d="M432 715l37 3" stroke="#302a27" stroke-width="1.2" opacity=".18"/><path d="M598 365l27 -14" stroke="#302a27" stroke-width="1.2" opacity=".18"/><path d="M544 714l70 -7" stroke="#302a27" stroke-width="1.2" opacity=".18"/><path d="M606 330l37 7" stroke="#302a27" stroke-width="1.2" opacity=".18"/><path d="M605 212l64 -9" stroke="#302a27" stroke-width="1.2" opacity=".18"/><path d="M116 730l47 9" stroke="#302a27" stroke-width="1.2" opacity=".18"/><path d="M515 632l18 -3" stroke="#302a27" stroke-width="1.2" opacity=".18"/><path d="M392 776l62 -3" stroke="#302a27" stroke-width="1.2" opacity=".18"/><path d="M410 303l45 11" stroke="#302a27" stroke-width="1.2" opacity=".18"/><path d="M581 506l58 6" stroke="#302a27" stroke-width="1.2" opacity=".18"/><path d="M479 514l60 -3" stroke="#302a27" stroke-width="1.2" opacity=".18"/><path d="M392 783l60 8" stroke="#302a27" stroke-width="1.2" opacity=".18"/><path d="M139 662l56 17" stroke="#302a27" stroke-width="1.2" opacity=".18"/><path d="M519 318l47 -7" stroke="#302a27" stroke-width="1.2" opacity=".18"/><path d="M277 287l80 -18" stroke="#302a27" stroke-width="1.2" opacity=".18"/><path d="M94 676l57 -2" stroke="#302a27" stroke-width="1.2" opacity=".18"/><path d="M436 812l40 -2" stroke="#302a27" stroke-width="1.2" opacity=".18"/><path d="M207 817l26 3" stroke="#302a27" stroke-width="1.2" opacity=".18"/><path d="M600 217l71 8" stroke="#302a27" stroke-width="1.2" opacity=".18"/><path d="M185 392l44 -14" stroke="#302a27" stroke-width="1.2" opacity=".18"/><path d="M603 827l71 11" stroke="#302a27" stroke-width="1.2" opacity=".18"/><rect x="20" y="20" width="680" height="1080" rx="26" fill="none" stroke="#2b2724" stroke-width="5" opacity="0.92" filter="url(#rough-ink)"/><rect x="30" y="28" width="664" height="1064" rx="23" fill="none" stroke="#2b2724" stroke-width="2" opacity="0.42" filter="url(#rough-ink)"/><rect x="41" y="43" width="634" height="1034" rx="18" fill="none" stroke="#2b2724" stroke-width="2.5" opacity="0.7" filter="url(#rough-ink)"/><path d="M72 130Q360 86 648 130M72 930Q360 983 648 930" fill="none" stroke="#e5b95c" stroke-width="3" opacity=".75" filter="url(#rough-ink)"/>
<g data-scene="page-of-wands"><g data-layer="hand-drawn-figure"><path d="M302 273l18-38 38 27 38-27 18 38" fill="none" stroke="#e5b95c" stroke-width="7" filter="url(#rough-ink)"/><path d="M266 452 Q358 395 450 452 L500 820 Q358 870 216 820 Z" fill="#7f2e25" opacity=".52" stroke="#292622" stroke-width="6" filter="url(#rough-ink)"/><path d="M286 485 Q198 576 173 647" fill="none" stroke="#362d28" stroke-width="18" stroke-linecap="round" stroke-linejoin="round" opacity="1" filter="url(#rough-ink)"/><path d="M286 485 Q198 576 173 647" fill="none" stroke="#362d28" stroke-width="5.0" stroke-linecap="round" stroke-linejoin="round" opacity="0.45" transform="translate(2 -1)"/><path d="M430 485 Q516 536 538 652" fill="none" stroke="#362d28" stroke-width="18" stroke-linecap="round" stroke-linejoin="round" opacity="1" filter="url(#rough-ink)"/><path d="M430 485 Q516 536 538 652" fill="none" stroke="#362d28" stroke-width="5.0" stroke-linecap="round" stroke-linejoin="round" opacity="0.45" transform="translate(2 -1)"/><ellipse cx="358" cy="337" rx="69" ry="78" fill="#d3a67e" opacity=".82" stroke="#2e2824" stroke-width="5" filter="url(#rough-ink)"/><path d="M294 327Q304 242 358 253Q428 235 422 349" fill="none" stroke="#d77b35" stroke-width="24" opacity=".78" filter="url(#rough-ink)"/><path d="M327 340l17 2M372 342l17-2" stroke="#292522" stroke-width="7"/><path d="M339 377Q358 388 378 375" fill="none" stroke="#7c4e45" stroke-width="4"/><path d="M298 540Q358 590 418 540" fill="none" stroke="#e5b95c" stroke-width="7" stroke-linecap="round" stroke-linejoin="round" opacity="0.8" filter="url(#rough-ink)"/><path d="M298 540Q358 590 418 540" fill="none" stroke="#e5b95c" stroke-width="2.0" stroke-linecap="round" stroke-linejoin="round" opacity="0.36" transform="translate(2 -1)"/></g><path d="M536.1 598.5L578.1 451.5" fill="none" stroke="#69452e" stroke-width="7.3500000000000005" stroke-linecap="round" stroke-linejoin="round" opacity="1" filter="url(#rough-ink)"/><path d="M536.1 598.5L578.1 451.5" fill="none" stroke="#69452e" stroke-width="2.1" stroke-linecap="round" stroke-linejoin="round" opacity="0.45" transform="translate(2 -1)"/><path d="M565.5 474.6q36.8-23.1 26.2 23.1" stroke="#4e6745" stroke-width="4.2" fill="none"/><path d="M150 188l9.7 28.6h30.2l-24.4 17.6l9.2 29.4l-24.8-18.1l-24.8 18.1l9.2-29.4l-24.4-17.6h30.2Z" fill="#e5b95c" opacity=".62" stroke="#312923" stroke-width="3" filter="url(#rough-ink)"/></g>
<rect x="78" y="942" width="564" height="118" rx="12" fill="#f4e8d4" opacity=".86" stroke="#302a27" stroke-width="4" filter="url(#rough-ink)"/>
<text x="360" y="995" text-anchor="middle" fill="#2d2926" font-family="Georgia,serif" font-size="31" font-weight="bold" letter-spacing="2">PAGE OF WANDS</text>
<text x="360" y="1032" text-anchor="middle" fill="#7f2e25" font-family="Georgia,serif" font-size="15" letter-spacing="3">SCOUT WANDS</text>
<text x="360" y="84" text-anchor="middle" fill="#2e2925" font-family="Georgia,serif" font-size="30">♜</text>
</svg>