<svg xmlns="http://www.w3.org/2000/svg" viewBox="0 0 720 1120" data-style="hand-drawn-ink-watercolor" data-card-id="card-page-of-pentacles">
<title>PAGE OF PENTACLES — The Pilgrim's Ink Deck</title><desc>Original hand-drawn Tarot illustration with ink contours, watercolor washes, paper grain, and symbolic imagery.</desc>
<defs>
<filter id="paper-grain" x="-10%" y="-10%" width="120%" height="120%"><feTurbulence type="fractalNoise" baseFrequency=".72" numOctaves="4" seed="11" result="noise"/><feColorMatrix in="noise" values=".18 0 0 0 .72  0 .14 0 0 .66  0 0 .1 0 .54  0 0 0 .22 0"/><feBlend in="SourceGraphic" mode="multiply"/></filter>
<filter id="rough-ink" x="-8%" y="-8%" width="116%" height="116%"><feTurbulence type="turbulence" baseFrequency=".012 .055" numOctaves="2" seed="35" result="wobble"/><feDisplacementMap in="SourceGraphic" in2="wobble" scale="3.8" xChannelSelector="R" yChannelSelector="G"/></filter>
<filter id="watercolor" x="-20%" y="-20%" width="140%" height="140%"><feTurbulence type="fractalNoise" baseFrequency=".018" numOctaves="3" seed="78" result="wet"/><feDisplacementMap in="SourceGraphic" in2="wet" scale="18"/><feGaussianBlur stdDeviation="2.2"/></filter>
<linearGradient id="ink-wash" x1="0" y1="0" x2="1" y2="1"><stop stop-color="#3f593e" stop-opacity=".66"/><stop offset=".52" stop-color="#d3aa50" stop-opacity=".32"/><stop offset="1" stop-color="#77834c" stop-opacity=".62"/></linearGradient>
<radialGradient id="gold-bloom"><stop stop-color="#9b633d" stop-opacity=".7"/><stop offset="1" stop-color="#9b633d" stop-opacity="0"/></radialGradient>
<pattern id="crosshatch" width="18" height="18" patternUnits="userSpaceOnUse"><path d="M-3 18L18-3M4 22L22 4" stroke="#392f2a" stroke-width="1" opacity=".12"/></pattern>
</defs>
<rect width="720" height="1120" rx="38" fill="#efe2c8"/><rect x="12" y="12" width="696" height="1096" rx="32" fill="#f3e7cf" filter="url(#paper-grain)"/>
<path d="M 405.8 203.0 L 358.8 233.2 L 294.6 255.4 L 213.8 245.6 L 123.9 238.0 L 66.3 203.0 L 118.2 166.5 L 206.3 151.7 L 299.8 144.6 L 389.5 164.3 Z" fill="#3f593e" opacity="0.055" filter="url(#watercolor)"/><path d="M 447.7 715.0 L 434.9 786.2 L 385.4 830.0 L 331.1 805.4 L 292.8 770.5 L 234.9 715.0 L 265.4 635.1 L 324.5 600.0 L 388.8 587.3 L 430.7 647.5 Z" fill="#77834c" opacity="0.073" filter="url(#watercolor)"/><path d="M 525.8 772.0 L 479.3 859.6 L 420.2 915.3 L 340.2 936.8 L 268.8 875.9 L 282.8 772.0 L 277.2 675.7 L 342.1 614.3 L 423.3 616.8 L 473.7 689.5 Z" fill="#9b633d" opacity="0.091" filter="url(#watercolor)"/><path d="M 490.9 353.0 L 489.9 399.5 L 388.0 410.5 L 307.2 406.1 L 205.2 398.5 L 194.8 353.0 L 248.9 321.6 L 302.2 293.0 L 397.0 283.3 L 469.3 313.2 Z" fill="#d3aa50" opacity="0.109" filter="url(#watercolor)"/><path d="M 687.8 523.0 L 643.3 563.6 L 611.4 618.0 L 541.0 597.6 L 470.3 580.8 L 474.2 523.0 L 481.0 471.2 L 544.6 457.0 L 599.8 455.9 L 652.1 477.4 Z" fill="#3f593e" opacity="0.055" filter="url(#watercolor)"/><path d="M 631.6 709.0 L 597.4 759.2 L 489.1 774.5 L 380.6 791.2 L 270.8 763.7 L 228.9 709.0 L 252.6 648.5 L 375.3 619.6 L 492.9 638.4 L 592.8 660.2 Z" fill="#77834c" opacity="0.073" filter="url(#watercolor)"/><path d="M 468.0 780.0 L 443.5 817.7 L 375.4 833.8 L 287.5 863.6 L 205.3 830.0 L 201.4 780.0 L 228.4 738.5 L 296.9 711.1 L 390.6 702.5 L 438.9 743.9 Z" fill="#9b633d" opacity="0.091" filter="url(#watercolor)"/><path d="M 700.8 291.0 L 674.9 379.1 L 634.9 415.1 L 595.7 411.5 L 546.2 392.2 L 532.4 291.0 L 552.8 199.5 L 585.2 105.2 L 643.2 115.2 L 697.2 170.2 Z" fill="#d3aa50" opacity="0.109" filter="url(#watercolor)"/><path d="M 553.4 405.0 L 532.5 507.0 L 434.5 533.5 L 329.8 600.5 L 230.6 523.7 L 228.1 405.0 L 229.8 285.8 L 341.1 244.3 L 449.2 231.1 L 556.4 285.6 Z" fill="#3f593e" opacity="0.055" filter="url(#watercolor)"/><path d="M 647.3 751.0 L 572.8 816.6 L 526.2 862.3 L 450.1 911.4 L 416.2 817.4 L 383.1 751.0 L 401.6 672.3 L 456.8 614.6 L 542.2 582.4 L 618.0 647.3 Z" fill="#77834c" opacity="0.073" filter="url(#watercolor)"/><path d="M 744.8 629.0 L 687.7 684.6 L 630.6 737.2 L 529.2 746.5 L 438.1 704.7 L 459.6 629.0 L 467.1 568.6 L 527.5 507.7 L 633.9 513.4 L 700.9 566.5 Z" fill="#9b633d" opacity="0.091" filter="url(#watercolor)"/><path d="M 245.7 171.0 L 213.3 226.7 L 173.2 259.7 L 121.9 270.5 L 96.4 216.5 L 84.8 171.0 L 86.6 116.9 L 119.4 62.3 L 178.4 63.2 L 212.7 115.8 Z" fill="#d3aa50" opacity="0.109" filter="url(#watercolor)"/><rect x="48" y="105" width="624" height="845" rx="16" fill="url(#crosshatch)"/><circle cx="411" cy="682" r="1.1" fill="#372f2a" opacity="0.14"/><circle cx="436" cy="221" r="1.1" fill="#372f2a" opacity="0.36"/><circle cx="238" cy="918" r="1.1" fill="#372f2a" opacity="0.26"/><circle cx="478" cy="589" r="1.6" fill="#372f2a" opacity="0.33"/><circle cx="149" cy="186" r="1.6" fill="#372f2a" opacity="0.32"/><circle cx="652" cy="142" r="2.2" fill="#372f2a" opacity="0.25"/><circle cx="362" cy="332" r="1.1" fill="#372f2a" opacity="0.28"/><circle cx="575" cy="147" r="0.8" fill="#372f2a" opacity="0.17"/><circle cx="380" cy="730" r="1.1" fill="#372f2a" opacity="0.22"/><circle cx="590" cy="308" r="0.8" fill="#372f2a" opacity="0.31"/><circle cx="477" cy="635" r="1.6" fill="#372f2a" opacity="0.29"/><circle cx="76" cy="799" r="2.2" fill="#372f2a" opacity="0.21"/><circle cx="597" cy="538" r="2.2" fill="#372f2a" opacity="0.41"/><circle cx="413" cy="872" r="2.2" fill="#372f2a" opacity="0.44"/><circle cx="172" cy="406" r="0.8" fill="#372f2a" opacity="0.18"/><circle cx="504" cy="715" r="2.2" fill="#372f2a" opacity="0.13"/><circle cx="334" cy="462" r="0.8" fill="#372f2a" opacity="0.26"/><circle cx="294" cy="672" r="1.6" fill="#372f2a" opacity="0.42"/><circle cx="69" cy="320" r="1.1" fill="#372f2a" opacity="0.24"/><circle cx="124" cy="253" r="0.8" fill="#372f2a" opacity="0.37"/><circle cx="325" cy="555" r="1.1" fill="#372f2a" opacity="0.40"/><circle cx="636" cy="882" r="0.8" fill="#372f2a" opacity="0.27"/><circle cx="135" cy="923" r="0.8" fill="#372f2a" opacity="0.22"/><circle cx="218" cy="812" r="1.1" fill="#372f2a" opacity="0.27"/><circle cx="371" cy="162" r="1.6" fill="#372f2a" opacity="0.31"/><circle cx="130" cy="365" r="1.1" fill="#372f2a" opacity="0.45"/><circle cx="115" cy="185" r="1.1" fill="#372f2a" opacity="0.34"/><circle cx="327" cy="621" r="1.6" fill="#372f2a" opacity="0.21"/><circle cx="91" cy="238" r="0.8" fill="#372f2a" opacity="0.43"/><circle cx="496" cy="848" r="2.2" fill="#372f2a" opacity="0.18"/><circle cx="146" cy="721" r="2.2" fill="#372f2a" opacity="0.23"/><circle cx="212" cy="481" r="0.8" fill="#372f2a" opacity="0.33"/><circle cx="111" cy="536" r="1.1" fill="#372f2a" opacity="0.12"/><circle cx="322" cy="330" r="2.2" fill="#372f2a" opacity="0.31"/><circle cx="472" cy="384" r="1.6" fill="#372f2a" opacity="0.17"/><circle cx="171" cy="799" r="0.8" fill="#372f2a" opacity="0.30"/><circle cx="142" cy="286" r="1.1" fill="#372f2a" opacity="0.17"/><circle cx="258" cy="231" r="2.2" fill="#372f2a" opacity="0.32"/><circle cx="435" cy="858" r="1.6" fill="#372f2a" opacity="0.42"/><circle cx="286" cy="304" r="1.6" fill="#372f2a" opacity="0.40"/><circle cx="430" cy="599" r="2.2" fill="#372f2a" opacity="0.33"/><circle cx="554" cy="516" r="2.2" fill="#372f2a" opacity="0.27"/><circle cx="272" cy="895" r="2.2" fill="#372f2a" opacity="0.40"/><circle cx="228" cy="823" r="1.1" fill="#372f2a" opacity="0.16"/><circle cx="171" cy="826" r="1.6" fill="#372f2a" opacity="0.13"/><circle cx="622" cy="169" r="1.6" fill="#372f2a" opacity="0.31"/><circle cx="334" cy="825" r="1.1" fill="#372f2a" opacity="0.27"/><circle cx="116" cy="323" r="1.6" fill="#372f2a" opacity="0.43"/><circle cx="328" cy="744" r="1.1" fill="#372f2a" opacity="0.14"/><circle cx="502" cy="135" r="2.2" fill="#372f2a" opacity="0.16"/><circle cx="413" cy="760" r="2.2" fill="#372f2a" opacity="0.41"/><circle cx="121" cy="836" r="0.8" fill="#372f2a" opacity="0.15"/><circle cx="384" cy="665" r="0.8" fill="#372f2a" opacity="0.41"/><circle cx="205" cy="822" r="2.2" fill="#372f2a" opacity="0.43"/><circle cx="298" cy="458" r="1.1" fill="#372f2a" opacity="0.45"/><circle cx="125" cy="189" r="0.8" fill="#372f2a" opacity="0.42"/><circle cx="400" cy="614" r="0.8" fill="#372f2a" opacity="0.42"/><circle cx="600" cy="124" r="1.1" fill="#372f2a" opacity="0.30"/><circle cx="631" cy="544" r="0.8" fill="#372f2a" opacity="0.33"/><circle cx="442" cy="278" r="1.6" fill="#372f2a" opacity="0.43"/><circle cx="455" cy="247" r="2.2" fill="#372f2a" opacity="0.28"/><circle cx="231" cy="734" r="1.1" fill="#372f2a" opacity="0.36"/><circle cx="113" cy="178" r="0.8" fill="#372f2a" opacity="0.44"/><circle cx="350" cy="613" r="1.6" fill="#372f2a" opacity="0.24"/><circle cx="413" cy="353" r="1.6" fill="#372f2a" opacity="0.27"/><circle cx="418" cy="813" r="2.2" fill="#372f2a" opacity="0.24"/><circle cx="352" cy="522" r="1.6" fill="#372f2a" opacity="0.37"/><circle cx="579" cy="863" r="1.6" fill="#372f2a" opacity="0.34"/><circle cx="637" cy="227" r="0.8" fill="#372f2a" opacity="0.21"/><circle cx="571" cy="776" r="0.8" fill="#372f2a" opacity="0.29"/><circle cx="644" cy="502" r="2.2" fill="#372f2a" opacity="0.33"/><circle cx="493" cy="707" r="2.2" fill="#372f2a" opacity="0.19"/><circle cx="340" cy="622" r="0.8" fill="#372f2a" opacity="0.44"/><circle cx="364" cy="202" r="1.6" fill="#372f2a" opacity="0.39"/><circle cx="526" cy="762" r="0.8" fill="#372f2a" opacity="0.32"/><circle cx="67" cy="477" r="0.8" fill="#372f2a" opacity="0.26"/><circle cx="564" cy="306" r="0.8" fill="#372f2a" opacity="0.29"/><circle cx="97" cy="795" r="1.6" fill="#372f2a" opacity="0.27"/><circle cx="615" cy="856" r="0.8" fill="#372f2a" opacity="0.26"/><circle cx="397" cy="297" r="0.8" fill="#372f2a" opacity="0.41"/><circle cx="198" cy="841" r="0.8" fill="#372f2a" opacity="0.36"/><circle cx="380" cy="267" r="2.2" fill="#372f2a" opacity="0.13"/><circle cx="212" cy="413" r="1.1" fill="#372f2a" opacity="0.36"/><circle cx="103" cy="860" r="1.6" fill="#372f2a" opacity="0.42"/><circle cx="140" cy="165" r="1.6" fill="#372f2a" opacity="0.25"/><circle cx="433" cy="331" r="1.6" fill="#372f2a" opacity="0.20"/><circle cx="128" cy="790" r="2.2" fill="#372f2a" opacity="0.16"/><circle cx="208" cy="857" r="1.1" fill="#372f2a" opacity="0.13"/><circle cx="606" cy="771" r="1.6" fill="#372f2a" opacity="0.27"/><circle cx="433" cy="302" r="0.8" fill="#372f2a" opacity="0.27"/><circle cx="573" cy="616" r="2.2" fill="#372f2a" opacity="0.32"/><circle cx="422" cy="581" r="1.6" fill="#372f2a" opacity="0.42"/><circle cx="383" cy="178" r="0.8" fill="#372f2a" opacity="0.31"/><circle cx="356" cy="775" r="1.6" fill="#372f2a" opacity="0.22"/><circle cx="655" cy="495" r="0.8" fill="#372f2a" opacity="0.22"/><path d="M569 261l53 16" stroke="#302a27" stroke-width="1.2" opacity=".18"/><path d="M325 254l69 -7" stroke="#302a27" stroke-width="1.2" opacity=".18"/><path d="M405 373l53 -11" stroke="#302a27" stroke-width="1.2" opacity=".18"/><path d="M368 491l41 17" stroke="#302a27" stroke-width="1.2" opacity=".18"/><path d="M595 604l29 1" stroke="#302a27" stroke-width="1.2" opacity=".18"/><path d="M439 638l44 0" stroke="#302a27" stroke-width="1.2" opacity=".18"/><path d="M158 258l35 -6" stroke="#302a27" stroke-width="1.2" opacity=".18"/><path d="M337 517l61 2" stroke="#302a27" stroke-width="1.2" opacity=".18"/><path d="M596 267l36 -15" stroke="#302a27" stroke-width="1.2" opacity=".18"/><path d="M551 200l79 -6" stroke="#302a27" stroke-width="1.2" opacity=".18"/><path d="M420 496l18 9" stroke="#302a27" stroke-width="1.2" opacity=".18"/><path d="M463 429l74 -2" stroke="#302a27" stroke-width="1.2" opacity=".18"/><path d="M362 325l75 7" stroke="#302a27" stroke-width="1.2" opacity=".18"/><path d="M145 185l56 -3" stroke="#302a27" stroke-width="1.2" opacity=".18"/><path d="M185 498l71 13" stroke="#302a27" stroke-width="1.2" opacity=".18"/><path d="M452 271l64 -17" stroke="#302a27" stroke-width="1.2" opacity=".18"/><path d="M361 837l70 1" stroke="#302a27" stroke-width="1.2" opacity=".18"/><path d="M355 600l32 18" stroke="#302a27" stroke-width="1.2" opacity=".18"/><path d="M300 411l21 -4" stroke="#302a27" stroke-width="1.2" opacity=".18"/><path d="M328 438l76 11" stroke="#302a27" stroke-width="1.2" opacity=".18"/><path d="M569 468l43 0" stroke="#302a27" stroke-width="1.2" opacity=".18"/><path d="M258 264l56 -11" stroke="#302a27" stroke-width="1.2" opacity=".18"/><path d="M580 615l47 5" stroke="#302a27" stroke-width="1.2" opacity=".18"/><path d="M495 719l24 -2" stroke="#302a27" stroke-width="1.2" opacity=".18"/><path d="M520 250l40 7" stroke="#302a27" stroke-width="1.2" opacity=".18"/><path d="M504 493l41 -16" stroke="#302a27" stroke-width="1.2" opacity=".18"/><path d="M213 646l70 -8" stroke="#302a27" stroke-width="1.2" opacity=".18"/><path d="M607 439l45 -6" stroke="#302a27" stroke-width="1.2" opacity=".18"/><path d="M255 268l30 15" stroke="#302a27" stroke-width="1.2" opacity=".18"/><path d="M243 514l21 -16" stroke="#302a27" stroke-width="1.2" opacity=".18"/><path d="M575 802l50 -17" stroke="#302a27" stroke-width="1.2" opacity=".18"/><path d="M106 821l56 11" stroke="#302a27" stroke-width="1.2" opacity=".18"/><path d="M109 329l47 5" stroke="#302a27" stroke-width="1.2" opacity=".18"/><path d="M130 363l34 10" stroke="#302a27" stroke-width="1.2" opacity=".18"/><path d="M558 702l58 -10" stroke="#302a27" stroke-width="1.2" opacity=".18"/><path d="M130 439l54 -9" stroke="#302a27" stroke-width="1.2" opacity=".18"/><path d="M199 853l71 13" stroke="#302a27" stroke-width="1.2" opacity=".18"/><path d="M436 280l65 6" stroke="#302a27" stroke-width="1.2" opacity=".18"/><path d="M273 765l38 -8" stroke="#302a27" stroke-width="1.2" opacity=".18"/><path d="M309 385l78 16" stroke="#302a27" stroke-width="1.2" opacity=".18"/><path d="M485 756l50 5" stroke="#302a27" stroke-width="1.2" opacity=".18"/><path d="M273 309l75 -10" stroke="#302a27" stroke-width="1.2" opacity=".18"/><rect x="21" y="20" width="680" height="1080" rx="26" fill="none" stroke="#2b2724" stroke-width="5" opacity="0.92" filter="url(#rough-ink)"/><rect x="28" y="28" width="664" height="1064" rx="23" fill="none" stroke="#2b2724" stroke-width="2" opacity="0.42" filter="url(#rough-ink)"/><rect x="46" y="43" width="634" height="1034" rx="18" fill="none" stroke="#2b2724" stroke-width="2.5" opacity="0.7" filter="url(#rough-ink)"/><path d="M72 130Q360 86 648 130M72 930Q360 987 648 930" fill="none" stroke="#9b633d" stroke-width="3" opacity=".75" filter="url(#rough-ink)"/>
<g data-scene="page-of-pentacles"><g data-layer="hand-drawn-figure"><path d="M322 285l18-38 38 27 38-27 18 38" fill="none" stroke="#9b633d" stroke-width="7" filter="url(#rough-ink)"/><path d="M286 452 Q378 395 470 452 L520 820 Q378 870 236 820 Z" fill="#3f593e" opacity=".52" stroke="#292622" stroke-width="6" filter="url(#rough-ink)"/><path d="M306 485 Q208 592 193 629" fill="none" stroke="#362d28" stroke-width="18" stroke-linecap="round" stroke-linejoin="round" opacity="1" filter="url(#rough-ink)"/><path d="M306 485 Q208 592 193 629" fill="none" stroke="#362d28" stroke-width="5.0" stroke-linecap="round" stroke-linejoin="round" opacity="0.45" transform="translate(2 -1)"/><path d="M450 485 Q544 522 558 664" fill="none" stroke="#362d28" stroke-width="18" stroke-linecap="round" stroke-linejoin="round" opacity="1" filter="url(#rough-ink)"/><path d="M450 485 Q544 522 558 664" fill="none" stroke="#362d28" stroke-width="5.0" stroke-linecap="round" stroke-linejoin="round" opacity="0.45" transform="translate(2 -1)"/><ellipse cx="378" cy="349" rx="69" ry="78" fill="#d3a67e" opacity=".82" stroke="#2e2824" stroke-width="5" filter="url(#rough-ink)"/><path d="M314 339Q324 254 378 265Q448 247 442 361" fill="none" stroke="#77834c" stroke-width="24" opacity=".78" filter="url(#rough-ink)"/><path d="M347 352l17 2M392 354l17-2" stroke="#292522" stroke-width="7"/><path d="M359 389Q378 400 398 387" fill="none" stroke="#7c4e45" stroke-width="4"/><path d="M318 540Q378 590 438 540" fill="none" stroke="#9b633d" stroke-width="7" stroke-linecap="round" stroke-linejoin="round" opacity="0.8" filter="url(#rough-ink)"/><path d="M318 540Q378 590 438 540" fill="none" stroke="#9b633d" stroke-width="2.0" stroke-linecap="round" stroke-linejoin="round" opacity="0.36" transform="translate(2 -1)"/></g><circle cx="555.0" cy="525.0" r="60.9" fill="#9b633d" opacity=".25" stroke="#302824" stroke-width="5.2" filter="url(#rough-ink)"/><polygon points="555.0,477.8 599.9,510.4 582.8,563.2 527.2,563.2 510.1,510.4" fill="none" stroke="#9b633d" stroke-width="5.2"/><path d="M150 188l9.7 28.6h30.2l-24.4 17.6l9.2 29.4l-24.8-18.1l-24.8 18.1l9.2-29.4l-24.4-17.6h30.2Z" fill="#9b633d" opacity=".62" stroke="#312923" stroke-width="3" filter="url(#rough-ink)"/></g>
<rect x="78" y="942" width="564" height="118" rx="12" fill="#f4e8d4" opacity=".86" stroke="#302a27" stroke-width="4" filter="url(#rough-ink)"/>
<text x="360" y="995" text-anchor="middle" fill="#2d2926" font-family="Georgia,serif" font-size="31" font-weight="bold" letter-spacing="2">PAGE OF PENTACLES</text>
<text x="360" y="1032" text-anchor="middle" fill="#3f593e" font-family="Georgia,serif" font-size="15" letter-spacing="3">SCOUT PENTACLES</text>
<text x="360" y="84" text-anchor="middle" fill="#2e2925" font-family="Georgia,serif" font-size="30">✥</text>
</svg>