<svg xmlns="http://www.w3.org/2000/svg" viewBox="0 0 720 1120" data-style="hand-drawn-ink-watercolor" data-card-id="card-star">
<title>THE STAR — The Pilgrim's Ink Deck</title><desc>Original hand-drawn Tarot illustration with ink contours, watercolor washes, paper grain, and symbolic imagery.</desc>
<defs>
<filter id="paper-grain" x="-10%" y="-10%" width="120%" height="120%"><feTurbulence type="fractalNoise" baseFrequency=".72" numOctaves="4" seed="51" result="noise"/><feColorMatrix in="noise" values=".18 0 0 0 .72  0 .14 0 0 .66  0 0 .1 0 .54  0 0 0 .22 0"/><feBlend in="SourceGraphic" mode="multiply"/></filter>
<filter id="rough-ink" x="-8%" y="-8%" width="116%" height="116%"><feTurbulence type="turbulence" baseFrequency=".012 .055" numOctaves="2" seed="17" result="wobble"/><feDisplacementMap in="SourceGraphic" in2="wobble" scale="3.8" xChannelSelector="R" yChannelSelector="G"/></filter>
<filter id="watercolor" x="-20%" y="-20%" width="140%" height="140%"><feTurbulence type="fractalNoise" baseFrequency=".018" numOctaves="3" seed="5" result="wet"/><feDisplacementMap in="SourceGraphic" in2="wet" scale="18"/><feGaussianBlur stdDeviation="2.2"/></filter>
<linearGradient id="ink-wash" x1="0" y1="0" x2="1" y2="1"><stop stop-color="#20334d" stop-opacity=".66"/><stop offset=".52" stop-color="#6f8f83" stop-opacity=".32"/><stop offset="1" stop-color="#8f3151" stop-opacity=".62"/></linearGradient>
<radialGradient id="gold-bloom"><stop stop-color="#d6a84b" stop-opacity=".7"/><stop offset="1" stop-color="#d6a84b" stop-opacity="0"/></radialGradient>
<pattern id="crosshatch" width="18" height="18" patternUnits="userSpaceOnUse"><path d="M-3 18L18-3M4 22L22 4" stroke="#392f2a" stroke-width="1" opacity=".12"/></pattern>
</defs>
<rect width="720" height="1120" rx="38" fill="#efe2c8"/><rect x="12" y="12" width="696" height="1096" rx="32" fill="#f3e7cf" filter="url(#paper-grain)"/>
<path d="M 625.8 396.0 L 612.9 501.3 L 511.9 549.5 L 406.9 547.0 L 305.5 501.1 L 289.4 396.0 L 359.7 328.0 L 412.4 261.0 L 517.3 227.0 L 602.0 298.1 Z" fill="#20334d" opacity="0.055" filter="url(#watercolor)"/><path d="M 374.9 767.0 L 372.7 849.0 L 320.8 873.0 L 276.1 868.6 L 208.3 865.4 L 195.5 767.0 L 225.5 687.5 L 266.3 619.4 L 327.1 631.8 L 380.2 676.7 Z" fill="#8f3151" opacity="0.073" filter="url(#watercolor)"/><path d="M 393.1 572.0 L 402.1 685.8 L 305.0 712.5 L 216.0 744.1 L 156.4 662.1 L 109.2 572.0 L 170.2 493.3 L 229.5 447.3 L 309.3 416.5 L 362.3 491.2 Z" fill="#d6a84b" opacity="0.091" filter="url(#watercolor)"/><path d="M 525.9 286.0 L 511.3 387.2 L 432.4 486.8 L 307.2 447.3 L 243.1 367.8 L 192.2 286.0 L 212.2 183.1 L 296.9 94.7 L 428.9 95.6 L 541.3 164.3 Z" fill="#6f8f83" opacity="0.109" filter="url(#watercolor)"/><path d="M 790.7 343.0 L 756.0 391.8 L 658.8 411.2 L 554.1 424.2 L 504.9 378.7 L 456.0 343.0 L 504.8 307.2 L 567.9 281.5 L 660.2 272.8 L 704.1 311.7 Z" fill="#20334d" opacity="0.055" filter="url(#watercolor)"/><path d="M 515.6 822.0 L 501.3 923.3 L 432.1 989.1 L 336.8 1016.0 L 275.6 922.6 L 224.0 822.0 L 294.5 738.4 L 353.4 690.8 L 422.2 692.4 L 481.3 738.5 Z" fill="#8f3151" opacity="0.073" filter="url(#watercolor)"/><path d="M 283.6 650.0 L 264.8 679.6 L 192.5 697.7 L 93.5 708.5 L 36.6 678.2 L -56.1 650.0 L -10.4 609.9 L 91.1 588.9 L 199.6 594.6 L 265.6 620.2 Z" fill="#d6a84b" opacity="0.091" filter="url(#watercolor)"/><path d="M 349.2 528.0 L 298.6 589.1 L 250.5 615.3 L 195.7 636.0 L 140.2 600.2 L 133.4 528.0 L 156.3 469.3 L 200.3 436.4 L 250.8 439.6 L 299.2 466.4 Z" fill="#6f8f83" opacity="0.109" filter="url(#watercolor)"/><path d="M 440.3 392.0 L 436.6 469.0 L 333.6 507.7 L 215.8 517.2 L 136.5 459.9 L 107.2 392.0 L 120.7 316.5 L 225.5 286.6 L 315.7 312.7 L 437.5 314.5 Z" fill="#20334d" opacity="0.055" filter="url(#watercolor)"/><path d="M 200.2 423.0 L 209.2 477.2 L 147.3 500.0 L 86.4 495.9 L 14.8 481.8 L 22.0 423.0 L 24.9 370.0 L 75.1 322.2 L 158.1 319.3 L 190.6 379.7 Z" fill="#8f3151" opacity="0.073" filter="url(#watercolor)"/><path d="M 706.7 284.0 L 706.1 324.0 L 629.5 333.3 L 563.7 337.8 L 505.8 318.1 L 479.7 284.0 L 491.3 244.5 L 566.0 233.9 L 636.0 224.4 L 670.3 257.2 Z" fill="#d6a84b" opacity="0.091" filter="url(#watercolor)"/><path d="M 313.3 608.0 L 240.2 637.3 L 181.9 670.9 L 73.7 658.7 L -1.6 638.6 L -23.9 608.0 L -18.1 573.3 L 73.7 557.3 L 164.2 563.7 L 246.0 577.3 Z" fill="#6f8f83" opacity="0.109" filter="url(#watercolor)"/><rect x="48" y="105" width="624" height="845" rx="16" fill="url(#crosshatch)"/><circle cx="171" cy="864" r="1.6" fill="#372f2a" opacity="0.37"/><circle cx="549" cy="716" r="0.8" fill="#372f2a" opacity="0.38"/><circle cx="474" cy="908" r="0.8" fill="#372f2a" opacity="0.28"/><circle cx="299" cy="755" r="1.6" fill="#372f2a" opacity="0.20"/><circle cx="129" cy="306" r="0.8" fill="#372f2a" opacity="0.30"/><circle cx="327" cy="372" r="1.6" fill="#372f2a" opacity="0.39"/><circle cx="378" cy="904" r="2.2" fill="#372f2a" opacity="0.29"/><circle cx="523" cy="918" r="2.2" fill="#372f2a" opacity="0.20"/><circle cx="505" cy="573" r="1.6" fill="#372f2a" opacity="0.44"/><circle cx="171" cy="519" r="2.2" fill="#372f2a" opacity="0.12"/><circle cx="80" cy="273" r="1.6" fill="#372f2a" opacity="0.21"/><circle cx="603" cy="621" r="1.1" fill="#372f2a" opacity="0.36"/><circle cx="501" cy="475" r="1.1" fill="#372f2a" opacity="0.20"/><circle cx="319" cy="743" r="1.6" fill="#372f2a" opacity="0.21"/><circle cx="356" cy="423" r="1.6" fill="#372f2a" opacity="0.39"/><circle cx="464" cy="193" r="1.1" fill="#372f2a" opacity="0.28"/><circle cx="437" cy="743" r="1.6" fill="#372f2a" opacity="0.12"/><circle cx="282" cy="867" r="1.1" fill="#372f2a" opacity="0.16"/><circle cx="298" cy="413" r="1.6" fill="#372f2a" opacity="0.35"/><circle cx="215" cy="133" r="1.1" fill="#372f2a" opacity="0.27"/><circle cx="268" cy="158" r="1.6" fill="#372f2a" opacity="0.22"/><circle cx="86" cy="299" r="0.8" fill="#372f2a" opacity="0.20"/><circle cx="146" cy="354" r="1.1" fill="#372f2a" opacity="0.17"/><circle cx="218" cy="908" r="0.8" fill="#372f2a" opacity="0.16"/><circle cx="239" cy="472" r="1.1" fill="#372f2a" opacity="0.22"/><circle cx="610" cy="165" r="1.6" fill="#372f2a" opacity="0.38"/><circle cx="380" cy="323" r="2.2" fill="#372f2a" opacity="0.20"/><circle cx="598" cy="769" r="0.8" fill="#372f2a" opacity="0.31"/><circle cx="552" cy="641" r="1.1" fill="#372f2a" opacity="0.15"/><circle cx="469" cy="542" r="1.1" fill="#372f2a" opacity="0.21"/><circle cx="426" cy="535" r="2.2" fill="#372f2a" opacity="0.25"/><circle cx="632" cy="371" r="0.8" fill="#372f2a" opacity="0.13"/><circle cx="578" cy="374" r="1.6" fill="#372f2a" opacity="0.21"/><circle cx="514" cy="511" r="1.6" fill="#372f2a" opacity="0.24"/><circle cx="282" cy="501" r="1.1" fill="#372f2a" opacity="0.29"/><circle cx="533" cy="428" r="1.1" fill="#372f2a" opacity="0.38"/><circle cx="656" cy="294" r="2.2" fill="#372f2a" opacity="0.42"/><circle cx="91" cy="672" r="2.2" fill="#372f2a" opacity="0.26"/><circle cx="523" cy="637" r="1.6" fill="#372f2a" opacity="0.35"/><circle cx="335" cy="780" r="2.2" fill="#372f2a" opacity="0.40"/><circle cx="579" cy="907" r="1.1" fill="#372f2a" opacity="0.41"/><circle cx="526" cy="401" r="0.8" fill="#372f2a" opacity="0.37"/><circle cx="379" cy="175" r="0.8" fill="#372f2a" opacity="0.42"/><circle cx="211" cy="901" r="0.8" fill="#372f2a" opacity="0.40"/><circle cx="404" cy="528" r="1.6" fill="#372f2a" opacity="0.25"/><circle cx="362" cy="804" r="1.1" fill="#372f2a" opacity="0.28"/><circle cx="350" cy="673" r="1.6" fill="#372f2a" opacity="0.25"/><circle cx="165" cy="570" r="1.1" fill="#372f2a" opacity="0.20"/><circle cx="169" cy="488" r="1.1" fill="#372f2a" opacity="0.37"/><circle cx="80" cy="805" r="1.6" fill="#372f2a" opacity="0.22"/><circle cx="74" cy="163" r="0.8" fill="#372f2a" opacity="0.39"/><circle cx="550" cy="695" r="1.6" fill="#372f2a" opacity="0.35"/><circle cx="381" cy="873" r="0.8" fill="#372f2a" opacity="0.35"/><circle cx="522" cy="133" r="0.8" fill="#372f2a" opacity="0.23"/><circle cx="294" cy="267" r="1.6" fill="#372f2a" opacity="0.41"/><circle cx="630" cy="725" r="1.6" fill="#372f2a" opacity="0.32"/><circle cx="372" cy="477" r="1.1" fill="#372f2a" opacity="0.24"/><circle cx="189" cy="223" r="1.1" fill="#372f2a" opacity="0.35"/><circle cx="128" cy="521" r="0.8" fill="#372f2a" opacity="0.26"/><circle cx="419" cy="780" r="0.8" fill="#372f2a" opacity="0.18"/><circle cx="89" cy="345" r="1.1" fill="#372f2a" opacity="0.14"/><circle cx="515" cy="567" r="1.6" fill="#372f2a" opacity="0.37"/><circle cx="382" cy="277" r="1.1" fill="#372f2a" opacity="0.39"/><circle cx="306" cy="611" r="1.1" fill="#372f2a" opacity="0.33"/><circle cx="339" cy="767" r="2.2" fill="#372f2a" opacity="0.24"/><circle cx="520" cy="692" r="1.6" fill="#372f2a" opacity="0.24"/><circle cx="371" cy="192" r="1.6" fill="#372f2a" opacity="0.23"/><circle cx="440" cy="794" r="1.1" fill="#372f2a" opacity="0.27"/><circle cx="72" cy="602" r="2.2" fill="#372f2a" opacity="0.35"/><circle cx="368" cy="370" r="0.8" fill="#372f2a" opacity="0.42"/><circle cx="178" cy="165" r="1.1" fill="#372f2a" opacity="0.37"/><circle cx="491" cy="675" r="1.6" fill="#372f2a" opacity="0.27"/><circle cx="635" cy="826" r="1.1" fill="#372f2a" opacity="0.16"/><circle cx="413" cy="506" r="1.1" fill="#372f2a" opacity="0.38"/><circle cx="518" cy="651" r="1.1" fill="#372f2a" opacity="0.29"/><circle cx="141" cy="909" r="1.6" fill="#372f2a" opacity="0.28"/><circle cx="66" cy="510" r="1.1" fill="#372f2a" opacity="0.37"/><circle cx="320" cy="470" r="1.1" fill="#372f2a" opacity="0.43"/><circle cx="442" cy="670" r="1.1" fill="#372f2a" opacity="0.22"/><circle cx="221" cy="728" r="1.6" fill="#372f2a" opacity="0.24"/><circle cx="272" cy="187" r="1.1" fill="#372f2a" opacity="0.29"/><circle cx="629" cy="324" r="2.2" fill="#372f2a" opacity="0.26"/><circle cx="409" cy="254" r="1.6" fill="#372f2a" opacity="0.20"/><circle cx="339" cy="792" r="1.1" fill="#372f2a" opacity="0.14"/><circle cx="629" cy="768" r="2.2" fill="#372f2a" opacity="0.20"/><circle cx="656" cy="172" r="1.1" fill="#372f2a" opacity="0.33"/><circle cx="396" cy="397" r="1.6" fill="#372f2a" opacity="0.14"/><circle cx="405" cy="689" r="0.8" fill="#372f2a" opacity="0.29"/><circle cx="289" cy="837" r="2.2" fill="#372f2a" opacity="0.19"/><circle cx="595" cy="637" r="2.2" fill="#372f2a" opacity="0.42"/><circle cx="501" cy="415" r="2.2" fill="#372f2a" opacity="0.32"/><circle cx="191" cy="285" r="1.1" fill="#372f2a" opacity="0.42"/><circle cx="613" cy="618" r="1.6" fill="#372f2a" opacity="0.21"/><circle cx="106" cy="486" r="1.6" fill="#372f2a" opacity="0.44"/><circle cx="592" cy="868" r="0.8" fill="#372f2a" opacity="0.16"/><path d="M518 349l31 -11" stroke="#302a27" stroke-width="1.2" opacity=".18"/><path d="M212 664l32 17" stroke="#302a27" stroke-width="1.2" opacity=".18"/><path d="M134 267l24 12" stroke="#302a27" stroke-width="1.2" opacity=".18"/><path d="M295 284l55 3" stroke="#302a27" stroke-width="1.2" opacity=".18"/><path d="M153 589l61 -5" stroke="#302a27" stroke-width="1.2" opacity=".18"/><path d="M294 736l75 8" stroke="#302a27" stroke-width="1.2" opacity=".18"/><path d="M249 537l23 6" stroke="#302a27" stroke-width="1.2" opacity=".18"/><path d="M349 586l70 -14" stroke="#302a27" stroke-width="1.2" opacity=".18"/><path d="M617 738l61 14" stroke="#302a27" stroke-width="1.2" opacity=".18"/><path d="M489 602l40 5" stroke="#302a27" stroke-width="1.2" opacity=".18"/><path d="M620 699l32 18" stroke="#302a27" stroke-width="1.2" opacity=".18"/><path d="M430 716l51 -14" stroke="#302a27" stroke-width="1.2" opacity=".18"/><path d="M540 277l70 14" stroke="#302a27" stroke-width="1.2" opacity=".18"/><path d="M557 393l24 -16" stroke="#302a27" stroke-width="1.2" opacity=".18"/><path d="M602 790l32 15" stroke="#302a27" stroke-width="1.2" opacity=".18"/><path d="M568 694l45 -3" stroke="#302a27" stroke-width="1.2" opacity=".18"/><path d="M361 472l27 -1" stroke="#302a27" stroke-width="1.2" opacity=".18"/><path d="M277 243l77 9" stroke="#302a27" stroke-width="1.2" opacity=".18"/><path d="M231 182l21 12" stroke="#302a27" stroke-width="1.2" opacity=".18"/><path d="M438 274l39 14" stroke="#302a27" stroke-width="1.2" opacity=".18"/><path d="M580 864l50 -7" stroke="#302a27" stroke-width="1.2" opacity=".18"/><path d="M428 184l62 9" stroke="#302a27" stroke-width="1.2" opacity=".18"/><path d="M152 279l75 16" stroke="#302a27" stroke-width="1.2" opacity=".18"/><path d="M486 226l69 10" stroke="#302a27" stroke-width="1.2" opacity=".18"/><path d="M271 608l42 -9" stroke="#302a27" stroke-width="1.2" opacity=".18"/><path d="M498 191l41 -16" stroke="#302a27" stroke-width="1.2" opacity=".18"/><path d="M92 527l25 3" stroke="#302a27" stroke-width="1.2" opacity=".18"/><path d="M94 258l79 -3" stroke="#302a27" stroke-width="1.2" opacity=".18"/><path d="M196 439l38 1" stroke="#302a27" stroke-width="1.2" opacity=".18"/><path d="M556 359l55 -10" stroke="#302a27" stroke-width="1.2" opacity=".18"/><path d="M519 620l41 0" stroke="#302a27" stroke-width="1.2" opacity=".18"/><path d="M178 365l44 -9" stroke="#302a27" stroke-width="1.2" opacity=".18"/><path d="M117 547l27 -18" stroke="#302a27" stroke-width="1.2" opacity=".18"/><path d="M602 346l65 -6" stroke="#302a27" stroke-width="1.2" opacity=".18"/><path d="M261 709l38 4" stroke="#302a27" stroke-width="1.2" opacity=".18"/><path d="M132 635l80 8" stroke="#302a27" stroke-width="1.2" opacity=".18"/><path d="M470 730l31 2" stroke="#302a27" stroke-width="1.2" opacity=".18"/><path d="M293 206l36 12" stroke="#302a27" stroke-width="1.2" opacity=".18"/><path d="M611 620l22 -8" stroke="#302a27" stroke-width="1.2" opacity=".18"/><path d="M266 433l67 17" stroke="#302a27" stroke-width="1.2" opacity=".18"/><path d="M268 196l19 6" stroke="#302a27" stroke-width="1.2" opacity=".18"/><path d="M185 227l38 -3" stroke="#302a27" stroke-width="1.2" opacity=".18"/><rect x="20" y="20" width="680" height="1080" rx="26" fill="none" stroke="#2b2724" stroke-width="5" opacity="0.92" filter="url(#rough-ink)"/><rect x="25" y="28" width="664" height="1064" rx="23" fill="none" stroke="#2b2724" stroke-width="2" opacity="0.42" filter="url(#rough-ink)"/><rect x="40" y="43" width="634" height="1034" rx="18" fill="none" stroke="#2b2724" stroke-width="2.5" opacity="0.7" filter="url(#rough-ink)"/><path d="M72 130Q360 72 648 130M72 930Q360 973 648 930" fill="none" stroke="#d6a84b" stroke-width="3" opacity=".75" filter="url(#rough-ink)"/>
<g data-scene="star"><path d="M360 137l17.9 53.0h56.2l-45.2 32.8l17.2 54.6l-46.0-33.5l-46.0 33.5l17.2-54.6l-45.2-32.8h56.2Z" fill="#d6a84b" opacity=".62" stroke="#312923" stroke-width="3" filter="url(#rough-ink)"/><path d="M120 360l4.6 13.6h14.4l-11.6 8.4l4.4 14.0l-11.8-8.6l-11.8 8.6l4.4-14.0l-11.6-8.4h14.4Z" fill="#6f8f83" opacity=".62" stroke="#312923" stroke-width="3" filter="url(#rough-ink)"/><path d="M200 415l4.6 13.6h14.4l-11.6 8.4l4.4 14.0l-11.8-8.6l-11.8 8.6l4.4-14.0l-11.6-8.4h14.4Z" fill="#6f8f83" opacity=".62" stroke="#312923" stroke-width="3" filter="url(#rough-ink)"/><path d="M280 360l4.6 13.6h14.4l-11.6 8.4l4.4 14.0l-11.8-8.6l-11.8 8.6l4.4-14.0l-11.6-8.4h14.4Z" fill="#6f8f83" opacity=".62" stroke="#312923" stroke-width="3" filter="url(#rough-ink)"/><path d="M360 415l4.6 13.6h14.4l-11.6 8.4l4.4 14.0l-11.8-8.6l-11.8 8.6l4.4-14.0l-11.6-8.4h14.4Z" fill="#6f8f83" opacity=".62" stroke="#312923" stroke-width="3" filter="url(#rough-ink)"/><path d="M440 360l4.6 13.6h14.4l-11.6 8.4l4.4 14.0l-11.8-8.6l-11.8 8.6l4.4-14.0l-11.6-8.4h14.4Z" fill="#6f8f83" opacity=".62" stroke="#312923" stroke-width="3" filter="url(#rough-ink)"/><path d="M520 415l4.6 13.6h14.4l-11.6 8.4l4.4 14.0l-11.8-8.6l-11.8 8.6l4.4-14.0l-11.6-8.4h14.4Z" fill="#6f8f83" opacity=".62" stroke="#312923" stroke-width="3" filter="url(#rough-ink)"/><path d="M600 360l4.6 13.6h14.4l-11.6 8.4l4.4 14.0l-11.8-8.6l-11.8 8.6l4.4-14.0l-11.6-8.4h14.4Z" fill="#6f8f83" opacity=".62" stroke="#312923" stroke-width="3" filter="url(#rough-ink)"/><path d="M100 820Q260 720 360 810Q480 690 630 820" fill="none" stroke="#6f8f83" stroke-width="6" stroke-linecap="round" stroke-linejoin="round" opacity="1" filter="url(#rough-ink)"/><path d="M100 820Q260 720 360 810Q480 690 630 820" fill="none" stroke="#6f8f83" stroke-width="1.7" stroke-linecap="round" stroke-linejoin="round" opacity="0.45" transform="translate(2 -1)"/><g data-layer="hand-drawn-figure"><path d="M269 452 Q361 395 453 452 L503 820 Q361 870 219 820 Z" fill="#20334d" opacity=".52" stroke="#292622" stroke-width="6" filter="url(#rough-ink)"/><path d="M289 485 Q201 576 176 647" fill="none" stroke="#362d28" stroke-width="18" stroke-linecap="round" stroke-linejoin="round" opacity="1" filter="url(#rough-ink)"/><path d="M289 485 Q201 576 176 647" fill="none" stroke="#362d28" stroke-width="5.0" stroke-linecap="round" stroke-linejoin="round" opacity="0.45" transform="translate(2 -1)"/><path d="M433 485 Q519 536 541 652" fill="none" stroke="#362d28" stroke-width="18" stroke-linecap="round" stroke-linejoin="round" opacity="1" filter="url(#rough-ink)"/><path d="M433 485 Q519 536 541 652" fill="none" stroke="#362d28" stroke-width="5.0" stroke-linecap="round" stroke-linejoin="round" opacity="0.45" transform="translate(2 -1)"/><ellipse cx="361" cy="353" rx="69" ry="78" fill="#d3a67e" opacity=".82" stroke="#2e2824" stroke-width="5" filter="url(#rough-ink)"/><path d="M297 343Q307 258 361 269Q431 251 425 365" fill="none" stroke="#8f3151" stroke-width="24" opacity=".78" filter="url(#rough-ink)"/><path d="M330 356l17 2M375 358l17-2" stroke="#292522" stroke-width="7"/><path d="M342 393Q361 404 381 391" fill="none" stroke="#7c4e45" stroke-width="4"/><path d="M301 540Q361 590 421 540" fill="none" stroke="#d6a84b" stroke-width="7" stroke-linecap="round" stroke-linejoin="round" opacity="0.8" filter="url(#rough-ink)"/><path d="M301 540Q361 590 421 540" fill="none" stroke="#d6a84b" stroke-width="2.0" stroke-linecap="round" stroke-linejoin="round" opacity="0.36" transform="translate(2 -1)"/></g></g>
<rect x="78" y="942" width="564" height="118" rx="12" fill="#f4e8d4" opacity=".86" stroke="#302a27" stroke-width="4" filter="url(#rough-ink)"/>
<text x="360" y="995" text-anchor="middle" fill="#2d2926" font-family="Georgia,serif" font-size="31" font-weight="bold" letter-spacing="2">THE STAR</text>
<text x="360" y="1032" text-anchor="middle" fill="#20334d" font-family="Georgia,serif" font-size="15" letter-spacing="3">VISION</text>
<text x="360" y="84" text-anchor="middle" fill="#2e2925" font-family="Georgia,serif" font-size="30">XVII</text>
</svg>