<svg xmlns="http://www.w3.org/2000/svg" viewBox="0 0 720 1120" data-style="hand-drawn-ink-watercolor" data-card-id="card-three-of-cups">
<title>THREE OF CUPS — The Pilgrim's Ink Deck</title><desc>Original hand-drawn Tarot illustration with ink contours, watercolor washes, paper grain, and symbolic imagery.</desc>
<defs>
<filter id="paper-grain" x="-10%" y="-10%" width="120%" height="120%"><feTurbulence type="fractalNoise" baseFrequency=".72" numOctaves="4" seed="49" result="noise"/><feColorMatrix in="noise" values=".18 0 0 0 .72  0 .14 0 0 .66  0 0 .1 0 .54  0 0 0 .22 0"/><feBlend in="SourceGraphic" mode="multiply"/></filter>
<filter id="rough-ink" x="-8%" y="-8%" width="116%" height="116%"><feTurbulence type="turbulence" baseFrequency=".012 .055" numOctaves="2" seed="80" result="wobble"/><feDisplacementMap in="SourceGraphic" in2="wobble" scale="3.8" xChannelSelector="R" yChannelSelector="G"/></filter>
<filter id="watercolor" x="-20%" y="-20%" width="140%" height="140%"><feTurbulence type="fractalNoise" baseFrequency=".018" numOctaves="3" seed="17" result="wet"/><feDisplacementMap in="SourceGraphic" in2="wet" scale="18"/><feGaussianBlur stdDeviation="2.2"/></filter>
<linearGradient id="ink-wash" x1="0" y1="0" x2="1" y2="1"><stop stop-color="#244b70" stop-opacity=".66"/><stop offset=".52" stop-color="#d3b46f" stop-opacity=".32"/><stop offset="1" stop-color="#4d7f94" stop-opacity=".62"/></linearGradient>
<radialGradient id="gold-bloom"><stop stop-color="#a66f83" stop-opacity=".7"/><stop offset="1" stop-color="#a66f83" stop-opacity="0"/></radialGradient>
<pattern id="crosshatch" width="18" height="18" patternUnits="userSpaceOnUse"><path d="M-3 18L18-3M4 22L22 4" stroke="#392f2a" stroke-width="1" opacity=".12"/></pattern>
</defs>
<rect width="720" height="1120" rx="38" fill="#efe2c8"/><rect x="12" y="12" width="696" height="1096" rx="32" fill="#f3e7cf" filter="url(#paper-grain)"/>
<path d="M 517.0 262.0 L 448.5 332.8 L 391.2 412.0 L 268.2 434.4 L 176.4 359.5 L 114.7 262.0 L 171.3 161.4 L 289.8 146.3 L 377.0 149.3 L 510.6 152.7 Z" fill="#244b70" opacity="0.055" filter="url(#watercolor)"/><path d="M 625.7 584.0 L 588.3 616.6 L 540.2 654.4 L 452.5 636.6 L 355.7 628.5 L 361.6 584.0 L 354.2 539.0 L 441.2 515.6 L 530.6 527.0 L 594.4 549.4 Z" fill="#4d7f94" opacity="0.073" filter="url(#watercolor)"/><path d="M 674.4 160.0 L 639.4 240.6 L 563.7 288.7 L 463.0 314.9 L 415.2 228.3 L 382.8 160.0 L 380.9 68.9 L 456.4 -13.4 L 571.4 9.6 L 660.6 65.3 Z" fill="#a66f83" opacity="0.091" filter="url(#watercolor)"/><path d="M 421.3 261.0 L 392.4 297.4 L 342.0 323.1 L 274.8 321.7 L 211.1 302.8 L 209.7 261.0 L 214.3 220.5 L 277.9 205.9 L 345.7 192.0 L 404.8 219.2 Z" fill="#d3b46f" opacity="0.109" filter="url(#watercolor)"/><path d="M 455.6 242.0 L 441.1 283.6 L 381.0 318.4 L 300.1 300.0 L 248.7 275.9 L 221.6 242.0 L 233.5 202.2 L 302.6 188.1 L 381.2 165.3 L 444.9 198.9 Z" fill="#244b70" opacity="0.055" filter="url(#watercolor)"/><path d="M 302.9 850.0 L 267.9 933.2 L 209.7 1014.0 L 108.7 1012.8 L 61.6 924.4 L 20.2 850.0 L 54.9 770.5 L 108.0 684.9 L 197.7 724.9 L 285.1 753.7 Z" fill="#4d7f94" opacity="0.073" filter="url(#watercolor)"/><path d="M 546.6 543.0 L 528.0 600.9 L 477.2 641.6 L 414.9 624.1 L 379.2 586.4 L 344.3 543.0 L 378.1 498.9 L 411.7 452.9 L 477.8 442.6 L 532.8 481.9 Z" fill="#a66f83" opacity="0.091" filter="url(#watercolor)"/><path d="M 684.0 220.0 L 655.5 298.1 L 596.4 354.5 L 513.1 362.9 L 441.9 309.6 L 416.4 220.0 L 418.0 111.6 L 503.5 45.3 L 611.5 35.4 L 654.5 142.7 Z" fill="#d3b46f" opacity="0.109" filter="url(#watercolor)"/><path d="M 173.5 810.0 L 151.2 880.6 L 120.8 952.9 L 66.1 948.5 L 28.6 888.1 L -6.6 810.0 L 35.4 740.1 L 65.5 668.6 L 115.8 692.9 L 147.8 743.5 Z" fill="#244b70" opacity="0.055" filter="url(#watercolor)"/><path d="M 545.1 308.0 L 552.7 398.4 L 507.8 416.8 L 464.1 466.3 L 442.7 376.2 L 431.5 308.0 L 446.9 245.8 L 467.6 171.3 L 509.4 189.5 L 537.2 239.9 Z" fill="#4d7f94" opacity="0.073" filter="url(#watercolor)"/><path d="M 320.6 251.0 L 278.2 317.3 L 241.6 380.9 L 184.7 354.9 L 140.4 318.6 L 99.4 251.0 L 142.9 185.8 L 180.0 127.4 L 238.1 135.5 L 293.7 169.7 Z" fill="#a66f83" opacity="0.091" filter="url(#watercolor)"/><path d="M 642.5 713.0 L 599.3 786.4 L 511.6 804.6 L 425.9 835.7 L 368.4 776.0 L 326.1 713.0 L 325.5 624.7 L 424.5 586.6 L 516.6 608.9 L 622.5 625.9 Z" fill="#d3b46f" opacity="0.109" filter="url(#watercolor)"/><rect x="48" y="105" width="624" height="845" rx="16" fill="url(#crosshatch)"/><circle cx="219" cy="269" r="1.1" fill="#372f2a" opacity="0.33"/><circle cx="299" cy="765" r="1.1" fill="#372f2a" opacity="0.41"/><circle cx="146" cy="248" r="2.2" fill="#372f2a" opacity="0.45"/><circle cx="65" cy="514" r="1.6" fill="#372f2a" opacity="0.31"/><circle cx="129" cy="243" r="2.2" fill="#372f2a" opacity="0.22"/><circle cx="314" cy="487" r="1.6" fill="#372f2a" opacity="0.28"/><circle cx="305" cy="134" r="1.1" fill="#372f2a" opacity="0.24"/><circle cx="434" cy="410" r="0.8" fill="#372f2a" opacity="0.35"/><circle cx="68" cy="687" r="1.6" fill="#372f2a" opacity="0.21"/><circle cx="397" cy="757" r="1.1" fill="#372f2a" opacity="0.24"/><circle cx="397" cy="476" r="1.1" fill="#372f2a" opacity="0.31"/><circle cx="551" cy="133" r="2.2" fill="#372f2a" opacity="0.29"/><circle cx="509" cy="632" r="2.2" fill="#372f2a" opacity="0.36"/><circle cx="170" cy="661" r="2.2" fill="#372f2a" opacity="0.37"/><circle cx="532" cy="786" r="2.2" fill="#372f2a" opacity="0.25"/><circle cx="205" cy="728" r="2.2" fill="#372f2a" opacity="0.24"/><circle cx="502" cy="532" r="1.6" fill="#372f2a" opacity="0.31"/><circle cx="611" cy="440" r="0.8" fill="#372f2a" opacity="0.28"/><circle cx="155" cy="425" r="1.1" fill="#372f2a" opacity="0.43"/><circle cx="624" cy="328" r="1.1" fill="#372f2a" opacity="0.42"/><circle cx="137" cy="208" r="0.8" fill="#372f2a" opacity="0.35"/><circle cx="467" cy="814" r="1.6" fill="#372f2a" opacity="0.36"/><circle cx="514" cy="217" r="1.1" fill="#372f2a" opacity="0.23"/><circle cx="441" cy="680" r="2.2" fill="#372f2a" opacity="0.43"/><circle cx="553" cy="573" r="1.6" fill="#372f2a" opacity="0.13"/><circle cx="162" cy="872" r="2.2" fill="#372f2a" opacity="0.31"/><circle cx="541" cy="292" r="1.6" fill="#372f2a" opacity="0.37"/><circle cx="112" cy="311" r="1.1" fill="#372f2a" opacity="0.31"/><circle cx="95" cy="888" r="0.8" fill="#372f2a" opacity="0.14"/><circle cx="344" cy="787" r="0.8" fill="#372f2a" opacity="0.23"/><circle cx="451" cy="585" r="2.2" fill="#372f2a" opacity="0.30"/><circle cx="159" cy="149" r="2.2" fill="#372f2a" opacity="0.32"/><circle cx="607" cy="414" r="0.8" fill="#372f2a" opacity="0.23"/><circle cx="324" cy="148" r="2.2" fill="#372f2a" opacity="0.42"/><circle cx="204" cy="765" r="1.1" fill="#372f2a" opacity="0.27"/><circle cx="577" cy="692" r="1.6" fill="#372f2a" opacity="0.19"/><circle cx="312" cy="276" r="0.8" fill="#372f2a" opacity="0.21"/><circle cx="312" cy="826" r="0.8" fill="#372f2a" opacity="0.41"/><circle cx="314" cy="188" r="1.1" fill="#372f2a" opacity="0.20"/><circle cx="206" cy="786" r="1.6" fill="#372f2a" opacity="0.17"/><circle cx="67" cy="581" r="0.8" fill="#372f2a" opacity="0.25"/><circle cx="642" cy="350" r="1.1" fill="#372f2a" opacity="0.42"/><circle cx="447" cy="415" r="2.2" fill="#372f2a" opacity="0.16"/><circle cx="597" cy="804" r="0.8" fill="#372f2a" opacity="0.36"/><circle cx="142" cy="192" r="0.8" fill="#372f2a" opacity="0.20"/><circle cx="382" cy="291" r="2.2" fill="#372f2a" opacity="0.16"/><circle cx="263" cy="289" r="0.8" fill="#372f2a" opacity="0.34"/><circle cx="628" cy="312" r="2.2" fill="#372f2a" opacity="0.35"/><circle cx="576" cy="863" r="1.1" fill="#372f2a" opacity="0.14"/><circle cx="579" cy="750" r="0.8" fill="#372f2a" opacity="0.18"/><circle cx="355" cy="835" r="2.2" fill="#372f2a" opacity="0.19"/><circle cx="129" cy="584" r="0.8" fill="#372f2a" opacity="0.28"/><circle cx="118" cy="279" r="0.8" fill="#372f2a" opacity="0.37"/><circle cx="171" cy="335" r="1.1" fill="#372f2a" opacity="0.16"/><circle cx="156" cy="713" r="1.1" fill="#372f2a" opacity="0.33"/><circle cx="300" cy="255" r="2.2" fill="#372f2a" opacity="0.18"/><circle cx="649" cy="529" r="2.2" fill="#372f2a" opacity="0.19"/><circle cx="323" cy="523" r="2.2" fill="#372f2a" opacity="0.26"/><circle cx="205" cy="568" r="0.8" fill="#372f2a" opacity="0.40"/><circle cx="434" cy="587" r="0.8" fill="#372f2a" opacity="0.32"/><circle cx="130" cy="477" r="0.8" fill="#372f2a" opacity="0.41"/><circle cx="599" cy="239" r="1.1" fill="#372f2a" opacity="0.16"/><circle cx="111" cy="900" r="1.6" fill="#372f2a" opacity="0.21"/><circle cx="140" cy="347" r="1.6" fill="#372f2a" opacity="0.31"/><circle cx="226" cy="311" r="1.6" fill="#372f2a" opacity="0.16"/><circle cx="442" cy="491" r="0.8" fill="#372f2a" opacity="0.41"/><circle cx="499" cy="145" r="2.2" fill="#372f2a" opacity="0.44"/><circle cx="384" cy="173" r="1.6" fill="#372f2a" opacity="0.28"/><circle cx="261" cy="462" r="0.8" fill="#372f2a" opacity="0.17"/><circle cx="130" cy="544" r="0.8" fill="#372f2a" opacity="0.39"/><circle cx="363" cy="590" r="2.2" fill="#372f2a" opacity="0.40"/><circle cx="98" cy="680" r="0.8" fill="#372f2a" opacity="0.39"/><circle cx="124" cy="578" r="0.8" fill="#372f2a" opacity="0.21"/><circle cx="407" cy="477" r="0.8" fill="#372f2a" opacity="0.27"/><circle cx="97" cy="785" r="1.6" fill="#372f2a" opacity="0.38"/><circle cx="461" cy="518" r="2.2" fill="#372f2a" opacity="0.13"/><circle cx="281" cy="466" r="1.6" fill="#372f2a" opacity="0.42"/><circle cx="229" cy="539" r="0.8" fill="#372f2a" opacity="0.15"/><circle cx="323" cy="905" r="0.8" fill="#372f2a" opacity="0.30"/><circle cx="82" cy="829" r="0.8" fill="#372f2a" opacity="0.23"/><circle cx="235" cy="514" r="0.8" fill="#372f2a" opacity="0.24"/><circle cx="628" cy="349" r="1.6" fill="#372f2a" opacity="0.40"/><circle cx="361" cy="349" r="1.6" fill="#372f2a" opacity="0.34"/><circle cx="298" cy="252" r="1.1" fill="#372f2a" opacity="0.15"/><circle cx="618" cy="926" r="2.2" fill="#372f2a" opacity="0.42"/><circle cx="612" cy="223" r="1.6" fill="#372f2a" opacity="0.21"/><circle cx="430" cy="498" r="1.1" fill="#372f2a" opacity="0.43"/><circle cx="512" cy="176" r="2.2" fill="#372f2a" opacity="0.13"/><circle cx="227" cy="213" r="1.6" fill="#372f2a" opacity="0.12"/><circle cx="141" cy="130" r="1.1" fill="#372f2a" opacity="0.17"/><circle cx="374" cy="534" r="1.6" fill="#372f2a" opacity="0.20"/><circle cx="549" cy="908" r="1.1" fill="#372f2a" opacity="0.25"/><circle cx="530" cy="731" r="1.6" fill="#372f2a" opacity="0.25"/><circle cx="552" cy="332" r="0.8" fill="#372f2a" opacity="0.36"/><circle cx="520" cy="909" r="2.2" fill="#372f2a" opacity="0.43"/><path d="M593 616l63 15" stroke="#302a27" stroke-width="1.2" opacity=".18"/><path d="M81 828l52 -9" stroke="#302a27" stroke-width="1.2" opacity=".18"/><path d="M373 294l36 -9" stroke="#302a27" stroke-width="1.2" opacity=".18"/><path d="M406 761l40 18" stroke="#302a27" stroke-width="1.2" opacity=".18"/><path d="M121 409l58 6" stroke="#302a27" stroke-width="1.2" opacity=".18"/><path d="M543 293l45 -12" stroke="#302a27" stroke-width="1.2" opacity=".18"/><path d="M620 829l43 -15" stroke="#302a27" stroke-width="1.2" opacity=".18"/><path d="M218 385l79 5" stroke="#302a27" stroke-width="1.2" opacity=".18"/><path d="M579 518l44 -10" stroke="#302a27" stroke-width="1.2" opacity=".18"/><path d="M367 274l24 -14" stroke="#302a27" stroke-width="1.2" opacity=".18"/><path d="M502 767l37 -4" stroke="#302a27" stroke-width="1.2" opacity=".18"/><path d="M196 634l41 2" stroke="#302a27" stroke-width="1.2" opacity=".18"/><path d="M162 510l18 -3" stroke="#302a27" stroke-width="1.2" opacity=".18"/><path d="M324 611l68 -9" stroke="#302a27" stroke-width="1.2" opacity=".18"/><path d="M151 532l61 -10" stroke="#302a27" stroke-width="1.2" opacity=".18"/><path d="M169 710l41 -5" stroke="#302a27" stroke-width="1.2" opacity=".18"/><path d="M386 791l28 11" stroke="#302a27" stroke-width="1.2" opacity=".18"/><path d="M543 782l57 7" stroke="#302a27" stroke-width="1.2" opacity=".18"/><path d="M145 735l63 -10" stroke="#302a27" stroke-width="1.2" opacity=".18"/><path d="M422 335l65 9" stroke="#302a27" stroke-width="1.2" opacity=".18"/><path d="M401 788l18 0" stroke="#302a27" stroke-width="1.2" opacity=".18"/><path d="M166 567l62 0" stroke="#302a27" stroke-width="1.2" opacity=".18"/><path d="M407 357l27 4" stroke="#302a27" stroke-width="1.2" opacity=".18"/><path d="M484 607l63 -14" stroke="#302a27" stroke-width="1.2" opacity=".18"/><path d="M222 438l26 -12" stroke="#302a27" stroke-width="1.2" opacity=".18"/><path d="M471 722l20 -1" stroke="#302a27" stroke-width="1.2" opacity=".18"/><path d="M322 387l22 -8" stroke="#302a27" stroke-width="1.2" opacity=".18"/><path d="M354 289l73 -12" stroke="#302a27" stroke-width="1.2" opacity=".18"/><path d="M219 650l52 5" stroke="#302a27" stroke-width="1.2" opacity=".18"/><path d="M181 446l40 8" stroke="#302a27" stroke-width="1.2" opacity=".18"/><path d="M498 514l64 7" stroke="#302a27" stroke-width="1.2" opacity=".18"/><path d="M380 251l43 -1" stroke="#302a27" stroke-width="1.2" opacity=".18"/><path d="M288 270l57 4" stroke="#302a27" stroke-width="1.2" opacity=".18"/><path d="M459 346l45 -15" stroke="#302a27" stroke-width="1.2" opacity=".18"/><path d="M80 856l25 -15" stroke="#302a27" stroke-width="1.2" opacity=".18"/><path d="M609 504l29 1" stroke="#302a27" stroke-width="1.2" opacity=".18"/><path d="M412 795l43 10" stroke="#302a27" stroke-width="1.2" opacity=".18"/><path d="M481 697l79 17" stroke="#302a27" stroke-width="1.2" opacity=".18"/><path d="M166 313l34 -7" stroke="#302a27" stroke-width="1.2" opacity=".18"/><path d="M436 664l42 13" stroke="#302a27" stroke-width="1.2" opacity=".18"/><path d="M393 252l56 -14" stroke="#302a27" stroke-width="1.2" opacity=".18"/><path d="M187 784l27 -3" stroke="#302a27" stroke-width="1.2" opacity=".18"/><rect x="18" y="20" width="680" height="1080" rx="26" fill="none" stroke="#2b2724" stroke-width="5" opacity="0.92" filter="url(#rough-ink)"/><rect x="25" y="28" width="664" height="1064" rx="23" fill="none" stroke="#2b2724" stroke-width="2" opacity="0.42" filter="url(#rough-ink)"/><rect x="44" y="43" width="634" height="1034" rx="18" fill="none" stroke="#2b2724" stroke-width="2.5" opacity="0.7" filter="url(#rough-ink)"/><path d="M72 130Q360 71 648 130M72 930Q360 977 648 930" fill="none" stroke="#a66f83" stroke-width="3" opacity=".75" filter="url(#rough-ink)"/>
<g data-scene="three-of-cups"><path d="M158.9 377.0Q195.0 437.2 231.1 377.0L220.8 358.1H169.2Z" fill="#244b70" opacity=".35" stroke="#302824" stroke-width="4.3" filter="url(#rough-ink)"/><path d="M195.0 428.6V480.2M170.9 480.2H219.1" fill="none" stroke="#a66f83" stroke-width="4.3" stroke-linecap="round" stroke-linejoin="round" opacity="1" filter="url(#rough-ink)"/><path d="M195.0 428.6V480.2M170.9 480.2H219.1" fill="none" stroke="#a66f83" stroke-width="1.2" stroke-linecap="round" stroke-linejoin="round" opacity="0.45" transform="translate(2 -1)"/><path d="M323.9 377.0Q360.0 437.2 396.1 377.0L385.8 358.1H334.2Z" fill="#244b70" opacity=".35" stroke="#302824" stroke-width="4.3" filter="url(#rough-ink)"/><path d="M360.0 428.6V480.2M335.9 480.2H384.1" fill="none" stroke="#a66f83" stroke-width="4.3" stroke-linecap="round" stroke-linejoin="round" opacity="1" filter="url(#rough-ink)"/><path d="M360.0 428.6V480.2M335.9 480.2H384.1" fill="none" stroke="#a66f83" stroke-width="1.2" stroke-linecap="round" stroke-linejoin="round" opacity="0.45" transform="translate(2 -1)"/><path d="M488.9 377.0Q525.0 437.2 561.1 377.0L550.8 358.1H499.2Z" fill="#244b70" opacity=".35" stroke="#302824" stroke-width="4.3" filter="url(#rough-ink)"/><path d="M525.0 428.6V480.2M500.9 480.2H549.1" fill="none" stroke="#a66f83" stroke-width="4.3" stroke-linecap="round" stroke-linejoin="round" opacity="1" filter="url(#rough-ink)"/><path d="M525.0 428.6V480.2M500.9 480.2H549.1" fill="none" stroke="#a66f83" stroke-width="1.2" stroke-linecap="round" stroke-linejoin="round" opacity="0.45" transform="translate(2 -1)"/><g data-layer="hand-drawn-figure"><path d="M293 452 Q385 395 477 452 L527 820 Q385 870 243 820 Z" fill="#244b70" opacity=".52" stroke="#292622" stroke-width="6" filter="url(#rough-ink)"/><path d="M313 485 Q220 584 200 638" fill="none" stroke="#362d28" stroke-width="18" stroke-linecap="round" stroke-linejoin="round" opacity="1" filter="url(#rough-ink)"/><path d="M313 485 Q220 584 200 638" fill="none" stroke="#362d28" stroke-width="5.0" stroke-linecap="round" stroke-linejoin="round" opacity="0.45" transform="translate(2 -1)"/><path d="M457 485 Q547 529 565 658" fill="none" stroke="#362d28" stroke-width="18" stroke-linecap="round" stroke-linejoin="round" opacity="1" filter="url(#rough-ink)"/><path d="M457 485 Q547 529 565 658" fill="none" stroke="#362d28" stroke-width="5.0" stroke-linecap="round" stroke-linejoin="round" opacity="0.45" transform="translate(2 -1)"/><ellipse cx="385" cy="344" rx="69" ry="78" fill="#d3a67e" opacity=".82" stroke="#2e2824" stroke-width="5" filter="url(#rough-ink)"/><path d="M321 334Q331 249 385 260Q455 242 449 356" fill="none" stroke="#4d7f94" stroke-width="24" opacity=".78" filter="url(#rough-ink)"/><path d="M354 347l17 2M399 349l17-2" stroke="#292522" stroke-width="7"/><path d="M366 384Q385 395 405 382" fill="none" stroke="#7c4e45" stroke-width="4"/><path d="M325 540Q385 590 445 540" fill="none" stroke="#a66f83" stroke-width="7" stroke-linecap="round" stroke-linejoin="round" opacity="0.8" filter="url(#rough-ink)"/><path d="M325 540Q385 590 445 540" fill="none" stroke="#a66f83" stroke-width="2.0" stroke-linecap="round" stroke-linejoin="round" opacity="0.36" transform="translate(2 -1)"/></g></g>
<rect x="78" y="942" width="564" height="118" rx="12" fill="#f4e8d4" opacity=".86" stroke="#302a27" stroke-width="4" filter="url(#rough-ink)"/>
<text x="360" y="995" text-anchor="middle" fill="#2d2926" font-family="Georgia,serif" font-size="31" font-weight="bold" letter-spacing="2">THREE OF CUPS</text>
<text x="360" y="1032" text-anchor="middle" fill="#244b70" font-family="Georgia,serif" font-size="15" letter-spacing="3">COLLABORATION CUPS</text>
<text x="360" y="84" text-anchor="middle" fill="#2e2925" font-family="Georgia,serif" font-size="30">♢</text>
</svg>