<svg xmlns="http://www.w3.org/2000/svg" viewBox="0 0 720 1120" data-style="hand-drawn-ink-watercolor" data-card-id="card-world">
<title>THE WORLD — The Pilgrim's Ink Deck</title><desc>Original hand-drawn Tarot illustration with ink contours, watercolor washes, paper grain, and symbolic imagery.</desc>
<defs>
<filter id="paper-grain" x="-10%" y="-10%" width="120%" height="120%"><feTurbulence type="fractalNoise" baseFrequency=".72" numOctaves="4" seed="88" result="noise"/><feColorMatrix in="noise" values=".18 0 0 0 .72  0 .14 0 0 .66  0 0 .1 0 .54  0 0 0 .22 0"/><feBlend in="SourceGraphic" mode="multiply"/></filter>
<filter id="rough-ink" x="-8%" y="-8%" width="116%" height="116%"><feTurbulence type="turbulence" baseFrequency=".012 .055" numOctaves="2" seed="67" result="wobble"/><feDisplacementMap in="SourceGraphic" in2="wobble" scale="3.8" xChannelSelector="R" yChannelSelector="G"/></filter>
<filter id="watercolor" x="-20%" y="-20%" width="140%" height="140%"><feTurbulence type="fractalNoise" baseFrequency=".018" numOctaves="3" seed="29" result="wet"/><feDisplacementMap in="SourceGraphic" in2="wet" scale="18"/><feGaussianBlur stdDeviation="2.2"/></filter>
<linearGradient id="ink-wash" x1="0" y1="0" x2="1" y2="1"><stop stop-color="#20334d" stop-opacity=".66"/><stop offset=".52" stop-color="#6f8f83" stop-opacity=".32"/><stop offset="1" stop-color="#8f3151" stop-opacity=".62"/></linearGradient>
<radialGradient id="gold-bloom"><stop stop-color="#d6a84b" stop-opacity=".7"/><stop offset="1" stop-color="#d6a84b" stop-opacity="0"/></radialGradient>
<pattern id="crosshatch" width="18" height="18" patternUnits="userSpaceOnUse"><path d="M-3 18L18-3M4 22L22 4" stroke="#392f2a" stroke-width="1" opacity=".12"/></pattern>
</defs>
<rect width="720" height="1120" rx="38" fill="#efe2c8"/><rect x="12" y="12" width="696" height="1096" rx="32" fill="#f3e7cf" filter="url(#paper-grain)"/>
<path d="M 487.1 382.0 L 412.5 456.4 L 357.1 506.4 L 279.5 524.7 L 226.9 458.4 L 171.6 382.0 L 205.2 287.9 L 287.0 265.0 L 357.1 257.8 L 406.9 312.2 Z" fill="#20334d" opacity="0.055" filter="url(#watercolor)"/><path d="M 468.8 345.0 L 409.1 397.7 L 338.0 436.0 L 230.3 454.0 L 145.5 407.9 L 102.2 345.0 L 141.2 280.2 L 236.5 247.4 L 340.9 248.5 L 401.6 295.6 Z" fill="#8f3151" opacity="0.073" filter="url(#watercolor)"/><path d="M 381.3 715.0 L 367.2 768.1 L 276.4 787.6 L 197.3 774.7 L 136.7 753.1 L 89.8 715.0 L 131.6 674.9 L 188.1 639.9 L 275.2 644.3 L 317.0 681.8 Z" fill="#d6a84b" opacity="0.091" filter="url(#watercolor)"/><path d="M 409.2 158.0 L 359.5 198.9 L 305.3 225.2 L 236.9 224.8 L 181.5 199.3 L 171.8 158.0 L 176.3 114.3 L 232.4 82.6 L 315.9 70.2 L 357.2 118.2 Z" fill="#6f8f83" opacity="0.109" filter="url(#watercolor)"/><path d="M 550.1 771.0 L 493.7 864.6 L 386.5 904.5 L 264.9 935.4 L 203.2 845.5 L 119.4 771.0 L 215.0 703.3 L 286.7 660.0 L 393.7 619.7 L 448.6 703.5 Z" fill="#20334d" opacity="0.055" filter="url(#watercolor)"/><path d="M 394.9 405.0 L 381.0 480.8 L 270.6 518.7 L 152.5 513.0 L 84.7 460.5 L -11.5 405.0 L 59.7 338.4 L 140.7 274.8 L 253.5 323.4 L 357.1 339.8 Z" fill="#8f3151" opacity="0.073" filter="url(#watercolor)"/><path d="M 320.6 749.0 L 286.3 805.8 L 186.1 842.0 L 65.1 834.4 L -35.6 804.2 L -83.9 749.0 L -46.2 690.1 L 68.2 668.2 L 171.4 677.7 L 278.1 695.0 Z" fill="#d6a84b" opacity="0.091" filter="url(#watercolor)"/><path d="M 399.0 431.0 L 363.1 513.0 L 268.9 549.8 L 181.9 523.4 L 79.6 511.5 L 29.8 431.0 L 59.1 338.8 L 168.2 305.3 L 271.3 306.5 L 350.4 356.3 Z" fill="#6f8f83" opacity="0.109" filter="url(#watercolor)"/><path d="M 474.7 577.0 L 454.9 638.1 L 374.5 663.7 L 290.3 670.7 L 251.3 618.8 L 193.4 577.0 L 242.5 530.7 L 298.0 499.9 L 373.8 491.7 L 414.0 536.6 Z" fill="#20334d" opacity="0.055" filter="url(#watercolor)"/><path d="M 628.4 655.0 L 610.5 726.5 L 589.4 828.8 L 536.8 803.2 L 489.5 758.2 L 499.9 655.0 L 496.9 562.4 L 532.3 479.7 L 588.9 484.1 L 616.4 575.0 Z" fill="#8f3151" opacity="0.073" filter="url(#watercolor)"/><path d="M 713.9 714.0 L 685.1 756.2 L 633.1 790.7 L 557.8 785.0 L 502.1 756.6 L 474.8 714.0 L 475.2 659.0 L 550.5 628.8 L 631.1 641.3 L 725.6 653.1 Z" fill="#d6a84b" opacity="0.091" filter="url(#watercolor)"/><path d="M 750.5 292.0 L 726.1 332.4 L 659.3 367.9 L 563.4 352.7 L 458.7 341.5 L 444.3 292.0 L 469.1 245.9 L 559.6 225.9 L 657.7 218.3 L 707.0 258.0 Z" fill="#6f8f83" opacity="0.109" filter="url(#watercolor)"/><rect x="48" y="105" width="624" height="845" rx="16" fill="url(#crosshatch)"/><circle cx="451" cy="741" r="0.8" fill="#372f2a" opacity="0.21"/><circle cx="288" cy="164" r="1.6" fill="#372f2a" opacity="0.43"/><circle cx="324" cy="736" r="2.2" fill="#372f2a" opacity="0.22"/><circle cx="612" cy="402" r="1.6" fill="#372f2a" opacity="0.44"/><circle cx="155" cy="529" r="1.6" fill="#372f2a" opacity="0.34"/><circle cx="277" cy="146" r="1.6" fill="#372f2a" opacity="0.35"/><circle cx="483" cy="372" r="1.6" fill="#372f2a" opacity="0.43"/><circle cx="170" cy="122" r="2.2" fill="#372f2a" opacity="0.20"/><circle cx="460" cy="138" r="0.8" fill="#372f2a" opacity="0.15"/><circle cx="201" cy="222" r="0.8" fill="#372f2a" opacity="0.35"/><circle cx="105" cy="516" r="0.8" fill="#372f2a" opacity="0.17"/><circle cx="534" cy="401" r="1.6" fill="#372f2a" opacity="0.44"/><circle cx="72" cy="797" r="2.2" fill="#372f2a" opacity="0.36"/><circle cx="579" cy="805" r="2.2" fill="#372f2a" opacity="0.19"/><circle cx="559" cy="888" r="2.2" fill="#372f2a" opacity="0.34"/><circle cx="569" cy="331" r="2.2" fill="#372f2a" opacity="0.20"/><circle cx="407" cy="856" r="0.8" fill="#372f2a" opacity="0.19"/><circle cx="92" cy="575" r="1.1" fill="#372f2a" opacity="0.22"/><circle cx="478" cy="290" r="2.2" fill="#372f2a" opacity="0.40"/><circle cx="236" cy="585" r="1.6" fill="#372f2a" opacity="0.43"/><circle cx="371" cy="285" r="0.8" fill="#372f2a" opacity="0.19"/><circle cx="481" cy="274" r="0.8" fill="#372f2a" opacity="0.24"/><circle cx="119" cy="898" r="0.8" fill="#372f2a" opacity="0.28"/><circle cx="605" cy="695" r="2.2" fill="#372f2a" opacity="0.44"/><circle cx="387" cy="676" r="1.6" fill="#372f2a" opacity="0.30"/><circle cx="68" cy="537" r="0.8" fill="#372f2a" opacity="0.42"/><circle cx="194" cy="298" r="2.2" fill="#372f2a" opacity="0.39"/><circle cx="510" cy="359" r="0.8" fill="#372f2a" opacity="0.38"/><circle cx="320" cy="310" r="0.8" fill="#372f2a" opacity="0.17"/><circle cx="431" cy="844" r="1.1" fill="#372f2a" opacity="0.22"/><circle cx="314" cy="134" r="1.6" fill="#372f2a" opacity="0.28"/><circle cx="562" cy="583" r="2.2" fill="#372f2a" opacity="0.34"/><circle cx="653" cy="706" r="2.2" fill="#372f2a" opacity="0.32"/><circle cx="145" cy="571" r="0.8" fill="#372f2a" opacity="0.13"/><circle cx="196" cy="675" r="0.8" fill="#372f2a" opacity="0.16"/><circle cx="87" cy="266" r="2.2" fill="#372f2a" opacity="0.17"/><circle cx="530" cy="927" r="2.2" fill="#372f2a" opacity="0.28"/><circle cx="480" cy="684" r="0.8" fill="#372f2a" opacity="0.29"/><circle cx="438" cy="169" r="1.1" fill="#372f2a" opacity="0.39"/><circle cx="136" cy="434" r="1.6" fill="#372f2a" opacity="0.27"/><circle cx="117" cy="326" r="1.6" fill="#372f2a" opacity="0.35"/><circle cx="282" cy="480" r="0.8" fill="#372f2a" opacity="0.36"/><circle cx="566" cy="498" r="1.6" fill="#372f2a" opacity="0.35"/><circle cx="145" cy="477" r="1.1" fill="#372f2a" opacity="0.13"/><circle cx="183" cy="337" r="0.8" fill="#372f2a" opacity="0.16"/><circle cx="468" cy="743" r="1.1" fill="#372f2a" opacity="0.40"/><circle cx="161" cy="832" r="1.1" fill="#372f2a" opacity="0.42"/><circle cx="126" cy="365" r="1.1" fill="#372f2a" opacity="0.23"/><circle cx="613" cy="732" r="1.1" fill="#372f2a" opacity="0.23"/><circle cx="560" cy="579" r="0.8" fill="#372f2a" opacity="0.13"/><circle cx="573" cy="385" r="1.1" fill="#372f2a" opacity="0.26"/><circle cx="438" cy="600" r="2.2" fill="#372f2a" opacity="0.27"/><circle cx="485" cy="339" r="1.6" fill="#372f2a" opacity="0.35"/><circle cx="244" cy="339" r="0.8" fill="#372f2a" opacity="0.16"/><circle cx="106" cy="910" r="1.1" fill="#372f2a" opacity="0.34"/><circle cx="315" cy="380" r="0.8" fill="#372f2a" opacity="0.43"/><circle cx="308" cy="209" r="1.6" fill="#372f2a" opacity="0.23"/><circle cx="472" cy="525" r="1.6" fill="#372f2a" opacity="0.28"/><circle cx="561" cy="246" r="1.1" fill="#372f2a" opacity="0.38"/><circle cx="325" cy="214" r="0.8" fill="#372f2a" opacity="0.13"/><circle cx="613" cy="490" r="1.1" fill="#372f2a" opacity="0.29"/><circle cx="467" cy="443" r="1.6" fill="#372f2a" opacity="0.43"/><circle cx="604" cy="332" r="1.6" fill="#372f2a" opacity="0.25"/><circle cx="361" cy="303" r="2.2" fill="#372f2a" opacity="0.41"/><circle cx="265" cy="856" r="2.2" fill="#372f2a" opacity="0.14"/><circle cx="453" cy="165" r="1.6" fill="#372f2a" opacity="0.15"/><circle cx="541" cy="459" r="1.6" fill="#372f2a" opacity="0.21"/><circle cx="166" cy="661" r="2.2" fill="#372f2a" opacity="0.21"/><circle cx="315" cy="359" r="2.2" fill="#372f2a" opacity="0.28"/><circle cx="237" cy="611" r="1.6" fill="#372f2a" opacity="0.16"/><circle cx="149" cy="687" r="1.1" fill="#372f2a" opacity="0.19"/><circle cx="632" cy="760" r="1.1" fill="#372f2a" opacity="0.16"/><circle cx="547" cy="316" r="1.6" fill="#372f2a" opacity="0.32"/><circle cx="335" cy="398" r="2.2" fill="#372f2a" opacity="0.15"/><circle cx="309" cy="857" r="2.2" fill="#372f2a" opacity="0.15"/><circle cx="593" cy="195" r="1.6" fill="#372f2a" opacity="0.25"/><circle cx="303" cy="329" r="1.1" fill="#372f2a" opacity="0.26"/><circle cx="334" cy="727" r="1.1" fill="#372f2a" opacity="0.32"/><circle cx="631" cy="566" r="0.8" fill="#372f2a" opacity="0.29"/><circle cx="378" cy="515" r="2.2" fill="#372f2a" opacity="0.29"/><circle cx="395" cy="552" r="0.8" fill="#372f2a" opacity="0.39"/><circle cx="645" cy="456" r="1.6" fill="#372f2a" opacity="0.13"/><circle cx="507" cy="804" r="0.8" fill="#372f2a" opacity="0.44"/><circle cx="228" cy="294" r="0.8" fill="#372f2a" opacity="0.13"/><circle cx="592" cy="435" r="1.6" fill="#372f2a" opacity="0.20"/><circle cx="399" cy="282" r="0.8" fill="#372f2a" opacity="0.23"/><circle cx="169" cy="826" r="0.8" fill="#372f2a" opacity="0.30"/><circle cx="75" cy="437" r="0.8" fill="#372f2a" opacity="0.24"/><circle cx="580" cy="188" r="2.2" fill="#372f2a" opacity="0.45"/><circle cx="546" cy="743" r="2.2" fill="#372f2a" opacity="0.37"/><circle cx="599" cy="542" r="1.6" fill="#372f2a" opacity="0.13"/><circle cx="448" cy="312" r="1.6" fill="#372f2a" opacity="0.34"/><circle cx="595" cy="491" r="2.2" fill="#372f2a" opacity="0.43"/><circle cx="403" cy="594" r="0.8" fill="#372f2a" opacity="0.32"/><circle cx="581" cy="900" r="1.1" fill="#372f2a" opacity="0.32"/><path d="M571 427l54 -1" stroke="#302a27" stroke-width="1.2" opacity=".18"/><path d="M463 768l48 -14" stroke="#302a27" stroke-width="1.2" opacity=".18"/><path d="M137 865l39 6" stroke="#302a27" stroke-width="1.2" opacity=".18"/><path d="M82 688l44 5" stroke="#302a27" stroke-width="1.2" opacity=".18"/><path d="M276 352l23 2" stroke="#302a27" stroke-width="1.2" opacity=".18"/><path d="M600 537l71 -1" stroke="#302a27" stroke-width="1.2" opacity=".18"/><path d="M227 323l18 5" stroke="#302a27" stroke-width="1.2" opacity=".18"/><path d="M155 416l78 2" stroke="#302a27" stroke-width="1.2" opacity=".18"/><path d="M499 483l63 2" stroke="#302a27" stroke-width="1.2" opacity=".18"/><path d="M119 674l71 -6" stroke="#302a27" stroke-width="1.2" opacity=".18"/><path d="M137 727l35 -15" stroke="#302a27" stroke-width="1.2" opacity=".18"/><path d="M324 864l61 5" stroke="#302a27" stroke-width="1.2" opacity=".18"/><path d="M489 328l26 9" stroke="#302a27" stroke-width="1.2" opacity=".18"/><path d="M228 667l35 10" stroke="#302a27" stroke-width="1.2" opacity=".18"/><path d="M220 747l68 12" stroke="#302a27" stroke-width="1.2" opacity=".18"/><path d="M437 190l79 -8" stroke="#302a27" stroke-width="1.2" opacity=".18"/><path d="M242 466l71 5" stroke="#302a27" stroke-width="1.2" opacity=".18"/><path d="M198 512l24 -18" stroke="#302a27" stroke-width="1.2" opacity=".18"/><path d="M397 246l41 -4" stroke="#302a27" stroke-width="1.2" opacity=".18"/><path d="M410 519l39 2" stroke="#302a27" stroke-width="1.2" opacity=".18"/><path d="M205 774l44 18" stroke="#302a27" stroke-width="1.2" opacity=".18"/><path d="M404 737l25 12" stroke="#302a27" stroke-width="1.2" opacity=".18"/><path d="M513 806l40 9" stroke="#302a27" stroke-width="1.2" opacity=".18"/><path d="M200 717l77 7" stroke="#302a27" stroke-width="1.2" opacity=".18"/><path d="M216 694l71 -2" stroke="#302a27" stroke-width="1.2" opacity=".18"/><path d="M269 238l37 0" stroke="#302a27" stroke-width="1.2" opacity=".18"/><path d="M477 841l25 15" stroke="#302a27" stroke-width="1.2" opacity=".18"/><path d="M449 422l42 16" stroke="#302a27" stroke-width="1.2" opacity=".18"/><path d="M527 421l61 -14" stroke="#302a27" stroke-width="1.2" opacity=".18"/><path d="M562 740l59 17" stroke="#302a27" stroke-width="1.2" opacity=".18"/><path d="M259 254l49 7" stroke="#302a27" stroke-width="1.2" opacity=".18"/><path d="M336 312l45 15" stroke="#302a27" stroke-width="1.2" opacity=".18"/><path d="M161 757l36 11" stroke="#302a27" stroke-width="1.2" opacity=".18"/><path d="M131 307l37 -6" stroke="#302a27" stroke-width="1.2" opacity=".18"/><path d="M473 298l51 -10" stroke="#302a27" stroke-width="1.2" opacity=".18"/><path d="M575 455l44 -6" stroke="#302a27" stroke-width="1.2" opacity=".18"/><path d="M618 593l20 -13" stroke="#302a27" stroke-width="1.2" opacity=".18"/><path d="M204 808l62 -17" stroke="#302a27" stroke-width="1.2" opacity=".18"/><path d="M376 618l28 -15" stroke="#302a27" stroke-width="1.2" opacity=".18"/><path d="M568 754l55 11" stroke="#302a27" stroke-width="1.2" opacity=".18"/><path d="M139 798l45 -7" stroke="#302a27" stroke-width="1.2" opacity=".18"/><path d="M148 696l50 17" stroke="#302a27" stroke-width="1.2" opacity=".18"/><rect x="18" y="20" width="680" height="1080" rx="26" fill="none" stroke="#2b2724" stroke-width="5" opacity="0.92" filter="url(#rough-ink)"/><rect x="27" y="28" width="664" height="1064" rx="23" fill="none" stroke="#2b2724" stroke-width="2" opacity="0.42" filter="url(#rough-ink)"/><rect x="45" y="43" width="634" height="1034" rx="18" fill="none" stroke="#2b2724" stroke-width="2.5" opacity="0.7" filter="url(#rough-ink)"/><path d="M72 130Q360 74 648 130M72 930Q360 977 648 930" fill="none" stroke="#d6a84b" stroke-width="3" opacity=".75" filter="url(#rough-ink)"/>
<g data-scene="world"><ellipse cx="360" cy="520" rx="245" ry="335" fill="none" stroke="#6d8b6f" stroke-width="16" opacity=".55" filter="url(#rough-ink)"/><path d="M135 205l5.8 17.0h18.0l-14.5 10.5l5.5 17.5l-14.8-10.8l-14.8 10.8l5.5-17.5l-14.5-10.5h18.0Z" fill="#d6a84b" opacity=".62" stroke="#312923" stroke-width="3" filter="url(#rough-ink)"/><path d="M585 205l5.8 17.0h18.0l-14.5 10.5l5.5 17.5l-14.8-10.8l-14.8 10.8l5.5-17.5l-14.5-10.5h18.0Z" fill="#d6a84b" opacity=".62" stroke="#312923" stroke-width="3" filter="url(#rough-ink)"/><path d="M135 800l5.8 17.0h18.0l-14.5 10.5l5.5 17.5l-14.8-10.8l-14.8 10.8l5.5-17.5l-14.5-10.5h18.0Z" fill="#d6a84b" opacity=".62" stroke="#312923" stroke-width="3" filter="url(#rough-ink)"/><path d="M585 800l5.8 17.0h18.0l-14.5 10.5l5.5 17.5l-14.8-10.8l-14.8 10.8l5.5-17.5l-14.5-10.5h18.0Z" fill="#d6a84b" opacity=".62" stroke="#312923" stroke-width="3" filter="url(#rough-ink)"/><g data-layer="hand-drawn-figure"><path d="M300 288l18-38 38 27 38-27 18 38" fill="none" stroke="#d6a84b" stroke-width="7" filter="url(#rough-ink)"/><path d="M264 452 Q356 395 448 452 L498 820 Q356 870 214 820 Z" fill="#20334d" opacity=".52" stroke="#292622" stroke-width="6" filter="url(#rough-ink)"/><path d="M284 485 Q201 568 171 656" fill="none" stroke="#362d28" stroke-width="18" stroke-linecap="round" stroke-linejoin="round" opacity="1" filter="url(#rough-ink)"/><path d="M284 485 Q201 568 171 656" fill="none" stroke="#362d28" stroke-width="5.0" stroke-linecap="round" stroke-linejoin="round" opacity="0.45" transform="translate(2 -1)"/><path d="M428 485 Q510 543 536 646" fill="none" stroke="#362d28" stroke-width="18" stroke-linecap="round" stroke-linejoin="round" opacity="1" filter="url(#rough-ink)"/><path d="M428 485 Q510 543 536 646" fill="none" stroke="#362d28" stroke-width="5.0" stroke-linecap="round" stroke-linejoin="round" opacity="0.45" transform="translate(2 -1)"/><ellipse cx="356" cy="352" rx="69" ry="78" fill="#d3a67e" opacity=".82" stroke="#2e2824" stroke-width="5" filter="url(#rough-ink)"/><path d="M292 342Q302 257 356 268Q426 250 420 364" fill="none" stroke="#8f3151" stroke-width="24" opacity=".78" filter="url(#rough-ink)"/><path d="M325 355l17 2M370 357l17-2" stroke="#292522" stroke-width="7"/><path d="M337 392Q356 403 376 390" fill="none" stroke="#7c4e45" stroke-width="4"/><path d="M296 540Q356 590 416 540" fill="none" stroke="#d6a84b" stroke-width="7" stroke-linecap="round" stroke-linejoin="round" opacity="0.8" filter="url(#rough-ink)"/><path d="M296 540Q356 590 416 540" fill="none" stroke="#d6a84b" stroke-width="2.0" stroke-linecap="round" stroke-linejoin="round" opacity="0.36" transform="translate(2 -1)"/></g></g>
<rect x="78" y="942" width="564" height="118" rx="12" fill="#f4e8d4" opacity=".86" stroke="#302a27" stroke-width="4" filter="url(#rough-ink)"/>
<text x="360" y="995" text-anchor="middle" fill="#2d2926" font-family="Georgia,serif" font-size="31" font-weight="bold" letter-spacing="2">THE WORLD</text>
<text x="360" y="1032" text-anchor="middle" fill="#20334d" font-family="Georgia,serif" font-size="15" letter-spacing="3">COMPLETION</text>
<text x="360" y="84" text-anchor="middle" fill="#2e2925" font-family="Georgia,serif" font-size="30">XXI</text>
</svg>