<svg xmlns="http://www.w3.org/2000/svg" viewBox="0 0 400 400"><defs><radialGradient id="a"><stop stop-color="#74ff51" stop-opacity=".5"/><stop offset="1" stop-color="#060812" stop-opacity="0"/></radialGradient><filter id="g"><feGaussianBlur stdDeviation="5" result="b"/><feMerge><feMergeNode in="b"/><feMergeNode in="SourceGraphic"/></feMerge></filter></defs><rect width="400" height="400" rx="42" fill="#060812"/><circle cx="200" cy="200" r="178" fill="url(#a)" stroke="#f5c451" stroke-width="2"/><circle cx="200" cy="200" r="145" fill="none" stroke="#74ff51" stroke-width="3"/><g fill="#74ff51" stroke="#74ff51" filter="url(#g)"><circle cx="350.0" cy="200.0" r="4"/><circle cx="329.9" cy="275.0" r="5"/><circle cx="275.0" cy="329.9" r="6"/><circle cx="200.0" cy="350.0" r="4"/><circle cx="125.0" cy="329.9" r="5"/><circle cx="70.1" cy="275.0" r="6"/><circle cx="50.0" cy="200.0" r="4"/><circle cx="70.1" cy="125.0" r="5"/><circle cx="125.0" cy="70.1" r="6"/><circle cx="200.0" cy="50.0" r="4"/><circle cx="275.0" cy="70.1" r="5"/><circle cx="329.9" cy="125.0" r="6"/></g><g fill="none" stroke="#f5c451" stroke-width="2" opacity=".75"><path d="M200 200L276.0,230.7"/><path d="M200 200L220.3,117.5"/><path d="M200 200L115.4,191.7"/><path d="M200 200L203.2,272.9"/><path d="M200 200L292.4,182.5"/><path d="M200 200L173.4,122.4"/></g><polygon points="276.0,230.7 111.0,245.5 220.3,117.5 258.3,282.5 115.4,191.7 255.9,147.0 203.2,272.9 144.3,155.9 292.4,182.5 146.7,291.6 173.4,122.4" fill="none" stroke="#74ff51" stroke-width="4"/><path d="M150 180Q102 110 185 142M250 180Q298 110 215 142" fill="none" stroke="#f5c451" stroke-width="9"/><path d="M154 165Q200 125 246 165L232 248 200 278 168 248Z" fill="#0d1120" stroke="#74ff51" stroke-width="5"/><path d="M168 190l28 12-32 14M232 190l-28 12 32 14" fill="#74ff51" filter="url(#g)"/><path d="M182 242l18-14 18 14-18 23Z" fill="#f5c451"/><circle cx="200" cy="200" r="34" fill="none" stroke="#f5c451" stroke-width="2"/><text x="200" y="366" text-anchor="middle" fill="#eef3ff" font-family="Segoe UI" font-size="15" letter-spacing="2">GOOGLE GEMINI</text><text x="200" y="388" text-anchor="middle" fill="#929ab4" font-family="Segoe UI" font-size="9">ORIGINAL PROVIDER DAEMON SIGIL</text></svg>